<svg width="104" height="100" viewBox="0 0 104 100" fill="none" xmlns="http://www.w3.org/2000/svg">
<path d="M83.4245 55.4909C82.4652 55.4909 81.6498 54.6761 81.6498 53.6697C81.6498 52.7112 82.4652 51.8965 83.4245 51.8965C84.4317 51.8965 85.1992 52.7112 85.1992 53.6697C85.1992 54.6761 84.4317 55.4909 83.4245 55.4909Z" fill="#F9843B"/>
<path d="M49.1778 17.7244C49.1778 18.6829 48.3624 19.4976 47.4031 19.4976C46.3959 19.4976 45.6284 18.6829 45.6284 17.7244C45.6284 16.718 46.3959 15.9512 47.4031 15.9512C48.3624 15.9512 49.1778 16.718 49.1778 17.7244Z" fill="#F9843B"/>
<path d="M74.1193 29.5139C73.4478 30.1849 72.2966 30.1849 71.6251 29.5139C70.9056 28.7951 70.9056 27.6928 71.6251 26.9739C72.2966 26.303 73.4478 26.303 74.1193 26.9739C74.8387 27.6928 74.8387 28.7951 74.1193 29.5139Z" fill="#F9843B"/>
<path d="M71.6254 80.4105C70.9539 79.6916 70.9539 78.5893 71.6254 77.8704C72.3449 77.1994 73.448 77.1994 74.1675 77.8704C74.839 78.5893 74.839 79.6916 74.1675 80.4105C73.448 81.0814 72.3449 81.0814 71.6254 80.4105Z" fill="#F9843B"/>
<path d="M45.6284 89.7068C45.6284 88.7004 46.4438 87.9336 47.4511 87.9336C48.4103 87.9336 49.2257 88.7004 49.2257 89.7068C49.2257 90.6653 48.4103 91.4801 47.4511 91.4801C46.4438 91.4801 45.6284 90.6653 45.6284 89.7068Z" fill="#F9843B"/>
<path d="M20.6869 77.9173C21.4064 77.2463 22.5096 77.2463 23.229 77.9173C23.9005 78.6362 23.9005 79.7384 23.229 80.4573C22.5096 81.1283 21.4064 81.1283 20.6869 80.4573C20.0154 79.7384 20.0154 78.6362 20.6869 77.9173Z" fill="#F9843B"/>
<path d="M11.3821 51.9435C12.3893 51.9435 13.1567 52.7582 13.1567 53.7167C13.1567 54.7232 12.3893 55.49 11.3821 55.49C10.4228 55.49 9.60736 54.7232 9.60736 53.7167C9.60736 52.7582 10.4228 51.9435 11.3821 51.9435Z" fill="#F9843B"/>
<path d="M23.1816 27.0216C23.8531 27.6925 23.8531 28.8427 23.1816 29.5137C22.4621 30.2326 21.3589 30.2326 20.6394 29.5137C19.9679 28.8427 19.9679 27.6925 20.6394 27.0216C21.3589 26.3027 22.4621 26.3027 23.1816 27.0216Z" fill="#F9843B"/>
<path d="M83.2806 53.5727C83.2806 73.4137 67.2125 89.4686 47.4032 89.4686C27.5459 89.4686 11.4778 73.4137 11.4778 53.5727C11.4778 33.7796 27.5459 17.7246 47.4032 17.7246C67.2125 17.7246 83.2806 33.7796 83.2806 53.5727Z" fill="#2E788D"/>
<path d="M81.0265 53.5721C81.0265 72.1671 65.9657 87.1677 47.4035 87.1677C28.8412 87.1677 13.7804 72.1671 13.7804 53.5721C13.7804 35.0251 28.8412 19.9766 47.4035 19.9766C65.9657 19.9766 81.0265 35.0251 81.0265 53.5721Z" fill="#8A8A8A"/>
<path d="M79.4433 53.5726C79.4433 71.305 65.1019 85.6346 47.403 85.6346C29.6562 85.6346 15.3148 71.305 15.3148 53.5726C15.3148 35.8882 29.6562 21.5586 47.403 21.5586C65.1019 21.5586 79.4433 35.8882 79.4433 53.5726Z" fill="#FFDF9E"/>
<path opacity="0.11" d="M85.1994 53.6683C85.1994 54.6747 84.432 55.4894 83.4247 55.4894C83.3608 55.4575 83.2968 55.4415 83.2329 55.4415C82.8012 64.0201 79.3477 71.784 73.9757 77.7267C74.0397 77.7906 74.1036 77.8385 74.1676 77.8705C74.8391 78.5894 74.8391 79.6917 74.1676 80.4105C73.4481 81.0815 72.345 81.0815 71.6255 80.4105C71.5615 80.3466 71.5136 80.2827 71.4816 80.2188C65.534 85.5865 57.7638 88.9891 49.1782 89.4205C49.2101 89.5163 49.2261 89.6122 49.2261 89.708C49.2261 90.6665 48.4107 91.4813 47.4514 91.4813V15.9512C48.4107 15.9512 49.1782 16.7659 49.1782 17.7244C49.1782 17.7244 49.1782 17.7404 49.1782 17.7723C57.7638 18.1557 65.582 21.6063 71.5296 27.0698C71.5615 27.0378 71.5935 27.0059 71.6255 26.974C72.297 26.303 73.4481 26.303 74.1196 26.974C74.8391 27.6928 74.8391 28.7951 74.1196 29.514C74.0877 29.514 74.0557 29.53 74.0237 29.5619C79.4437 35.5526 82.8492 43.3164 83.2329 51.943C83.2968 51.911 83.3608 51.8951 83.4247 51.8951C84.432 51.8951 85.1994 52.7098 85.1994 53.6683Z" fill="#714400"/>
<path d="M38.0023 70.1538L8.45626 99.6757C8.02458 100.107 7.30512 100.107 6.87344 99.6757C6.44176 99.2444 6.44176 98.5734 6.87344 98.1421L36.4195 68.5723L38.0023 70.1538Z" fill="#FFAD42"/>
<path d="M42.175 64.4025C43.6619 65.8882 43.6619 68.2845 42.175 69.7222C40.736 71.2079 38.3378 71.2079 36.8509 69.7222C35.412 68.2845 35.412 65.8882 36.8509 64.4025C38.3378 62.9648 40.736 62.9648 42.175 64.4025Z" fill="#F9843B"/>
<path opacity="0.1" d="M6.87347 99.6753L42.1753 64.4023C43.6622 65.888 43.6622 68.2843 42.1753 69.722C40.9762 70.9202 39.2015 71.1119 37.8105 70.393L8.45629 99.6753C8.02461 100.107 7.30515 100.107 6.87347 99.6753Z" fill="black"/>
<path d="M59.9221 59.9961L89.4682 89.518C89.8998 89.9494 89.8998 90.6682 89.4682 91.0996C89.0365 91.5309 88.317 91.5309 87.8853 91.0996L58.3392 61.5776L59.9221 59.9961Z" fill="#FFAD42"/>
<path d="M54.166 55.8252C55.6529 54.3395 58.0032 54.3395 59.4901 55.8252C60.977 57.263 60.977 59.6592 59.4901 61.1449C58.0032 62.5827 55.6529 62.5827 54.166 61.1449C52.6791 59.6592 52.6791 57.263 54.166 55.8252Z" fill="#F9843B"/>
<path opacity="0.1" d="M89.4683 91.0981L54.1664 55.8252C55.6533 54.3395 58.0036 54.3395 59.4905 55.8252C60.6896 57.0233 60.8815 58.7966 60.162 60.1864L89.4683 89.5166C89.9 89.9479 89.9 90.6668 89.4683 91.0981Z" fill="black"/>
<path d="M4.29342 13.5653C4.06778 14.7127 2.93407 15.4634 1.76183 15.2435C0.584082 15.0237 -0.186407 13.9191 0.0392358 12.7771C0.264878 11.6296 1.3986 10.8789 2.57084 11.0988C3.74308 11.3186 4.51906 12.4232 4.29342 13.5653Z" fill="#FFC043"/>
<path d="M6.33366 3.11995L4.7063 2.81836L2.67003 13.2479L4.29739 13.5495L6.33366 3.11995Z" fill="#FFC043"/>
<path d="M11.7728 11.8231C11.5472 12.9705 10.4134 13.7212 9.2412 13.5013C8.06345 13.2815 7.29296 12.1769 7.51861 11.0349C7.74425 9.88741 8.87797 9.13675 10.0502 9.35659C11.228 9.57642 11.9984 10.681 11.7728 11.8231Z" fill="#FFC043"/>
<path d="M13.8107 1.38558L12.1833 1.08398L10.147 11.5136L11.7744 11.8151L13.8107 1.38558Z" fill="#FFC043"/>
<path d="M13.8093 1.3941L4.43689 4.2091L4.70655 2.815L14.0845 0L13.8093 1.3941Z" fill="#FFC043"/>
<path d="M13.2972 4.023L3.91925 6.838L4.19442 5.44391L13.5723 2.62891L13.2972 4.023Z" fill="#FFC043"/>
<path d="M98.5462 37.2497C98.4196 37.8877 97.7922 38.306 97.1373 38.1827C96.4824 38.0593 96.0531 37.4481 96.1797 36.81C96.3062 36.1719 96.9336 35.7537 97.5886 35.877C98.2435 36.0004 98.6727 36.6116 98.5462 37.2497Z" fill="#FFC043"/>
<path d="M99.6852 31.4307L98.783 31.2637L97.6508 37.0684L98.553 37.2355L99.6852 31.4307Z" fill="#FFC043"/>
<path d="M102.712 36.277C102.586 36.9151 101.958 37.3333 101.303 37.21C100.648 37.0867 100.219 36.4754 100.346 35.8373C100.472 35.1993 101.1 34.7811 101.755 34.9044C102.409 35.0277 102.839 35.639 102.712 36.277Z" fill="#FFC043"/>
<path d="M103.834 30.4699L102.932 30.3027L101.798 36.1073L102.7 36.2745L103.834 30.4699Z" fill="#FFC043"/>
<path d="M103.846 30.4713L98.6231 32.037L98.7772 31.2649L104 29.6992L103.846 30.4713Z" fill="#FFC043"/>
<path d="M90.6764 28.6278C90.4507 29.7752 89.317 30.5259 88.1448 30.306C86.967 30.0862 86.1965 28.9816 86.4222 27.8396C86.6478 26.6921 87.7815 25.9414 88.9538 26.1613C90.1315 26.3811 90.902 27.4857 90.6764 28.6278Z" fill="#FFC24B"/>
<path d="M92.7174 18.1864L91.09 17.8848L89.0538 28.3143L90.6811 28.6159L92.7174 18.1864Z" fill="#FFC24B"/>
<path d="M98.7654 16.5203L97.138 16.2188L96.5497 19.2317L98.1771 19.5333L98.7654 16.5203Z" fill="#FFC24B"/>
<path d="M98.6898 16.9175L90.8198 19.2714L91.0895 17.8773L98.9595 15.5234L98.6898 16.9175Z" fill="#FFC24B"/>
<path d="M98.1721 19.5464L90.3076 21.9003L90.5773 20.5062L98.4473 18.1523L98.1721 19.5464Z" fill="#FFC24B"/>
</svg>
