<svg width="20" height="20" viewBox="0 0 20 20" fill="none" xmlns="http://www.w3.org/2000/svg">
<path d="M10 20C15.5228 20 20 15.5228 20 10C20 4.47715 15.5228 0 10 0C4.47715 0 0 4.47715 0 10C0 15.5228 4.47715 20 10 20Z" fill="#8A214E"/>
<path d="M13.9952 11.8507H14V5L6.91587 6.77351V12.1642C6.64818 12.0519 6.33748 11.9864 6.01243 11.9864C4.94646 11.9864 4 12.6603 4 13.4932C4 14.3262 4.94646 15 6.01243 15C7.07839 15 7.93881 14.3262 7.93881 13.4932H7.94837L7.93881 9.17057L12.9675 7.9194V10.6434C12.6998 10.5358 12.3987 10.4703 12.0736 10.4703C11.0076 10.4703 10.0803 11.1441 10.0803 11.9771C10.0803 12.81 11.0076 13.4839 12.0736 13.4839C13.1396 13.4839 14 12.81 14 11.9771C14 11.9303 14 11.8835 13.9904 11.8414L13.9952 11.8507Z" fill="white"/>
</svg>
