<svg width="20" height="20" viewBox="0 0 20 20" fill="none" xmlns="http://www.w3.org/2000/svg">
<path fill-rule="evenodd" clip-rule="evenodd" d="M10 2.5C5.86 2.5 2.5 5.86 2.5 10C2.5 14.14 5.86 17.5 10 17.5C14.14 17.5 17.5 14.14 17.5 10C17.5 5.86 14.14 2.5 10 2.5ZM10 16C6.69252 16 4.00002 13.3075 4.00002 10C4.00002 6.6925 6.69252 4 10 4C13.3075 4 16 6.6925 16 10C16 13.3075 13.3075 16 10 16ZM13.0285 7.09894C13.2569 6.87056 13.6273 6.87121 13.8549 7.10039L14.0904 7.33752C14.3168 7.56556 14.3162 7.93378 14.0889 8.16102L8.91242 13.3375C8.68462 13.5653 8.31527 13.5653 8.08746 13.3375L5.91242 11.1625C5.68462 10.9347 5.68462 10.5653 5.91242 10.3375L6.14576 10.1042C6.37325 9.87668 6.74198 9.87633 6.96992 10.1034L8.08746 11.2166C8.3154 11.4437 8.68413 11.4433 8.91162 11.2158L13.0285 7.09894Z" fill="#21697C"/>
</svg>
