<svg xmlns="http://www.w3.org/2000/svg" xmlns:xlink="http://www.w3.org/1999/xlink" width="40" zoomAndPan="magnify" viewBox="0 0 30 30.000001" height="40" preserveAspectRatio="xMidYMid meet" version="1.0"><defs><clipPath id="29047d817f"><path d="M 3.386719 2.902344 L 26.613281 2.902344 L 26.613281 25.402344 L 3.386719 25.402344 Z M 3.386719 2.902344 " clip-rule="nonzero"/></clipPath></defs><g clip-path="url(#29047d817f)"><path fill="#21697c" d="M 5.625 25.402344 L 19.285156 25.402344 C 20.515625 25.402344 21.507812 24.414062 21.507812 23.195312 L 21.507812 19.027344 L 25.226562 10.605469 C 25.414062 10.757812 25.5625 10.960938 25.65625 11.191406 C 25.796875 11.546875 25.785156 11.933594 25.632812 12.285156 L 23.988281 16.019531 L 24.699219 16.328125 L 26.347656 12.597656 C 26.582031 12.058594 26.597656 11.464844 26.382812 10.917969 C 26.210938 10.492188 25.921875 10.140625 25.550781 9.890625 L 26.042969 8.777344 C 26.386719 8 26.027344 7.09375 25.246094 6.753906 L 24.863281 6.585938 C 24.488281 6.421875 24.066406 6.414062 23.679688 6.5625 C 23.292969 6.710938 22.992188 7 22.824219 7.378906 L 22.191406 8.8125 L 21.515625 10.347656 L 21.515625 8.554688 L 15.816406 2.902344 L 5.613281 2.902344 C 4.390625 2.902344 3.402344 3.886719 3.402344 5.101562 L 3.402344 23.203125 C 3.402344 24.414062 4.398438 25.402344 5.625 25.402344 Z M 23.53125 7.683594 C 23.613281 7.5 23.765625 7.355469 23.953125 7.277344 C 24.144531 7.199219 24.355469 7.207031 24.542969 7.289062 L 24.925781 7.453125 C 25.316406 7.621094 25.496094 8.078125 25.324219 8.46875 L 24.84375 9.550781 L 23.046875 8.769531 Z M 22.742188 9.472656 L 24.148438 10.082031 L 24.539062 10.257812 L 20.640625 19.089844 L 18.84375 18.308594 Z M 20.292969 19.777344 L 18.933594 20.539062 L 18.578125 19.027344 Z M 16.042969 4.210938 L 20.191406 8.328125 L 17.480469 8.332031 C 17.480469 8.332031 17.480469 8.332031 17.472656 8.332031 C 17.09375 8.332031 16.730469 8.183594 16.460938 7.914062 C 16.1875 7.648438 16.039062 7.289062 16.039062 6.902344 Z M 4.175781 5.101562 C 4.175781 4.3125 4.824219 3.671875 5.613281 3.671875 L 15.277344 3.671875 L 15.269531 6.902344 C 15.269531 7.492188 15.496094 8.046875 15.917969 8.457031 C 16.332031 8.871094 16.890625 9.101562 17.484375 9.101562 C 17.484375 9.101562 17.488281 9.101562 17.488281 9.101562 L 20.746094 9.09375 L 20.746094 12.097656 L 18.398438 17.425781 L 18.398438 17.394531 L 6.523438 17.394531 L 6.523438 18.160156 L 18.058594 18.160156 L 17.792969 18.769531 C 17.757812 18.847656 17.75 18.933594 17.769531 19.007812 L 18.136719 20.5625 L 6.523438 20.5625 L 6.523438 21.332031 L 18.34375 21.332031 C 18.382812 21.394531 18.445312 21.445312 18.519531 21.480469 C 18.566406 21.5 18.621094 21.511719 18.671875 21.511719 C 18.742188 21.511719 18.804688 21.5 18.859375 21.464844 L 20.738281 20.410156 L 20.738281 23.203125 C 20.738281 23.996094 20.082031 24.640625 19.285156 24.640625 L 5.625 24.640625 C 4.824219 24.640625 4.175781 23.992188 4.175781 23.203125 Z M 4.175781 5.101562 " fill-opacity="1" fill-rule="nonzero"/></g><path fill="#21697c" d="M 12.457031 11.050781 L 18.386719 11.050781 L 18.386719 11.820312 L 12.457031 11.820312 Z M 12.457031 11.050781 " fill-opacity="1" fill-rule="nonzero"/><path fill="#21697c" d="M 6.523438 14.222656 L 18.382812 14.222656 L 18.382812 14.988281 L 6.523438 14.988281 Z M 6.523438 14.222656 " fill-opacity="1" fill-rule="nonzero"/></svg>