<svg width="22" height="22" viewBox="0 0 22 22" fill="none" xmlns="http://www.w3.org/2000/svg">
<path fill-rule="evenodd" clip-rule="evenodd" d="M13.6462 2.95214C15.1377 1.46061 17.5564 1.46061 19.0479 2.95214C20.5394 4.44367 20.5394 6.86154 19.0479 8.35306L14.2949 13.106C12.8034 14.5975 10.3856 14.5975 8.89405 13.106C8.59574 12.8077 8.59574 12.324 8.89405 12.0257C9.19236 11.7274 9.67605 11.7274 9.97436 12.0257C10.8692 12.9206 12.3197 12.9206 13.2146 12.0257L17.9676 7.27272C18.8624 6.37785 18.8624 4.92732 17.9676 4.03245C17.0727 3.13755 15.6214 3.13755 14.7265 4.03245L12.1346 6.62435C11.8363 6.92266 11.3526 6.92266 11.0543 6.62435C10.756 6.32604 10.756 5.84235 11.0543 5.54403L13.6462 2.95214ZM7.27358 17.9673L9.43389 15.807C9.7322 15.5087 10.2159 15.5087 10.5142 15.807C10.8125 16.1053 10.8125 16.589 10.5142 16.8873L8.35393 19.0476C6.86162 20.5399 4.4436 20.5399 2.95226 19.0476C1.46073 17.5561 1.46073 15.1382 2.95226 13.6467L7.27358 9.32539C8.76511 7.83386 11.1829 7.83386 12.6745 9.32539C12.9728 9.6237 12.9728 10.1074 12.6745 10.4057C12.3762 10.704 11.8925 10.704 11.5942 10.4057C10.6993 9.5108 9.24876 9.5108 8.3539 10.4057L4.03253 14.7271C3.13767 15.6219 3.13767 17.0725 4.03271 17.9675C4.92758 18.8629 6.37796 18.8629 7.27358 17.9673Z" fill="#424953"/>
</svg>
