<svg width="20" height="20" viewBox="0 0 20 20" fill="none" xmlns="http://www.w3.org/2000/svg">
<path fill-rule="evenodd" clip-rule="evenodd" d="M12.6462 1.95214C14.1377 0.460614 16.5564 0.460614 18.0479 1.95214C19.5394 3.44367 19.5394 5.86154 18.0479 7.35306L13.2949 12.106C11.8034 13.5975 9.38558 13.5975 7.89405 12.106C7.59574 11.8077 7.59574 11.324 7.89405 11.0257C8.19236 10.7274 8.67605 10.7274 8.97436 11.0257C9.86923 11.9206 11.3197 11.9206 12.2146 11.0257L16.9676 6.27272C17.8624 5.37785 17.8624 3.92732 16.9676 3.03245C16.0727 2.13755 14.6214 2.13755 13.7265 3.03245L11.1346 5.62435C10.8363 5.92266 10.3526 5.92266 10.0543 5.62435C9.75601 5.32604 9.75601 4.84235 10.0543 4.54403L12.6462 1.95214ZM6.27358 16.9673L8.43389 14.807C8.7322 14.5087 9.21592 14.5087 9.51424 14.807C9.81255 15.1053 9.81255 15.589 9.51424 15.8873L7.35393 18.0476C5.86162 19.5399 3.4436 19.5399 1.95226 18.0476C0.460729 16.5561 0.460729 14.1382 1.95226 12.6467L6.27358 8.32539C7.76511 6.83386 10.1829 6.83386 11.6745 8.32539C11.9728 8.6237 11.9728 9.10739 11.6745 9.40571C11.3762 9.70402 10.8925 9.70402 10.5942 9.40571C9.69929 8.5108 8.24876 8.5108 7.3539 9.40571L3.03253 13.7271C2.13767 14.6219 2.13767 16.0725 3.03271 16.9675C3.92758 17.8629 5.37796 17.8629 6.27358 16.9673Z" fill="currentColor"/>
</svg>
