<svg width="16" height="17" viewBox="0 0 16 17" fill="none" xmlns="http://www.w3.org/2000/svg">
<path fill-rule="evenodd" clip-rule="evenodd" d="M12.1275 2.5H13.2059C13.9177 2.5 14.5 3.12307 14.5 3.88461V13.1154C14.5 13.8769 13.9177 14.5 13.2059 14.5H12.1275C11.4157 14.5 10.8333 13.8769 10.8333 13.1154V3.88461C10.8333 3.12307 11.4157 2.5 12.1275 2.5ZM8.53922 5.16667H7.46078C6.74901 5.16667 6.16667 5.78279 6.16667 6.53586V13.1308C6.16667 13.8838 6.74901 14.5 7.46078 14.5H8.53922C9.25099 14.5 9.83333 13.8838 9.83333 13.1308V6.53586C9.83333 5.78279 9.25099 5.16667 8.53922 5.16667ZM2.79412 14.5H3.87255C4.58432 14.5 5.16667 13.896 5.16667 13.1577V9.17561C5.16667 8.4329 4.58432 7.83333 3.87255 7.83333H2.79412C2.08234 7.83333 1.5 8.4329 1.5 9.17561V13.1577C1.5 13.896 2.08234 14.5 2.79412 14.5Z" fill="#8C909B"/>
</svg>
