<svg width="16" height="17" viewBox="0 0 16 17" fill="none" xmlns="http://www.w3.org/2000/svg">
<path d="M11.9107 10.2221C12.3294 9.56337 12.6072 8.73022 12.6611 7.90584C12.6953 7.37672 12.5699 6.82128 12.2983 6.29898C11.8723 5.4785 11.1405 5.01758 10.4336 4.57226C9.90601 4.23998 9.40743 3.92621 9.05501 3.47796L8.99178 3.39806C8.78344 3.13496 8.54814 2.83678 8.51083 2.58634C8.47351 2.33299 8.22889 2.15272 7.96146 2.16733C7.68989 2.18487 7.47947 2.39633 7.47947 2.65261V11.3349C7.04516 11.0874 6.51031 10.9354 5.92466 10.9354C4.49631 10.9354 3.33331 11.8095 3.33331 12.8843C3.33331 13.9591 4.49631 14.8332 5.92466 14.8332C7.35301 14.8332 8.51601 13.9591 8.51601 12.8843V7.20521C9.29445 7.48488 10.5684 8.1972 10.9187 9.86058C10.8534 9.9512 10.7912 10.0486 10.7187 10.1266C10.529 10.3283 10.5497 10.6362 10.7653 10.8136C10.9788 10.9929 11.3064 10.9714 11.4961 10.7697C11.635 10.6216 11.7583 10.4482 11.8765 10.2669C11.8889 10.2533 11.9003 10.2387 11.9107 10.2221Z" fill="#8C909B"/>
</svg>
