<svg width="16" height="17" viewBox="0 0 16 17" fill="none" xmlns="http://www.w3.org/2000/svg">
<path d="M9.99998 7.8335H8.66665V5.16683C8.66665 4.99002 8.59641 4.82045 8.47139 4.69543C8.34636 4.5704 8.17679 4.50016 7.99998 4.50016C7.82317 4.50016 7.6536 4.5704 7.52858 4.69543C7.40355 4.82045 7.33332 4.99002 7.33332 5.16683V8.50016C7.33332 8.67697 7.40355 8.84654 7.52858 8.97157C7.6536 9.09659 7.82317 9.16683 7.99998 9.16683H9.99998C10.1768 9.16683 10.3464 9.09659 10.4714 8.97157C10.5964 8.84654 10.6666 8.67697 10.6666 8.50016C10.6666 8.32335 10.5964 8.15378 10.4714 8.02876C10.3464 7.90373 10.1768 7.8335 9.99998 7.8335ZM7.99998 1.8335C6.68144 1.8335 5.39251 2.22449 4.29618 2.95703C3.19985 3.68957 2.34537 4.73077 1.84079 5.94894C1.3362 7.16711 1.20418 8.50756 1.46141 9.80077C1.71865 11.094 2.35359 12.2819 3.28594 13.2142C4.21829 14.1466 5.40617 14.7815 6.69938 15.0387C7.99259 15.296 9.33303 15.1639 10.5512 14.6594C11.7694 14.1548 12.8106 13.3003 13.5431 12.204C14.2757 11.1076 14.6666 9.81871 14.6666 8.50016C14.6666 7.62468 14.4942 6.75778 14.1592 5.94894C13.8241 5.1401 13.3331 4.40517 12.714 3.78612C12.095 3.16706 11.36 2.676 10.5512 2.34097C9.74237 2.00593 8.87546 1.8335 7.99998 1.8335ZM7.99998 13.8335C6.94515 13.8335 5.914 13.5207 5.03694 12.9347C4.15988 12.3486 3.47629 11.5157 3.07263 10.5411C2.66896 9.5666 2.56334 8.49425 2.76913 7.45968C2.97492 6.42512 3.48287 5.47481 4.22875 4.72893C4.97463 3.98305 5.92494 3.4751 6.9595 3.26931C7.99407 3.06352 9.06642 3.16914 10.041 3.57281C11.0155 3.97647 11.8485 4.66006 12.4345 5.53712C13.0205 6.41418 13.3333 7.44533 13.3333 8.50016C13.3333 9.91465 12.7714 11.2712 11.7712 12.2714C10.771 13.2716 9.41447 13.8335 7.99998 13.8335Z" fill="#8C909B"/>
</svg>
