<svg width="21" height="21" viewBox="0 0 21 21" fill="none" xmlns="http://www.w3.org/2000/svg">
<path d="M10.5 2.16675C8.84307 2.16895 7.25463 2.82813 6.08301 3.99976C4.91138 5.17138 4.2522 6.75982 4.25 8.41674C4.25 12.9037 10.0729 18.5235 10.3203 18.7605C10.3684 18.8073 10.4329 18.8334 10.5 18.8334C10.5671 18.8334 10.6316 18.8073 10.6797 18.7605C10.9271 18.5235 16.75 12.9037 16.75 8.41674C16.7478 6.75982 16.0886 5.17138 14.917 3.99976C13.7454 2.82813 12.1569 2.16895 10.5 2.16675V2.16675ZM10.5 11.2813C9.93343 11.2813 9.3796 11.1133 8.90852 10.7986C8.43744 10.4838 8.07028 10.0364 7.85347 9.51297C7.63665 8.98954 7.57992 8.41356 7.69046 7.85789C7.80099 7.30222 8.07381 6.7918 8.47443 6.39118C8.87505 5.99056 9.38547 5.71773 9.94114 5.6072C10.4968 5.49667 11.0728 5.5534 11.5962 5.77021C12.1197 5.98703 12.567 6.35419 12.8818 6.82527C13.1966 7.29634 13.3646 7.85018 13.3646 8.41674C13.3641 9.17634 13.0622 9.90469 12.5251 10.4418C11.9879 10.9789 11.2596 11.2809 10.5 11.2813Z" fill="#8C909B"/>
</svg>
