<svg xmlns="http://www.w3.org/2000/svg" xmlns:xlink="http://www.w3.org/1999/xlink" width="40" zoomAndPan="magnify" viewBox="0 0 30 30.000001" height="40" preserveAspectRatio="xMidYMid meet" version="1.0"><defs><clipPath id="0ffc577083"><path d="M 6 2.902344 L 8 2.902344 L 8 26.128906 L 6 26.128906 Z M 6 2.902344 " clip-rule="nonzero"/></clipPath><clipPath id="98c140f3d5"><path d="M 3.75 17 L 10 17 L 10 24 L 3.75 24 Z M 3.75 17 " clip-rule="nonzero"/></clipPath><clipPath id="aa75f6d30f"><path d="M 14 2.902344 L 16 2.902344 L 16 26.128906 L 14 26.128906 Z M 14 2.902344 " clip-rule="nonzero"/></clipPath><clipPath id="ddd8d4c1da"><path d="M 22 2.902344 L 24 2.902344 L 24 26.128906 L 22 26.128906 Z M 22 2.902344 " clip-rule="nonzero"/></clipPath><clipPath id="c997441829"><path d="M 20 17 L 26.25 17 L 26.25 24 L 20 24 Z M 20 17 " clip-rule="nonzero"/></clipPath></defs><g clip-path="url(#0ffc577083)"><path fill="#21697c" d="M 7.359375 3.449219 C 7.359375 3.148438 7.113281 2.902344 6.816406 2.902344 C 6.515625 2.902344 6.273438 3.148438 6.273438 3.449219 L 6.273438 17.789062 C 6.273438 18.085938 6.515625 18.332031 6.816406 18.332031 C 7.113281 18.332031 7.359375 18.085938 7.359375 17.789062 Z M 7.359375 22.835938 C 7.359375 22.535156 7.113281 22.292969 6.816406 22.292969 C 6.515625 22.292969 6.273438 22.535156 6.273438 22.835938 L 6.273438 25.585938 C 6.273438 25.882812 6.515625 26.128906 6.816406 26.128906 C 7.113281 26.128906 7.359375 25.882812 7.359375 25.585938 Z M 7.359375 22.835938 " fill-opacity="1" fill-rule="nonzero"/></g><g clip-path="url(#98c140f3d5)"><path fill="#21697c" d="M 6.816406 17.246094 C 7.671875 17.246094 8.433594 17.597656 8.992188 18.140625 C 9.535156 18.699219 9.890625 19.460938 9.890625 20.320312 C 9.890625 21.164062 9.535156 21.925781 8.992188 22.484375 C 8.433594 23.039062 7.671875 23.378906 6.816406 23.378906 C 5.972656 23.378906 5.210938 23.039062 4.652344 22.484375 C 4.09375 21.925781 3.753906 21.164062 3.753906 20.320312 C 3.753906 19.460938 4.09375 18.699219 4.652344 18.140625 C 5.210938 17.597656 5.972656 17.246094 6.816406 17.246094 Z M 8.21875 18.917969 C 7.863281 18.5625 7.359375 18.332031 6.816406 18.332031 C 6.273438 18.332031 5.78125 18.5625 5.429688 18.917969 C 5.0625 19.273438 4.84375 19.761719 4.84375 20.320312 C 4.84375 20.863281 5.0625 21.351562 5.429688 21.707031 C 5.78125 22.074219 6.273438 22.292969 6.816406 22.292969 C 7.359375 22.292969 7.863281 22.074219 8.21875 21.707031 C 8.570312 21.351562 8.800781 20.863281 8.800781 20.320312 C 8.800781 19.761719 8.570312 19.273438 8.21875 18.917969 Z M 8.21875 18.917969 " fill-opacity="1" fill-rule="nonzero"/></g><g clip-path="url(#aa75f6d30f)"><path fill="#21697c" d="M 14.449219 25.585938 C 14.449219 25.882812 14.695312 26.128906 14.992188 26.128906 C 15.292969 26.128906 15.539062 25.882812 15.539062 25.585938 L 15.539062 14.507812 C 15.539062 14.210938 15.292969 13.964844 14.992188 13.964844 C 14.695312 13.964844 14.449219 14.210938 14.449219 14.507812 Z M 14.449219 9.476562 C 14.449219 9.773438 14.695312 10.019531 14.992188 10.019531 C 15.292969 10.019531 15.539062 9.773438 15.539062 9.476562 L 15.539062 3.449219 C 15.539062 3.148438 15.292969 2.902344 14.992188 2.902344 C 14.695312 2.902344 14.449219 3.148438 14.449219 3.449219 Z M 14.449219 9.476562 " fill-opacity="1" fill-rule="nonzero"/></g><path fill="#21697c" d="M 14.992188 13.964844 C 15.539062 13.964844 16.039062 13.746094 16.394531 13.394531 C 16.75 13.039062 16.980469 12.535156 16.980469 11.992188 C 16.980469 11.449219 16.75 10.957031 16.394531 10.589844 C 16.039062 10.238281 15.539062 10.019531 14.992188 10.019531 C 14.449219 10.019531 13.960938 10.238281 13.605469 10.589844 C 13.238281 10.957031 13.019531 11.449219 13.019531 11.992188 C 13.019531 12.535156 13.238281 13.039062 13.605469 13.394531 C 13.960938 13.746094 14.449219 13.964844 14.992188 13.964844 Z M 17.171875 14.15625 C 16.613281 14.714844 15.851562 15.054688 14.992188 15.054688 C 14.148438 15.054688 13.386719 14.714844 12.828125 14.15625 C 12.273438 13.609375 11.933594 12.835938 11.933594 11.992188 C 11.933594 11.148438 12.273438 10.386719 12.828125 9.828125 C 13.386719 9.269531 14.148438 8.929688 14.992188 8.929688 C 15.851562 8.929688 16.613281 9.269531 17.171875 9.828125 C 17.714844 10.386719 18.066406 11.148438 18.066406 11.992188 C 18.066406 12.835938 17.714844 13.609375 17.171875 14.15625 Z M 17.171875 14.15625 " fill-opacity="1" fill-rule="nonzero"/><g clip-path="url(#ddd8d4c1da)"><path fill="#21697c" d="M 23.714844 3.449219 C 23.714844 3.148438 23.46875 2.902344 23.171875 2.902344 C 22.871094 2.902344 22.625 3.148438 22.625 3.449219 L 22.625 17.789062 C 22.625 18.085938 22.871094 18.332031 23.171875 18.332031 C 23.46875 18.332031 23.714844 18.085938 23.714844 17.789062 Z M 23.714844 22.835938 C 23.714844 22.535156 23.46875 22.292969 23.171875 22.292969 C 22.871094 22.292969 22.625 22.535156 22.625 22.835938 L 22.625 25.585938 C 22.625 25.882812 22.871094 26.128906 23.171875 26.128906 C 23.46875 26.128906 23.714844 25.882812 23.714844 25.585938 Z M 23.714844 22.835938 " fill-opacity="1" fill-rule="nonzero"/></g><g clip-path="url(#c997441829)"><path fill="#21697c" d="M 23.171875 17.246094 C 24.015625 17.246094 24.789062 17.597656 25.347656 18.140625 C 25.890625 18.699219 26.246094 19.460938 26.246094 20.320312 C 26.246094 21.164062 25.890625 21.925781 25.347656 22.484375 C 24.789062 23.039062 24.015625 23.378906 23.171875 23.378906 C 22.328125 23.378906 21.566406 23.039062 21.007812 22.484375 C 20.449219 21.925781 20.109375 21.164062 20.109375 20.320312 C 20.109375 19.460938 20.449219 18.699219 21.007812 18.140625 C 21.566406 17.597656 22.328125 17.246094 23.171875 17.246094 Z M 24.570312 18.917969 C 24.21875 18.5625 23.714844 18.332031 23.171875 18.332031 C 22.625 18.332031 22.136719 18.5625 21.78125 18.917969 C 21.414062 19.273438 21.199219 19.761719 21.199219 20.320312 C 21.199219 20.863281 21.414062 21.351562 21.78125 21.707031 C 22.136719 22.074219 22.625 22.292969 23.171875 22.292969 C 23.714844 22.292969 24.21875 22.074219 24.570312 21.707031 C 24.925781 21.351562 25.15625 20.863281 25.15625 20.320312 C 25.15625 19.761719 24.925781 19.273438 24.570312 18.917969 Z M 24.570312 18.917969 " fill-opacity="1" fill-rule="nonzero"/></g></svg>