<svg xmlns="http://www.w3.org/2000/svg" xmlns:xlink="http://www.w3.org/1999/xlink" width="40" zoomAndPan="magnify" viewBox="0 0 30 30.000001" height="40" preserveAspectRatio="xMidYMid meet" version="1.0"><defs><clipPath id="dad6aea447"><path d="M 3.648438 2.902344 L 26.148438 2.902344 L 26.148438 26.128906 L 3.648438 26.128906 Z M 3.648438 2.902344 " clip-rule="nonzero"/></clipPath></defs><path fill="#21697c" d="M 20.019531 6.402344 L 15.417969 7.949219 L 15.660156 8.683594 L 20.261719 7.136719 L 20.019531 6.402344 " fill-opacity="1" fill-rule="nonzero"/><path fill="#21697c" d="M 5.183594 18.375 L 17.839844 18.375 L 17.839844 17.601562 L 5.183594 17.601562 L 5.183594 18.375 " fill-opacity="1" fill-rule="nonzero"/><path fill="#21697c" d="M 5.183594 19.921875 L 17.839844 19.921875 L 17.839844 19.148438 L 5.183594 19.148438 L 5.183594 19.921875 " fill-opacity="1" fill-rule="nonzero"/><g clip-path="url(#dad6aea447)"><path fill="#21697c" d="M 19.875 20.554688 C 19.1875 19.402344 19.214844 17.957031 19.960938 16.832031 L 20.027344 16.726562 L 24.710938 13.894531 C 24.414062 14.832031 24.542969 15.867188 25.105469 16.71875 L 25.355469 17.097656 Z M 25.324219 21.757812 L 19.867188 25.199219 C 19.179688 24.046875 19.207031 22.601562 19.953125 21.472656 L 20.03125 21.355469 C 20.070312 21.339844 20.109375 21.316406 20.148438 21.292969 L 24.46875 18.570312 C 24.304688 19.695312 24.605469 20.847656 25.324219 21.757812 Z M 19.074219 20.695312 L 4.800781 20.695312 C 4.585938 20.695312 4.414062 20.523438 4.414062 20.308594 L 4.414062 16.863281 C 4.414062 16.851562 4.417969 16.839844 4.417969 16.828125 L 19.074219 16.828125 C 18.457031 18.042969 18.457031 19.480469 19.074219 20.695312 Z M 19.066406 25.335938 L 6.714844 25.335938 C 6.503906 25.335938 6.332031 25.164062 6.332031 24.949219 L 6.332031 21.46875 L 19.066406 21.46875 C 18.449219 22.6875 18.449219 24.121094 19.066406 25.335938 Z M 9.339844 13.460938 C 9.371094 13.472656 9.40625 13.488281 9.441406 13.496094 L 14.8125 15.191406 C 14.925781 15.226562 15.039062 15.242188 15.15625 15.242188 C 15.269531 15.242188 15.386719 15.226562 15.496094 15.191406 L 20.867188 13.496094 C 21.15625 13.40625 21.386719 13.210938 21.527344 12.960938 L 24.765625 12.960938 L 19.652344 16.054688 L 5.335938 16.054688 Z M 9.402344 8.855469 L 14.769531 10.535156 L 14.769531 14.367188 L 9.671875 12.757812 C 9.511719 12.707031 9.402344 12.558594 9.402344 12.390625 Z M 15.539062 10.535156 L 20.90625 8.855469 L 20.90625 12.390625 C 20.90625 12.558594 20.800781 12.707031 20.640625 12.757812 L 15.539062 14.367188 Z M 25.40625 17.976562 L 25.761719 17.753906 C 25.941406 17.640625 26.0625 17.464844 26.105469 17.261719 C 26.148438 17.054688 26.109375 16.84375 25.996094 16.667969 L 25.742188 16.289062 C 25.183594 15.441406 25.183594 14.347656 25.742188 13.5 L 25.816406 13.386719 C 25.972656 13.152344 25.988281 12.847656 25.855469 12.59375 C 25.71875 12.34375 25.460938 12.183594 25.175781 12.183594 L 21.675781 12.183594 L 21.675781 8.617188 L 25.210938 7.507812 C 25.535156 7.40625 25.75 7.109375 25.75 6.769531 C 25.75 6.429688 25.535156 6.132812 25.210938 6.03125 L 15.503906 2.992188 C 15.273438 2.921875 15.027344 2.921875 14.800781 3 L 12.730469 3.695312 L 12.976562 4.429688 L 15.042969 3.734375 C 15.117188 3.707031 15.199219 3.707031 15.277344 3.730469 L 24.984375 6.769531 L 15.269531 9.8125 C 15.195312 9.832031 15.117188 9.832031 15.042969 9.8125 L 5.347656 6.777344 L 7.976562 5.980469 L 7.757812 5.238281 L 5.125 6.035156 C 4.800781 6.132812 4.582031 6.429688 4.578125 6.773438 C 4.578125 7.113281 4.792969 7.414062 5.117188 7.515625 L 5.183594 7.535156 L 5.183594 10.53125 L 4.085938 12.375 L 4.746094 12.769531 L 5.183594 12.035156 L 5.183594 13.347656 L 5.949219 13.347656 L 5.949219 12.035156 L 6.386719 12.769531 L 7.046875 12.375 L 5.949219 10.53125 L 5.949219 7.773438 L 8.632812 8.617188 L 8.632812 12.390625 C 8.632812 12.578125 8.679688 12.757812 8.757812 12.917969 L 4.175781 15.886719 C 3.847656 16.101562 3.648438 16.464844 3.648438 16.863281 L 3.648438 20.308594 C 3.648438 20.949219 4.164062 21.46875 4.800781 21.46875 L 5.566406 21.46875 L 5.566406 24.949219 C 5.566406 25.589844 6.082031 26.113281 6.714844 26.113281 L 19.539062 26.113281 C 19.753906 26.113281 19.964844 26.050781 20.148438 25.933594 L 25.730469 22.414062 C 25.917969 22.296875 26.046875 22.105469 26.082031 21.886719 C 26.117188 21.671875 26.0625 21.449219 25.925781 21.273438 C 25.214844 20.378906 25.003906 19.195312 25.363281 18.105469 L 25.40625 17.976562 " fill-opacity="1" fill-rule="nonzero"/></g><path fill="#21697c" d="M 7.101562 23.015625 L 17.839844 23.015625 L 17.839844 22.242188 L 7.101562 22.242188 L 7.101562 23.015625 " fill-opacity="1" fill-rule="nonzero"/><path fill="#21697c" d="M 7.101562 24.5625 L 17.839844 24.5625 L 17.839844 23.789062 L 7.101562 23.789062 L 7.101562 24.5625 " fill-opacity="1" fill-rule="nonzero"/><path fill="#21697c" d="M 10.550781 4.636719 C 10.707031 4.867188 10.90625 5.066406 11.132812 5.222656 C 10.90625 5.378906 10.707031 5.578125 10.550781 5.808594 C 10.398438 5.578125 10.199219 5.378906 9.972656 5.222656 C 10.199219 5.066406 10.398438 4.867188 10.550781 4.636719 Z M 10.167969 7.058594 L 10.167969 7.15625 L 10.9375 7.15625 L 10.9375 7.058594 C 10.9375 6.261719 11.582031 5.609375 12.375 5.609375 L 12.46875 5.609375 L 12.46875 4.835938 L 12.375 4.835938 C 11.582031 4.835938 10.9375 4.183594 10.9375 3.386719 L 10.9375 3.289062 L 10.167969 3.289062 L 10.167969 3.386719 C 10.167969 4.183594 9.523438 4.835938 8.730469 4.835938 L 8.632812 4.835938 L 8.632812 5.609375 L 8.730469 5.609375 C 9.523438 5.609375 10.167969 6.261719 10.167969 7.058594 " fill-opacity="1" fill-rule="nonzero"/></svg>