<svg width="18" height="12" viewBox="0 0 18 12" fill="none" xmlns="http://www.w3.org/2000/svg">
<path d="M15.8691 0.166341H2.13216C1.32611 0.166341 0.667318 0.819318 0.667318 1.62467V10.3747C0.667318 11.1803 1.32653 11.833 2.13216 11.833H15.8691C16.6752 11.833 17.334 11.18 17.334 10.3747C17.334 6.95759 17.334 5.04176 17.334 1.62467C17.334 0.819123 16.6749 0.166341 15.8691 0.166341ZM15.6442 1.13856C15.1706 1.61161 9.60758 7.16796 9.37904 7.39624C9.18815 7.58686 8.81325 7.58699 8.62227 7.39624L2.3571 1.13856H15.6442ZM1.64388 10.1959V1.8034L5.84521 5.99967L1.64388 10.1959ZM2.3571 10.8608L6.53464 6.68827L7.93063 8.0826C8.5027 8.65397 9.49883 8.65374 10.0707 8.0826L11.4667 6.6883L15.6442 10.8608H2.3571ZM16.3574 10.1959L12.1561 5.99967L16.3574 1.8034V10.1959Z" fill="#21697C"/>
<path fill-rule="evenodd" clip-rule="evenodd" d="M0.583984 1.62467C0.583984 0.772838 1.28054 0.0830078 2.13216 0.0830078H15.8691C16.7204 0.0830078 17.4173 0.772624 17.4173 1.62467V10.3747C17.4173 11.2265 16.7208 11.9163 15.8691 11.9163H2.13216C1.28099 11.9163 0.583984 11.2268 0.583984 10.3747V1.62467ZM2.13216 0.249674C1.37167 0.249674 0.750651 0.865798 0.750651 1.62467V10.3747C0.750651 11.1338 1.37207 11.7497 2.13216 11.7497H15.8691C16.6296 11.7497 17.2507 11.1335 17.2507 10.3747V1.62467C17.2507 0.865623 16.6293 0.249674 15.8691 0.249674H2.13216ZM2.15574 1.05523H15.8456L9.43793 7.4552C9.32356 7.5694 9.15909 7.62257 9.0007 7.62259C8.8423 7.6226 8.6778 7.56948 8.56338 7.4552L2.15574 1.05523ZM2.55845 1.2219L8.68116 7.33728C8.75772 7.41375 8.87616 7.45593 9.00068 7.45592C9.1252 7.45591 9.24362 7.41369 9.32015 7.33728C9.32015 7.33728 9.32014 7.33728 9.32015 7.33728L15.4429 1.2219H2.55845ZM1.56055 1.60239L5.96314 5.99967L1.56055 10.397V1.60239ZM16.4408 1.60239V10.397L12.0382 5.99967L16.4408 1.60239ZM1.72721 2.00441V9.99493L5.72729 5.99967L1.72721 2.00441ZM12.274 5.99967L16.2741 9.99493V2.00441L12.274 5.99967ZM6.53464 6.57049L7.98952 8.02363C8.52905 8.5625 9.47247 8.5623 10.0118 8.02363L11.4667 6.57052L15.8456 10.9441H2.15574L6.53464 6.57049ZM2.55845 10.7775H15.4429L11.4667 6.80608L10.1296 8.14156C9.52519 8.74519 8.47636 8.74544 7.87174 8.14156L6.53464 6.80605L2.55845 10.7775Z" fill="#21697C"/>
</svg>
