<svg width="40" height="40" viewBox="0 0 40 40" fill="none" xmlns="http://www.w3.org/2000/svg">
<rect width="40" height="40" rx="20" fill="#21697C"/>
<path fill-rule="evenodd" clip-rule="evenodd" d="M10.9335 12H29.0662C29.3549 12 29.6264 12.0702 29.8727 12.1881L22.8013 19.5269C22.8008 19.5274 22.7998 19.528 22.7998 19.528L22.7992 19.5287L22.7987 19.5295L20.4998 21.9154C20.2556 22.168 19.7442 22.168 19.5 21.9154L17.2006 19.5292C17.2006 19.5292 17.2005 19.5285 17.2 19.528C17.1996 19.5275 17.199 19.5274 17.1985 19.5269L10.1269 12.1881C10.3732 12.0703 10.6448 12 10.9335 12ZM21.4126 22.8568L23.2551 20.9445L29.8728 27.8119C29.6266 27.9298 29.355 28 29.0663 28H10.9336C10.6449 28 10.3733 27.9297 10.127 27.8119L16.7448 20.9445L18.5874 22.8568C19.3507 23.6491 20.6654 23.6324 21.4126 22.8568ZM9.20565 13.1206C9.0782 13.3872 9 13.6831 9 14V26C9 26.317 9.07812 26.6129 9.2056 26.8795L15.8349 20.0003L9.20565 13.1206ZM24.165 20.0002L30.7942 13.1204C30.9217 13.387 30.9999 13.6829 30.9999 14V26C30.9999 26.3171 30.9217 26.613 30.7942 26.8795L24.165 20.0002Z" fill="white"/>
</svg>
