<svg width="16" height="16" viewBox="0 0 16 16" fill="none" xmlns="http://www.w3.org/2000/svg">
<path fill-rule="evenodd" clip-rule="evenodd" d="M13.2941 6.94118C12.8706 6.94118 12.5882 6.65882 12.5882 6.23529V4.4L8.84706 8.14118C8.70588 8.28235 8.56471 8.35294 8.35294 8.35294C8.14118 8.35294 8 8.28235 7.85882 8.14118C7.57647 7.85882 7.57647 7.43529 7.85882 7.15294L11.6 3.41176H9.76471C9.34118 3.41176 9.05882 3.12941 9.05882 2.70588C9.05882 2.28235 9.34118 2 9.76471 2H13.2941C13.717 2 13.9991 2.28143 14 2.70381C14 2.70495 14 2.70608 14 2.70722V6.23529C14 6.65882 13.7176 6.94118 13.2941 6.94118ZM11.8824 14H3.41176C2.63529 14 2 13.3647 2 12.5882V4.11765C2 3.34118 2.63529 2.70588 3.41176 2.70588H6.23529C6.65882 2.70588 6.94118 2.98824 6.94118 3.41176C6.94118 3.83529 6.65882 4.11765 6.23529 4.11765H3.41176V12.5882H11.8824V9.76471C11.8824 9.34118 12.1647 9.05882 12.5882 9.05882C13.0118 9.05882 13.2941 9.34118 13.2941 9.76471V12.5882C13.2941 13.3647 12.6588 14 11.8824 14Z" fill="#21697C"/>
</svg>
