<svg width="20" height="14" viewBox="0 0 20 14" fill="none" xmlns="http://www.w3.org/2000/svg">
<path d="M8.0015 11.778L18.2498 11.778C18.493 11.778 18.7261 11.6773 18.898 11.4981C19.0699 11.3189 19.1665 11.0758 19.1665 10.8224C19.1665 10.569 19.0699 10.3259 18.898 10.1467C18.7261 9.9675 18.493 9.86682 18.2498 9.86682L8.0015 9.86682C7.80882 9.31338 7.45734 8.83522 6.99485 8.4973C6.53236 8.15939 5.98128 7.97811 5.4165 7.97811C4.85173 7.97811 4.30065 8.15939 3.83816 8.4973C3.37566 8.83522 3.02419 9.31338 2.8315 9.86682L1.74984 9.86682C1.50672 9.86682 1.27356 9.9675 1.10165 10.1467C0.929746 10.3259 0.83317 10.569 0.83317 10.8224C0.83317 11.0758 0.929746 11.3189 1.10165 11.4981C1.27356 11.6773 1.50672 11.778 1.74984 11.778L2.8315 11.778C3.02419 12.3314 3.37566 12.8096 3.83816 13.1475C4.30065 13.4854 4.85173 13.6667 5.4165 13.6667C5.98128 13.6667 6.53236 13.4854 6.99485 13.1475C7.45734 12.8096 7.80882 12.3314 8.0015 11.778ZM4.49984 10.8224C4.49984 10.6334 4.5536 10.4487 4.65432 10.2915C4.75505 10.1344 4.89821 10.0119 5.06571 9.93956C5.23321 9.86723 5.41752 9.84831 5.59534 9.88518C5.77315 9.92205 5.93649 10.0131 6.06469 10.1467C6.19288 10.2803 6.28019 10.4506 6.31556 10.636C6.35093 10.8214 6.33277 11.0135 6.26339 11.1881C6.19401 11.3627 6.07652 11.512 5.92578 11.617C5.77503 11.722 5.5978 11.778 5.4165 11.778C5.17339 11.778 4.94023 11.6773 4.76832 11.4981C4.59641 11.3189 4.49984 11.0758 4.49984 10.8224ZM15.3348 4.13326L18.2498 4.13326C18.493 4.13326 18.7261 4.03259 18.898 3.85338C19.0699 3.67417 19.1665 3.43111 19.1665 3.17767C19.1665 2.92423 19.0699 2.68117 18.898 2.50197C18.7261 2.32276 18.493 2.22208 18.2498 2.22208L15.3348 2.22208C15.1422 1.66865 14.7907 1.19048 14.3282 0.852565C13.8657 0.514649 13.3146 0.333374 12.7498 0.333374C12.1851 0.333374 11.634 0.514649 11.1715 0.852564C10.709 1.19048 10.3575 1.66865 10.1648 2.22208C6.87858 2.22208 5.0361 2.22208 1.74984 2.22208C1.50672 2.22208 1.27356 2.32276 1.10165 2.50197C0.929746 2.68117 0.83317 2.92423 0.83317 3.17767C0.83317 3.43111 0.929746 3.67417 1.10165 3.85338C1.27356 4.03259 1.50672 4.13326 1.74984 4.13326L10.1648 4.13326C10.3575 4.6867 10.709 5.16486 11.1715 5.50278C11.634 5.84069 12.1851 6.02197 12.7498 6.02197C13.3146 6.02197 13.8657 5.84069 14.3282 5.50278C14.7907 5.16486 15.1421 4.6867 15.3348 4.13326ZM11.8332 3.17767C11.8332 2.98867 11.8869 2.80392 11.9877 2.64677C12.0884 2.48963 12.2315 2.36715 12.399 2.29482C12.5665 2.22249 12.7509 2.20357 12.9287 2.24044C13.1065 2.27731 13.2698 2.36832 13.398 2.50197C13.5262 2.63561 13.6135 2.80588 13.6489 2.99125C13.6843 3.17661 13.6661 3.36875 13.5967 3.54336C13.5273 3.71797 13.4099 3.86722 13.2591 3.97222C13.1084 4.07722 12.9311 4.13326 12.7498 4.13326C12.5067 4.13326 12.2736 4.03259 12.1017 3.85338C11.9297 3.67417 11.8332 3.43111 11.8332 3.17767Z" fill="currentColor"/>
</svg>
