<svg width="12" height="12" viewBox="0 0 12 12" fill="none" xmlns="http://www.w3.org/2000/svg">
<g clip-path="url(#clip0_33300_65453)">
<path d="M6 0.375C2.89838 0.375 0.375 2.89838 0.375 6C0.375 9.10163 2.89838 11.625 6 11.625C9.10163 11.625 11.625 9.10163 11.625 6C11.625 2.89838 9.10163 0.375 6 0.375ZM10.499 4.125H8.48466C8.30775 2.98547 7.97147 2.0325 7.52559 1.37297C8.86931 1.81716 9.95662 2.82862 10.499 4.125ZM7.875 6C7.875 6.39291 7.85503 6.76762 7.82091 7.125H4.17909C4.14497 6.76762 4.125 6.39291 4.125 6C4.125 5.60709 4.14497 5.23238 4.17909 4.875H7.82081C7.85503 5.23238 7.875 5.60709 7.875 6ZM6 10.875C5.32294 10.875 4.58822 9.70566 4.27791 7.875H7.72209C7.41178 9.70566 6.67706 10.875 6 10.875ZM4.27791 4.125C4.58822 2.29434 5.32294 1.125 6 1.125C6.67706 1.125 7.41178 2.29434 7.72209 4.125H4.27791ZM4.47441 1.37297C4.02853 2.03259 3.69216 2.98547 3.51534 4.125H1.50103C2.04338 2.82862 3.13069 1.81716 4.47441 1.37297ZM1.26122 4.875H3.42506C3.39337 5.23697 3.375 5.61178 3.375 6C3.375 6.38822 3.39337 6.76303 3.42516 7.125H1.26122C1.17534 6.76312 1.125 6.38775 1.125 6C1.125 5.61225 1.17534 5.23688 1.26122 4.875ZM1.50103 7.875H3.51525C3.69216 9.01453 4.02844 9.9675 4.47431 10.627C3.13059 10.1828 2.04338 9.17138 1.50103 7.875ZM7.52559 10.627C7.97147 9.96741 8.30784 9.01453 8.48466 7.875H10.4989C9.95662 9.17138 8.86941 10.1828 7.52559 10.627ZM10.7388 7.125H8.57484C8.60662 6.76303 8.625 6.38822 8.625 6C8.625 5.61178 8.60662 5.23697 8.57484 4.875H10.7387C10.8247 5.23688 10.8749 5.61225 10.8749 6C10.8749 6.38775 10.8247 6.76312 10.7388 7.125Z" fill="#21697C"/>
</g>
<defs>
<clipPath id="clip0_33300_65453">
<rect width="12" height="12" fill="white"/>
</clipPath>
</defs>
</svg>
