<svg xmlns="http://www.w3.org/2000/svg" xmlns:xlink="http://www.w3.org/1999/xlink" width="40" zoomAndPan="magnify" viewBox="0 0 30 30.000001" height="40" preserveAspectRatio="xMidYMid meet" version="1.0"><defs><clipPath id="c826f5fd42"><path d="M 3.894531 4.878906 L 26.394531 4.878906 L 26.394531 24.472656 L 3.894531 24.472656 Z M 3.894531 4.878906 " clip-rule="nonzero"/></clipPath></defs><g clip-path="url(#c826f5fd42)"><path fill="#21697c" d="M 24.757812 6.585938 C 23.660156 5.472656 22.203125 4.855469 20.652344 4.855469 C 19.101562 4.855469 17.640625 5.472656 16.546875 6.585938 L 15.226562 7.929688 L 13.90625 6.585938 C 12.808594 5.472656 11.347656 4.855469 9.800781 4.855469 C 8.25 4.855469 6.789062 5.472656 5.695312 6.585938 C 4.597656 7.703125 3.992188 9.183594 3.992188 10.761719 C 3.992188 12.339844 4.597656 13.824219 5.695312 14.9375 L 14.917969 24.320312 C 15.003906 24.40625 15.113281 24.449219 15.226562 24.449219 C 15.335938 24.449219 15.449219 24.40625 15.53125 24.320312 L 24.757812 14.9375 C 27.019531 12.636719 27.019531 8.890625 24.757812 6.585938 Z M 24.140625 14.3125 L 15.226562 23.382812 L 6.308594 14.3125 C 5.375 13.363281 4.863281 12.105469 4.863281 10.761719 C 4.863281 9.421875 5.375 8.160156 6.308594 7.210938 C 7.242188 6.265625 8.480469 5.742188 9.796875 5.742188 C 11.117188 5.742188 12.355469 6.265625 13.289062 7.210938 L 14.917969 8.867188 C 15.085938 9.039062 15.363281 9.039062 15.53125 8.867188 L 17.160156 7.210938 C 18.09375 6.265625 19.332031 5.742188 20.652344 5.742188 C 21.96875 5.742188 23.210938 6.265625 24.140625 7.210938 C 26.066406 9.171875 26.066406 12.355469 24.140625 14.3125 Z M 24.140625 14.3125 " fill-opacity="1" fill-rule="nonzero"/></g></svg>