<svg width="25" height="25" viewBox="0 0 25 25" fill="none" xmlns="http://www.w3.org/2000/svg">
<path d="M20.8932 5.26381C18.718 2.91238 15.1795 2.91238 13.0049 5.26381L12.4998 5.80965L11.995 5.26381C9.82046 2.91206 6.28163 2.91206 4.10706 5.26381C1.97664 7.56749 1.96281 11.2191 4.07498 13.758C6.00142 16.0728 11.683 21.0739 11.9241 21.2855C12.0877 21.4294 12.2847 21.4994 12.4804 21.4994C12.4869 21.4994 12.4933 21.4994 12.4995 21.4991C12.702 21.5093 12.906 21.4342 13.075 21.2855C13.316 21.0739 18.9982 16.0728 20.9252 13.7576C23.0371 11.2191 23.0233 7.56749 20.8932 5.26381ZM19.6125 12.4804C18.1105 14.2847 13.9818 18.006 12.4995 19.3265C11.0172 18.0063 6.88944 14.2854 5.38772 12.4807C3.91427 10.7098 3.90043 8.18781 5.35564 6.61425C6.09885 5.81093 7.07487 5.40894 8.0509 5.40894C9.02692 5.40894 10.0029 5.81061 10.7462 6.61425L11.8564 7.81479C11.9886 7.9577 12.1551 8.043 12.33 8.07292C12.6137 8.1388 12.9216 8.05318 13.1424 7.81511L14.2532 6.61425C15.7399 5.00728 18.1582 5.0076 19.644 6.61425C21.0992 8.18781 21.0854 10.7098 19.6125 12.4804Z" fill="#424953"/>
</svg>
