<svg width="16" height="16" viewBox="0 0 16 16" fill="none" xmlns="http://www.w3.org/2000/svg">
<g id="info">
<path id="Vector" fill-rule="evenodd" clip-rule="evenodd" d="M8.00001 1.33325C4.32401 1.33325 1.33334 4.32396 1.33334 7.99996C1.33334 11.676 4.32401 14.6666 8.00001 14.6666C11.676 14.6666 14.6667 11.676 14.6667 7.99996C14.6667 4.32396 11.676 1.33325 8.00001 1.33325ZM8.00001 13.4545C4.99233 13.4545 2.54546 11.0076 2.54546 7.99996C2.54546 4.99232 4.99233 2.54537 8.00001 2.54537C11.0077 2.54537 13.4546 4.99232 13.4546 7.99996C13.4546 11.0076 11.0076 13.4545 8.00001 13.4545ZM7.99993 4.16154C7.55444 4.16154 7.19201 4.5242 7.19201 4.96998C7.19201 5.41535 7.55444 5.7777 7.99993 5.7777C8.44543 5.7777 8.80785 5.41535 8.80785 4.96998C8.80785 4.5242 8.44543 4.16154 7.99993 4.16154ZM7.39395 7.59588C7.39395 7.26117 7.6653 6.98982 8.00001 6.98982C8.33472 6.98982 8.60607 7.26117 8.60607 7.59588V11.2322C8.60607 11.567 8.33472 11.8383 8.00001 11.8383C7.6653 11.8383 7.39395 11.567 7.39395 11.2322V7.59588Z" fill="#21697C"/>
</g>
</svg>
