<svg width="40" height="40" viewBox="0 0 40 40" fill="none" xmlns="http://www.w3.org/2000/svg">
<rect width="40" height="40" rx="20" fill="#21697C"/>
<path d="M16.3339 20C16.3339 17.975 17.975 16.333 20 16.333C22.025 16.333 23.667 17.975 23.667 20C23.667 22.025 22.025 23.667 20 23.667C17.975 23.667 16.3339 22.025 16.3339 20ZM14.3516 20C14.3516 23.1196 16.8804 25.6484 20 25.6484C23.1196 25.6484 25.6484 23.1196 25.6484 20C25.6484 16.8804 23.1196 14.3516 20 14.3516C16.8804 14.3516 14.3516 16.8804 14.3516 20ZM24.552 14.1277C24.5519 14.3887 24.6292 14.644 24.7741 14.8611C24.9191 15.0782 25.1252 15.2475 25.3663 15.3475C25.6075 15.4475 25.8729 15.4738 26.129 15.4229C26.3851 15.3721 26.6203 15.2465 26.805 15.062C26.9897 14.8774 27.1155 14.6423 27.1665 14.3862C27.2175 14.1302 27.1915 13.8648 27.0917 13.6235C26.9919 13.3823 26.8228 13.1761 26.6058 13.031C26.3888 12.8858 26.1336 12.8083 25.8725 12.8082H25.872C25.522 12.8084 25.1865 12.9474 24.939 13.1948C24.6915 13.4422 24.5523 13.7777 24.552 14.1277ZM15.556 28.9537C14.4835 28.9049 13.9006 28.7263 13.5133 28.5753C12.9997 28.3754 12.6333 28.1373 12.248 27.7525C11.8627 27.3678 11.6242 27.0017 11.4252 26.4882C11.2742 26.101 11.0955 25.5179 11.0468 24.4454C10.9935 23.2859 10.9828 22.9376 10.9828 20.0001C10.9828 17.0626 10.9943 16.7152 11.0468 15.5548C11.0956 14.4823 11.2756 13.9004 11.4252 13.512C11.6251 12.9985 11.8633 12.632 12.248 12.2468C12.6327 11.8615 12.9988 11.623 13.5133 11.424C13.9005 11.273 14.4835 11.0943 15.556 11.0456C16.7155 10.9922 17.0638 10.9816 20 10.9816C22.9362 10.9816 23.2849 10.9931 24.4453 11.0456C25.5178 11.0944 26.0997 11.2744 26.4881 11.424C27.0016 11.623 27.3681 11.862 27.7533 12.2468C28.1386 12.6315 28.3762 12.9985 28.5761 13.512C28.7271 13.8992 28.9058 14.4823 28.9545 15.5548C29.0079 16.7152 29.0185 17.0626 29.0185 20.0001C29.0185 22.9376 29.0079 23.285 28.9545 24.4454C28.9057 25.5179 28.7262 26.1008 28.5761 26.4882C28.3762 27.0017 28.1381 27.3682 27.7533 27.7525C27.3686 28.1369 27.0016 28.3754 26.4881 28.5753C26.1009 28.7263 25.5178 28.905 24.4453 28.9537C23.2858 29.0071 22.9375 29.0177 20 29.0177C17.0625 29.0177 16.7151 29.0071 15.556 28.9537ZM15.4649 9.06662C14.2939 9.11994 13.4937 9.30562 12.7949 9.57754C12.0712 9.85835 11.4585 10.2351 10.8463 10.8463C10.2341 11.4576 9.85835 12.0712 9.57754 12.7949C9.30562 13.4942 9.11994 14.2939 9.06662 15.4649C9.01241 16.6378 9 17.0128 9 20C9 22.9872 9.01241 23.3622 9.06662 24.5351C9.11994 25.7062 9.30562 26.5058 9.57754 27.2051C9.85835 27.9284 10.2342 28.5427 10.8463 29.1537C11.4585 29.7647 12.0712 30.1409 12.7949 30.4225C13.495 30.6944 14.2939 30.8801 15.4649 30.9334C16.6384 30.9867 17.0128 31 20 31C22.9872 31 23.3622 30.9876 24.5351 30.9334C25.7062 30.8801 26.5058 30.6944 27.2051 30.4225C27.9284 30.1409 28.5415 29.7649 29.1537 29.1537C29.7659 28.5424 30.1409 27.9284 30.4225 27.2051C30.6944 26.5058 30.8809 25.7061 30.9334 24.5351C30.9867 23.3613 30.9991 22.9872 30.9991 20C30.9991 17.0128 30.9867 16.6378 30.9334 15.4649C30.8801 14.2938 30.6944 13.4937 30.4225 12.7949C30.1409 12.0716 29.7649 11.4585 29.1537 10.8463C28.5424 10.2341 27.9284 9.85835 27.206 9.57754C26.5058 9.30562 25.7061 9.11906 24.536 9.06662C23.3631 9.01329 22.9881 9 20.0009 9C17.0136 9 16.6384 9.01241 15.4649 9.06662Z" fill="white"/>
</svg>
