<svg width="15" height="14" viewBox="0 0 15 14" fill="none" xmlns="http://www.w3.org/2000/svg">
<path fill-rule="evenodd" clip-rule="evenodd" d="M13.6176 7.66623C13.7839 7.88693 13.8827 8.16105 13.8827 8.45776C13.8827 8.89737 13.6659 9.28722 13.3335 9.52724C13.4998 9.74794 13.5986 10.0221 13.5986 10.3188C13.5986 10.7583 13.382 11.1484 13.0497 11.3885C13.2159 11.6092 13.3145 11.8832 13.3145 12.1798C13.3145 12.9077 12.7207 13.4999 11.9908 13.4999H7.82367C7.13732 13.4999 6.46346 13.3781 5.82083 13.1377L4.73964 12.7334V5.91631C6.00667 4.55664 7.16635 3.25887 7.37518 2.92556V1.39329C7.37518 1.08449 7.62708 0.833252 7.93675 0.833252C9.2138 0.833252 10.2528 1.86941 10.2528 3.14299V3.83415L9.83404 5.27665H12.843C13.5729 5.27665 14.1667 5.86884 14.1667 6.59672C14.1667 7.03628 13.9499 7.42613 13.6176 7.66623ZM0.833374 5.01983H3.95837V13.2453H0.833374V5.01983Z" fill="#FFC24B"/>
</svg>
