<svg width="40" height="40" fill="none" xmlns="http://www.w3.org/2000/svg"><rect width="40" height="40" rx="20" fill="#21697C"></rect><path d="M 14.22,28.88 H 9.86 V 14.86 H 14.22 Z M 12.04,12.95 c -1.39,0 -2.52,-1.15 -2.52,-2.54 a 2.52,2.52 0 0 1 5.04,0 c 0,1.39 -1.12,2.54 -2.52,2.54 z m 18.47,15.93 h -4.34 v -6.82 c 0,-1.62 -0.03,-3.71 -2.26,-3.71 -2.26,0 -2.61,1.76 -2.61,3.59 v 6.94 H 16.94 V 14.86 h 4.17 v 1.91 h 0.06 c 0.58,-1.10 2.00,-2.26 4.11,-2.26 4.40,0 5.21,2.90 5.21,6.67 v 7.70 z" fill="#fff"></path></svg>
