<svg width="21" height="21" viewBox="0 0 21 21" fill="none" xmlns="http://www.w3.org/2000/svg">
<path d="M3.99011 5.5H11.5941C12.597 5.5 13.4175 6.31937 13.4175 7.3622V13.6378C13.4175 14.662 12.597 15.5 11.5941 15.5H3.99011C2.9872 15.5 2.16663 14.662 2.16663 13.6378V7.3622C2.16663 6.33799 2.9872 5.5 3.99011 5.5Z" fill="#C00659"/>
<path d="M17.1739 6.65456C17.2651 6.59869 17.3745 6.54283 17.4839 6.52421C18.1951 6.35661 18.8333 6.91527 18.8333 7.60428V13.3585C18.8333 13.5633 18.7786 13.7495 18.6874 13.9171C18.3774 14.4572 17.721 14.6434 17.1922 14.3268L14.3293 12.6508V8.33054L17.1739 6.65456Z" fill="#C00659"/>
</svg>
