<svg xmlns="http://www.w3.org/2000/svg" xmlns:xlink="http://www.w3.org/1999/xlink" width="40" zoomAndPan="magnify" viewBox="0 0 30 30.000001" height="40" preserveAspectRatio="xMidYMid meet" version="1.0"><defs><clipPath id="8bfcb23538"><path d="M 7.359375 2.902344 L 22.601562 2.902344 L 22.601562 26.128906 L 7.359375 26.128906 Z M 7.359375 2.902344 " clip-rule="nonzero"/></clipPath></defs><g clip-path="url(#8bfcb23538)"><path fill="#21697c" d="M 14.980469 24.617188 L 21.304688 12.746094 C 21.425781 12.402344 21.515625 12.042969 21.578125 11.679688 C 21.640625 11.3125 21.671875 10.9375 21.671875 10.546875 C 21.671875 8.695312 20.921875 7.015625 19.714844 5.800781 C 18.5 4.589844 16.828125 3.839844 14.980469 3.839844 C 13.128906 3.839844 11.460938 4.589844 10.242188 5.800781 C 9.035156 7.015625 8.285156 8.695312 8.285156 10.546875 C 8.285156 10.9375 8.316406 11.3125 8.378906 11.679688 C 8.441406 12.042969 8.53125 12.402344 8.652344 12.746094 Z M 14.980469 6.375 C 16.152344 6.375 17.210938 6.851562 17.976562 7.625 C 18.746094 8.390625 19.222656 9.449219 19.222656 10.625 C 19.222656 10.867188 19.199219 11.105469 19.160156 11.339844 C 19.117188 11.578125 19.058594 11.808594 18.980469 12.03125 C 18.6875 12.875 18.136719 13.59375 17.425781 14.097656 C 16.734375 14.585938 15.890625 14.875 14.980469 14.875 C 14.066406 14.875 13.222656 14.585938 12.53125 14.097656 C 11.820312 13.59375 11.277344 12.875 10.980469 12.03125 L 10.976562 12.039062 C 10.898438 11.8125 10.839844 11.582031 10.800781 11.339844 C 10.757812 11.105469 10.734375 10.867188 10.734375 10.625 C 10.734375 9.449219 11.210938 8.390625 11.984375 7.625 C 12.746094 6.851562 13.804688 6.375 14.980469 6.375 Z M 17.324219 8.273438 C 16.722656 7.675781 15.894531 7.304688 14.980469 7.304688 C 14.0625 7.304688 13.234375 7.675781 12.632812 8.273438 C 12.035156 8.878906 11.664062 9.707031 11.664062 10.625 C 11.664062 10.820312 11.679688 11.007812 11.710938 11.1875 C 11.742188 11.371094 11.789062 11.554688 11.847656 11.730469 C 12.078125 12.386719 12.507812 12.945312 13.0625 13.339844 C 13.601562 13.722656 14.261719 13.949219 14.980469 13.949219 C 15.695312 13.949219 16.355469 13.722656 16.894531 13.339844 C 17.449219 12.945312 17.878906 12.386719 18.109375 11.730469 C 18.167969 11.554688 18.214844 11.375 18.246094 11.1875 C 18.277344 11.007812 18.292969 10.820312 18.292969 10.625 C 18.292969 9.707031 17.921875 8.878906 17.324219 8.273438 Z M 22.140625 13.140625 L 15.386719 25.808594 C 15.34375 25.890625 15.28125 25.960938 15.195312 26.003906 C 14.972656 26.121094 14.691406 26.039062 14.570312 25.8125 L 7.835938 13.171875 C 7.820312 13.140625 7.804688 13.113281 7.792969 13.078125 C 7.652344 12.679688 7.542969 12.257812 7.46875 11.832031 C 7.398438 11.410156 7.359375 10.984375 7.359375 10.546875 C 7.359375 8.4375 8.210938 6.53125 9.59375 5.144531 C 10.972656 3.765625 12.875 2.910156 14.980469 2.910156 C 17.085938 2.910156 18.984375 3.765625 20.363281 5.144531 C 21.746094 6.53125 22.601562 8.4375 22.601562 10.546875 C 22.601562 10.984375 22.558594 11.410156 22.488281 11.832031 C 22.417969 12.257812 22.304688 12.679688 22.164062 13.078125 C 22.160156 13.097656 22.148438 13.121094 22.140625 13.140625 Z M 22.140625 13.140625 " fill-opacity="1" fill-rule="nonzero"/></g></svg>