<svg xmlns="http://www.w3.org/2000/svg" xmlns:xlink="http://www.w3.org/1999/xlink" width="198" zoomAndPan="magnify" viewBox="0 0 148.5 148.499994" height="198" preserveAspectRatio="xMidYMid meet" version="1.2"><defs><clipPath id="416743a7d4"><path d="M 32.117188 14.800781 L 115.835938 14.800781 L 115.835938 132.902344 L 32.117188 132.902344 Z M 32.117188 14.800781 "/></clipPath></defs><g id="68eced02ea"><path style=" stroke:none;fill-rule:nonzero;fill:#ffffff;fill-opacity:1;" d="M 0 0 L 148 0 L 148 148 L 0 148 Z M 0 0 "/><path style=" stroke:none;fill-rule:nonzero;fill:#ffffff;fill-opacity:1;" d="M 0 0 L 148 0 L 148 148 L 0 148 Z M 0 0 "/><g clip-rule="nonzero" clip-path="url(#416743a7d4)"><path style=" stroke:none;fill-rule:nonzero;fill:#c0055b;fill-opacity:1;" d="M 92.464844 105.746094 C 84.808594 116.757812 77.066406 125.304688 74.015625 128.546875 C 70.964844 125.304688 63.21875 116.757812 55.5625 105.746094 C 46.621094 92.882812 35.957031 73.929688 35.957031 56.683594 C 35.957031 35.703125 53.03125 18.628906 74.015625 18.628906 C 95 18.628906 112.070312 35.703125 112.070312 56.683594 C 112.070312 73.929688 101.410156 92.882812 92.464844 105.746094 Z M 74.015625 14.8125 C 50.925781 14.8125 32.140625 33.597656 32.140625 56.683594 C 32.140625 71.339844 38.980469 88.59375 52.464844 107.976562 C 62.4375 122.304688 72.558594 132.546875 72.660156 132.648438 C 73.019531 133.011719 73.507812 133.214844 74.015625 133.214844 C 74.523438 133.214844 75.011719 133.011719 75.367188 132.648438 C 75.46875 132.546875 85.59375 122.304688 95.5625 107.976562 C 109.050781 88.59375 115.886719 71.339844 115.886719 56.683594 C 115.886719 33.597656 97.105469 14.8125 74.015625 14.8125 "/></g><path style=" stroke:none;fill-rule:nonzero;fill:#c0055b;fill-opacity:1;" d="M 74.226562 73.910156 C 65.363281 73.910156 58.15625 66.703125 58.15625 57.839844 C 58.15625 48.980469 65.363281 41.769531 74.226562 41.769531 C 83.085938 41.769531 90.292969 48.980469 90.292969 57.839844 C 90.292969 66.703125 83.085938 73.910156 74.226562 73.910156 Z M 74.226562 37.957031 C 63.261719 37.957031 54.339844 46.875 54.339844 57.839844 C 54.339844 68.804688 63.261719 77.726562 74.226562 77.726562 C 85.191406 77.726562 94.109375 68.804688 94.109375 57.839844 C 94.109375 46.875 85.191406 37.957031 74.226562 37.957031 "/></g></svg>