<svg width="21" height="20" viewBox="0 0 21 20" fill="none" xmlns="http://www.w3.org/2000/svg">
<path d="M10.5 1.66669C8.84307 1.66888 7.25463 2.32807 6.08301 3.4997C4.91138 4.67132 4.2522 6.25975 4.25 7.91668C4.25 12.4037 10.0729 18.0234 10.3203 18.2604C10.3684 18.3072 10.4329 18.3334 10.5 18.3334C10.5671 18.3334 10.6316 18.3072 10.6797 18.2604C10.9271 18.0234 16.75 12.4037 16.75 7.91668C16.7478 6.25975 16.0886 4.67132 14.917 3.4997C13.7454 2.32807 12.1569 1.66888 10.5 1.66669V1.66669ZM10.5 10.7813C9.93343 10.7813 9.3796 10.6133 8.90852 10.2985C8.43744 9.98373 8.07028 9.53634 7.85347 9.01291C7.63665 8.48948 7.57992 7.9135 7.69046 7.35783C7.80099 6.80215 8.07381 6.29174 8.47443 5.89112C8.87505 5.4905 9.38547 5.21767 9.94114 5.10714C10.4968 4.99661 11.0728 5.05334 11.5962 5.27015C12.1197 5.48697 12.567 5.85413 12.8818 6.32521C13.1966 6.79628 13.3646 7.35012 13.3646 7.91668C13.3641 8.67628 13.0622 9.40463 12.5251 9.94174C11.9879 10.4789 11.2596 10.7808 10.5 10.7813Z" fill="white"/>
</svg>
