<svg xmlns="http://www.w3.org/2000/svg" xmlns:xlink="http://www.w3.org/1999/xlink" width="40" zoomAndPan="magnify" viewBox="0 0 30 30.000001" height="40" preserveAspectRatio="xMidYMid meet" version="1.0"><defs><clipPath id="b07e76c06b"><path d="M 12 9 L 24.945312 9 L 24.945312 26.128906 L 12 26.128906 Z M 12 9 " clip-rule="nonzero"/></clipPath><clipPath id="1a92cd532a"><path d="M 5.347656 2.902344 L 16 2.902344 L 16 17 L 5.347656 17 Z M 5.347656 2.902344 " clip-rule="nonzero"/></clipPath></defs><g clip-path="url(#b07e76c06b)"><path fill="#21697c" d="M 24.160156 10.855469 L 24.160156 12.339844 L 17.105469 15.121094 L 17.105469 13.636719 Z M 22.59375 23.027344 C 21.726562 23.027344 21.023438 22.332031 21.023438 21.480469 C 21.023438 20.628906 21.726562 19.9375 22.59375 19.9375 C 23.457031 19.9375 24.160156 20.628906 24.160156 21.480469 C 24.160156 22.332031 23.457031 23.027344 22.59375 23.027344 Z M 14.753906 25.34375 C 13.890625 25.34375 13.183594 24.648438 13.183594 23.796875 C 13.183594 22.945312 13.890625 22.253906 14.753906 22.253906 C 15.617188 22.253906 16.320312 22.945312 16.320312 23.796875 C 16.320312 24.648438 15.617188 25.34375 14.753906 25.34375 Z M 16.320312 13.375 L 16.320312 22.074219 C 15.90625 21.707031 15.355469 21.480469 14.753906 21.480469 C 13.457031 21.480469 12.402344 22.519531 12.402344 23.796875 C 12.402344 25.074219 13.457031 26.113281 14.753906 26.113281 C 16.050781 26.113281 17.105469 25.074219 17.105469 23.796875 L 17.105469 15.953125 L 24.160156 13.171875 L 24.160156 19.757812 C 23.742188 19.390625 23.195312 19.164062 22.59375 19.164062 C 21.296875 19.164062 20.242188 20.203125 20.242188 21.480469 C 20.242188 22.757812 21.296875 23.796875 22.59375 23.796875 C 23.890625 23.796875 24.945312 22.757812 24.945312 21.480469 C 24.945312 21.351562 24.945312 10.285156 24.945312 10.285156 C 24.945312 10.160156 24.878906 10.039062 24.769531 9.96875 C 24.664062 9.894531 24.527344 9.878906 24.40625 9.929688 L 16.566406 13.015625 C 16.417969 13.074219 16.320312 13.21875 16.320312 13.375 " fill-opacity="1" fill-rule="nonzero"/></g><g clip-path="url(#1a92cd532a)"><path fill="#21697c" d="M 7.699219 15.691406 C 6.832031 15.691406 6.128906 15 6.128906 14.148438 C 6.128906 13.296875 6.832031 12.601562 7.699219 12.601562 C 8.5625 12.601562 9.265625 13.296875 9.265625 14.148438 C 9.265625 15 8.5625 15.691406 7.699219 15.691406 Z M 13.792969 7.648438 C 11.992188 6.464844 10.015625 3.175781 9.996094 3.140625 C 9.90625 2.992188 9.726562 2.917969 9.554688 2.964844 C 9.382812 3.011719 9.265625 3.164062 9.265625 3.339844 L 9.265625 12.421875 C 8.851562 12.054688 8.300781 11.832031 7.699219 11.832031 C 6.402344 11.832031 5.347656 12.871094 5.347656 14.148438 C 5.347656 15.425781 6.402344 16.464844 7.699219 16.464844 C 8.996094 16.464844 10.050781 15.425781 10.050781 14.148438 L 10.050781 4.660156 C 10.824219 5.789062 12.101562 7.464844 13.359375 8.292969 C 14.195312 8.839844 14.566406 9.550781 14.464844 10.40625 C 14.386719 11.066406 14.058594 11.582031 14.035156 11.613281 C 14.035156 11.613281 14.035156 11.613281 14.035156 11.617188 C 13.992188 11.679688 13.96875 11.75 13.96875 11.832031 C 13.96875 12.042969 14.144531 12.214844 14.359375 12.214844 C 14.496094 12.214844 14.617188 12.148438 14.6875 12.042969 C 14.707031 12.019531 15.132812 11.378906 15.238281 10.527344 C 15.34375 9.714844 15.175781 8.554688 13.792969 7.648438 " fill-opacity="1" fill-rule="nonzero"/></g><path fill="#21697c" d="M 21.023438 4.496094 C 20.808594 4.496094 20.632812 4.667969 20.632812 4.882812 L 20.632812 5.652344 L 19.847656 5.652344 C 19.632812 5.652344 19.457031 5.828125 19.457031 6.039062 C 19.457031 6.253906 19.632812 6.425781 19.847656 6.425781 L 20.632812 6.425781 L 20.632812 7.199219 C 20.632812 7.410156 20.808594 7.585938 21.023438 7.585938 C 21.242188 7.585938 21.417969 7.410156 21.417969 7.199219 L 21.417969 6.425781 L 22.199219 6.425781 C 22.417969 6.425781 22.59375 6.253906 22.59375 6.039062 C 22.59375 5.828125 22.417969 5.652344 22.199219 5.652344 L 21.417969 5.652344 L 21.417969 4.882812 C 21.417969 4.667969 21.242188 4.496094 21.023438 4.496094 " fill-opacity="1" fill-rule="nonzero"/><path fill="#21697c" d="M 8.089844 24.570312 C 8.308594 24.570312 8.480469 24.398438 8.480469 24.183594 L 8.480469 23.410156 L 9.265625 23.410156 C 9.484375 23.410156 9.65625 23.238281 9.65625 23.027344 C 9.65625 22.8125 9.484375 22.640625 9.265625 22.640625 L 8.480469 22.640625 L 8.480469 21.867188 C 8.480469 21.65625 8.308594 21.480469 8.089844 21.480469 C 7.875 21.480469 7.699219 21.65625 7.699219 21.867188 L 7.699219 22.640625 L 6.914062 22.640625 C 6.699219 22.640625 6.523438 22.8125 6.523438 23.027344 C 6.523438 23.238281 6.699219 23.410156 6.914062 23.410156 L 7.699219 23.410156 L 7.699219 24.183594 C 7.699219 24.398438 7.875 24.570312 8.089844 24.570312 " fill-opacity="1" fill-rule="nonzero"/></svg>