<svg width="220" height="165" viewBox="0 0 220 165" fill="none" xmlns="http://www.w3.org/2000/svg">
<path d="M189.225 82.1646C189.083 83.3759 187.986 84.231 186.783 84.0529C185.58 83.9104 184.731 82.8059 184.873 81.5945C185.014 80.3832 186.147 79.5281 187.35 79.6706C188.553 79.8131 189.402 80.9532 189.225 82.1646Z" fill="#002D3B"/>
<path d="M189.012 81.3777C188.906 81.4489 187.703 79.4537 186.712 76.7816C185.722 74.1095 184.943 71.9718 185.049 71.9005C185.191 71.8293 186.182 73.9313 187.172 76.6035C188.163 79.24 189.118 81.3064 189.012 81.3777Z" fill="#002D3B"/>
<path d="M189.366 69.9812C189.508 70.0524 188.871 71.1569 187.562 71.7626C186.253 72.4039 185.015 72.2258 185.05 72.0833C185.05 71.9407 186.147 71.9407 187.35 71.3351C188.553 70.765 189.26 69.9099 189.366 69.9812Z" fill="#002D3B"/>
<path d="M190.073 72.188C190.179 72.2237 189.613 73.3282 188.304 73.8626C186.96 74.397 185.792 73.9695 185.863 73.8626C185.898 73.7201 186.96 73.8982 188.127 73.3994C189.295 72.9719 189.967 72.1168 190.073 72.188Z" fill="#002D3B"/>
<path d="M158.625 13.9798C157.872 15.2156 156.282 15.5807 155.083 14.8224C153.855 14.0922 153.493 12.4913 154.218 11.2556C154.971 10.048 156.561 9.65477 157.788 10.4131C158.987 11.1714 159.378 12.7722 158.625 13.9798Z" fill="#002D3B"/>
<path d="M158.764 13.0511C158.513 13.0792 158.123 10.3549 158.346 6.98477C158.569 3.64267 158.848 1.00269 159.099 0.974609C159.35 0.974609 159.461 3.72693 159.238 7.04094C159.015 10.3549 159.015 13.023 158.764 13.0511Z" fill="#002D3B"/>
<path d="M167.187 3.11314C167.243 3.30973 165.262 4.18036 162.696 3.73101C161.413 3.50633 160.326 2.97271 159.684 2.38293C159.043 1.79315 158.903 1.23145 158.987 1.17528C159.098 1.11911 159.433 1.48422 160.075 1.8774C160.716 2.27059 161.692 2.6357 162.864 2.83229C165.151 3.25357 167.131 2.86038 167.187 3.11314Z" fill="#002D3B"/>
<path d="M166.713 16.1146C165.96 17.3503 164.37 17.7154 163.171 16.9571C161.944 16.2269 161.581 14.6261 162.334 13.3903C163.059 12.1827 164.649 11.7895 165.876 12.5478C167.075 13.3061 167.466 14.9069 166.713 16.1146Z" fill="#002D3B"/>
<path d="M166.852 15.1867C166.601 15.2148 166.211 12.4905 166.434 9.12036C166.657 5.77827 166.936 3.13829 167.187 3.11021C167.438 3.11021 167.577 5.86252 167.326 9.17653C167.103 12.4905 167.103 15.1586 166.852 15.1867Z" fill="#002D3B"/>
<path d="M167.131 4.9092C167.243 5.1058 165.402 6.0326 162.975 5.72366C160.549 5.41473 159.015 4.03857 159.154 3.87007C159.294 3.64539 160.911 4.5441 163.087 4.82495C165.29 5.13388 167.075 4.65644 167.131 4.9092Z" fill="#002D3B"/>
<path d="M24.7287 63.8516C24.1698 64.8872 22.8731 65.2699 21.8446 64.7071C20.8162 64.1443 20.4361 62.861 20.9951 61.8255C21.554 60.7899 22.8507 60.3847 23.8791 60.9475C24.9075 61.5103 25.2876 62.816 24.7287 63.8516Z" fill="#002D3B"/>
<path d="M24.7955 63.0878C24.5943 63.1103 24.1472 60.8816 24.1919 58.135C24.2142 55.366 24.326 53.1823 24.5272 53.1597C24.7284 53.1372 24.952 55.3885 24.9296 58.135C24.8849 60.859 24.9967 63.0428 24.7955 63.0878Z" fill="#002D3B"/>
<path d="M31.2566 54.5339C31.346 54.6915 29.7363 55.4794 27.6124 55.2318C26.5616 55.1192 25.6226 54.714 25.086 54.2637C24.5271 53.8135 24.3706 53.3632 24.4377 53.3182C24.5495 53.2507 24.8178 53.5433 25.3767 53.836C25.9133 54.1287 26.7405 54.3988 27.7018 54.5114C29.6022 54.7365 31.2119 54.3088 31.2566 54.5339Z" fill="#002D3B"/>
<path d="M31.48 65.2248C30.9211 66.2829 29.6244 66.6656 28.596 66.1028C27.5676 65.54 27.1875 64.2342 27.7464 63.1986C28.3054 62.1631 29.5797 61.7804 30.6081 62.3432C31.6589 62.906 32.039 64.1892 31.48 65.2248Z" fill="#002D3B"/>
<path d="M31.5478 64.4574C31.3466 64.5024 30.8994 62.2737 30.9218 59.5046C30.9665 56.7581 31.0783 54.5519 31.2571 54.5293C31.4807 54.5068 31.7043 56.7581 31.6596 59.5046C31.6372 62.2286 31.749 64.4349 31.5478 64.4574Z" fill="#002D3B"/>
<path d="M31.3244 56.0027C31.4138 56.1603 29.9382 57.0158 27.9261 56.8582C25.914 56.7231 24.5949 55.665 24.7067 55.53C24.8185 55.3273 26.1823 56.0027 27.9932 56.1153C29.8041 56.2729 31.2349 55.8001 31.3244 56.0027Z" fill="#002D3B"/>
<path d="M45.0823 79.9857L45.6267 81.8356C45.67 81.9831 45.7497 82.1172 45.8587 82.2256C45.9677 82.334 46.1022 82.4131 46.2499 82.4555L48.0966 83L46.2499 83.5445C46.1022 83.5869 45.9677 83.666 45.8587 83.7744C45.7497 83.8828 45.67 84.0169 45.6267 84.1644L45.0823 86.0143L44.5411 84.1644C44.4973 84.0172 44.4173 83.8833 44.3084 83.775C44.1996 83.6667 44.0653 83.5875 43.9179 83.5445L42.0679 83L43.9179 82.4555C44.0653 82.4125 44.1996 82.3333 44.3084 82.225C44.4173 82.1167 44.4973 81.9828 44.5411 81.8356L45.0823 79.9857Z" fill="#E0E0E0"/>
<path d="M112.542 146.32L113.083 148.167C113.127 148.315 113.207 148.449 113.316 148.558C113.424 148.667 113.559 148.747 113.706 148.79L115.556 149.331L113.706 149.876C113.559 149.919 113.424 149.999 113.316 150.108C113.207 150.217 113.127 150.351 113.083 150.499L112.542 152.346L111.998 150.499C111.955 150.351 111.875 150.217 111.766 150.108C111.657 149.999 111.522 149.919 111.374 149.876L109.528 149.331L111.374 148.79C111.522 148.747 111.657 148.668 111.766 148.559C111.875 148.45 111.955 148.315 111.998 148.167L112.542 146.32Z" fill="#E0E0E0"/>
<path d="M49.9039 95.1786L50.2647 96.3988C50.2932 96.4964 50.3456 96.5853 50.4172 96.6575C50.4888 96.7297 50.5773 96.7828 50.6747 96.8121L51.8981 97.1696L50.6747 97.5304C50.5778 97.5596 50.4897 97.6124 50.4182 97.6839C50.3466 97.7554 50.2939 97.8435 50.2647 97.9404L49.9039 99.1638L49.5463 97.9404C49.5171 97.843 49.4639 97.7545 49.3918 97.6829C49.3196 97.6113 49.2307 97.5589 49.1331 97.5304L47.9129 97.1696L49.1331 96.8121C49.2312 96.7836 49.3205 96.7307 49.3927 96.6585C49.465 96.5862 49.5178 96.4969 49.5463 96.3988L49.9039 95.1786Z" fill="#E0E0E0"/>
<path d="M163.179 85.9848L163.723 87.8314C163.766 87.9789 163.845 88.1131 163.954 88.222C164.062 88.3309 164.196 88.4109 164.343 88.4546L166.193 88.9958L164.343 89.5403C164.196 89.5835 164.061 89.6633 163.953 89.7723C163.845 89.8812 163.766 90.0158 163.723 90.1635L163.179 92.0102L162.634 90.1635C162.592 90.0158 162.513 89.8812 162.404 89.7723C162.296 89.6633 162.162 89.5835 162.014 89.5403L160.164 88.9958L162.014 88.4546C162.161 88.4109 162.295 88.3309 162.404 88.222C162.512 88.1131 162.591 87.9789 162.634 87.8314L163.179 85.9848Z" fill="#E0E0E0"/>
<path d="M150.374 22.648L150.918 24.4979C150.962 24.6456 151.041 24.78 151.15 24.8888C151.259 24.9977 151.394 25.0776 151.541 25.1211L153.388 25.6623L151.541 26.2068C151.393 26.2498 151.259 26.3295 151.15 26.4384C151.041 26.5474 150.961 26.6821 150.918 26.83L150.374 28.6766L149.832 26.83C149.789 26.6823 149.709 26.5479 149.6 26.4391C149.491 26.3302 149.357 26.2504 149.209 26.2068L147.362 25.6623L149.209 25.1211C149.357 25.077 149.491 24.997 149.599 24.8882C149.708 24.7794 149.788 24.6453 149.832 24.4979L150.374 22.648Z" fill="#E0E0E0"/>
<path d="M144.44 43.7876L145.027 45.7851C145.073 45.9459 145.159 46.0923 145.277 46.2105C145.396 46.3287 145.542 46.4149 145.703 46.4608L147.7 47.0479L145.703 47.635C145.544 47.6792 145.399 47.7624 145.281 47.877C145.163 47.9916 145.076 48.1339 145.027 48.291L144.44 50.305L143.853 48.3074C143.804 48.1507 143.717 48.0086 143.6 47.894C143.483 47.7794 143.338 47.6961 143.18 47.6514L141.16 47.0479L143.158 46.4608C143.318 46.4144 143.463 46.328 143.581 46.2098C143.699 46.0916 143.784 45.9455 143.83 45.7851L144.44 43.7876Z" fill="#E0E0E0"/>
<path d="M152.368 91.3115L152.725 92.5317C152.754 92.6295 152.807 92.7185 152.88 92.7907C152.952 92.8629 153.041 92.9159 153.139 92.945L154.359 93.3025L153.139 93.66C153.04 93.6885 152.951 93.7414 152.879 93.8136C152.807 93.8858 152.754 93.9752 152.725 94.0733L152.368 95.2934L152.007 94.0733C151.979 93.9754 151.927 93.8862 151.855 93.8139C151.783 93.7417 151.695 93.6887 151.597 93.66L150.374 93.3025L151.597 92.945C151.694 92.9157 151.783 92.8626 151.854 92.7904C151.926 92.7182 151.978 92.6293 152.007 92.5317L152.368 91.3115Z" fill="#E0E0E0"/>
<path d="M53.6693 59.1675L54.0268 60.3877C54.0553 60.4858 54.1082 60.5751 54.1804 60.6474C54.2527 60.7196 54.342 60.7724 54.4401 60.801L55.6602 61.1585L54.4401 61.5193C54.3422 61.5472 54.253 61.5995 54.1807 61.6712C54.1085 61.7428 54.0555 61.8316 54.0268 61.9293L53.6693 63.1527L53.3085 61.9293C53.2803 61.8319 53.228 61.7432 53.1563 61.6715C53.0846 61.5998 52.9959 61.5474 52.8985 61.5193L51.675 61.1585L52.8985 60.801C52.9961 60.7722 53.0849 60.7193 53.1566 60.647C53.2283 60.5748 53.2805 60.4855 53.3085 60.3877L53.6693 59.1675Z" fill="#E0E0E0"/>
<path d="M92.5635 10.3021L92.921 11.5255C92.9503 11.6229 93.0034 11.7114 93.0756 11.783C93.1478 11.8546 93.2367 11.907 93.3343 11.9355L94.5545 12.2963L93.3343 12.6538C93.2362 12.6824 93.1469 12.7352 93.0746 12.8074C93.0024 12.8797 92.9496 12.969 92.921 13.0671L92.5635 14.2873L92.2027 13.0671C92.1748 12.9692 92.1225 12.88 92.0508 12.8078C91.9792 12.7355 91.8904 12.6826 91.7927 12.6538L90.5693 12.2963L91.7927 11.9355C91.8898 11.9068 91.9782 11.8543 92.0499 11.7827C92.1215 11.711 92.174 11.6226 92.2027 11.5255L92.5635 10.3021Z" fill="#E0E0E0"/>
<path d="M69.8167 21.0244L70.4334 23.1203C70.4819 23.2882 70.572 23.441 70.6953 23.5649C70.8185 23.6887 70.971 23.7795 71.1386 23.8288L73.2345 24.4422L71.1386 25.0588C70.9709 25.107 70.8183 25.197 70.6949 25.3203C70.5716 25.4437 70.4816 25.5964 70.4334 25.764L69.8167 27.8599L69.2001 25.764C69.1519 25.5964 69.0619 25.4437 68.9386 25.3203C68.8152 25.197 68.6626 25.107 68.4949 25.0588L66.399 24.4422L68.4949 23.8288C68.6625 23.7795 68.815 23.6887 68.9382 23.5649C69.0615 23.441 69.1516 23.2882 69.2001 23.1203L69.8167 21.0244Z" fill="#E0E0E0"/>
<path d="M72.8704 44.0467L73.2312 45.2702C73.2599 45.3673 73.3125 45.4557 73.3841 45.5273C73.4557 45.5989 73.5441 45.6515 73.6412 45.6802L74.8647 46.041L73.6412 46.3985C73.5439 46.4277 73.4553 46.4809 73.3837 46.5531C73.3121 46.6252 73.2597 46.7142 73.2312 46.8118L72.8704 48.0319L72.5129 46.8118C72.4844 46.7136 72.4315 46.6243 72.3593 46.5521C72.287 46.4798 72.1977 46.427 72.0996 46.3985L70.8795 46.041L72.0996 45.6802C72.1975 45.6522 72.2867 45.6 72.359 45.5283C72.4312 45.4566 72.4842 45.3678 72.5129 45.2702L72.8704 44.0467Z" fill="#E0E0E0"/>
<path d="M172.828 116.417C159.941 113.681 149.868 120.307 149.868 120.307C159.902 125.184 172.828 116.417 172.828 116.417Z" fill="#E0E0E0"/>
<path d="M136.188 115.767C136.188 123.852 141.609 129.448 141.609 129.448C143.318 122.931 136.188 115.767 136.188 115.767Z" fill="#E0E0E0"/>
<path d="M144.679 128.592C154.211 130.462 162.063 125.404 162.063 125.404C154.765 121.901 144.679 128.592 144.679 128.592Z" fill="#E0E0E0"/>
<path d="M155.225 111.864C155.077 111.759 150.925 117.44 145.949 124.518C140.973 131.596 137.06 137.448 137.224 137.56C137.388 137.671 141.524 131.984 146.5 124.902C151.476 117.82 155.372 111.976 155.225 111.864Z" fill="#E0E0E0"/>
<path d="M169.404 96.5038C169.404 96.5038 155.231 101.502 153.427 114.816C153.427 114.816 165.576 110.709 169.404 96.5038Z" fill="#E0E0E0"/>
<path d="M148.071 98.0486C148.071 98.0486 139.671 110.513 146.152 122.268C146.152 122.268 153.467 111.736 148.071 98.0486Z" fill="#E0E0E0"/>
<path d="M64.6212 103.992C60.0095 116.525 65.1952 127.582 65.1952 127.582C71.542 118.217 64.6212 103.992 64.6212 103.992Z" fill="#E0E0E0"/>
<path d="M59.3863 142.663C67.4945 143.841 73.897 139.206 73.897 139.206C67.606 136.546 59.3863 142.663 59.3863 142.663Z" fill="#E0E0E0"/>
<path d="M73.4838 136.002C76.7408 126.713 72.8015 118.109 72.8015 118.109C68.2325 124.912 73.4838 136.002 73.4838 136.002Z" fill="#E0E0E0"/>
<path d="M58.2383 122.996C58.1137 123.131 63.1944 128.12 69.5904 134.148C75.9864 140.177 81.2705 144.943 81.3984 144.812C81.5263 144.68 76.4423 139.688 70.0463 133.66C63.6503 127.631 58.363 122.865 58.2383 122.996Z" fill="#E0E0E0"/>
<path d="M44.8756 106.544C44.8756 106.544 47.8276 121.488 60.9214 125.24C60.9214 125.227 58.5729 112.441 44.8756 106.544Z" fill="#E0E0E0"/>
<path d="M43.3307 128.169C43.3307 128.169 54.6139 138.402 67.3534 133.607C67.36 133.607 57.848 124.741 43.3307 128.169Z" fill="#E0E0E0"/>
<path d="M78.125 49.075C72.549 60.4992 76.4062 71.4675 76.4062 71.4675C83.3106 63.2249 78.125 49.075 78.125 49.075Z" fill="#E0E0E0"/>
<path d="M69.4592 85.2042C77.0229 87.0967 83.5304 83.3214 83.5304 83.3214C77.8265 80.2022 69.4592 85.2042 69.4592 85.2042Z" fill="#E0E0E0"/>
<path d="M83.432 80.2481C87.4041 71.766 84.5013 63.2413 84.5013 63.2413C79.5386 69.247 83.432 80.2481 83.432 80.2481Z" fill="#E0E0E0"/>
<path d="M70.2563 66.4721C70.1251 66.5869 74.4612 71.7988 79.9355 78.1128C85.4099 84.4268 89.9592 89.4518 90.1035 89.337C90.2479 89.2222 85.9019 84.0135 80.4243 77.6995C74.9467 71.3855 70.3875 66.3606 70.2563 66.4721Z" fill="#E0E0E0"/>
<path d="M59.183 49.6129C59.183 49.6129 60.5507 64.0449 72.5818 68.8435C72.5818 68.8435 71.5847 56.514 59.183 49.6129Z" fill="#E0E0E0"/>
<path d="M55.6471 69.9423C55.6471 69.9423 65.3494 80.704 77.856 77.3945C77.856 77.3945 69.7183 68.0891 55.6471 69.9423Z" fill="#E0E0E0"/>
<path d="M174.094 74.144C162.336 69.3191 151.64 73.8619 151.64 73.8619C160.309 80.212 174.094 74.144 174.094 74.144Z" fill="#E0E0E0"/>
<path d="M137.486 67.7939C136.083 75.4658 140.265 81.7175 140.265 81.7175C143.013 75.8266 137.486 67.7939 137.486 67.7939Z" fill="#E0E0E0"/>
<path d="M143.328 81.4354C152.046 84.8598 160.364 81.4158 160.364 81.4158C154.057 76.8336 143.328 81.4354 143.328 81.4354Z" fill="#E0E0E0"/>
<path d="M156.228 67.3938C156.107 67.2691 151.184 71.93 145.234 77.7979C139.284 83.6658 134.561 88.5268 134.682 88.6514C134.803 88.7761 139.727 84.1185 145.677 78.2473C151.627 72.3761 156.35 67.5184 156.228 67.3938Z" fill="#E0E0E0"/>
<path d="M172.343 55.2643C172.343 55.2643 158.029 57.5603 154.014 69.8669C154.014 69.88 166.252 68.0826 172.343 55.2643Z" fill="#E0E0E0"/>
<path d="M151.833 53.0372C151.833 53.0372 141.704 63.4086 145.818 75.6889C145.818 75.6889 154.582 66.9608 151.833 53.0372Z" fill="#E0E0E0"/>
<path d="M111.312 25.131C111.263 25.131 111.227 21.359 111.227 16.7112C111.227 12.0634 111.263 8.28816 111.312 8.28816C111.361 8.28816 111.397 12.0602 111.397 16.7112C111.397 21.3622 111.368 25.131 111.312 25.131Z" fill="#263238"/>
<path d="M95.3974 29.6508C95.3646 29.6836 93.0063 27.3778 90.1298 24.5045C87.2532 21.6312 84.9506 19.2565 84.9834 19.2368C85.0162 19.2171 87.3746 21.5066 90.2511 24.3831C93.1277 27.2597 95.4335 29.618 95.3974 29.6508Z" fill="#263238"/>
<path d="M135.482 19.391C135.515 19.4238 132.934 22.1002 129.713 25.3704C126.492 28.6406 123.855 31.2744 123.809 31.2285C123.763 31.1826 126.357 28.5192 129.578 25.249C132.799 21.9789 135.45 19.368 135.482 19.391Z" fill="#263238"/>
<path d="M101.708 24.944C101.137 24.0996 100.613 23.2235 100.14 22.32C99.6158 21.443 99.1405 20.5374 98.7168 19.6074C99.2894 20.4519 99.8139 21.328 100.288 22.2314C100.812 23.108 101.286 24.0137 101.708 24.944Z" fill="#263238"/>
<path d="M123.806 18.5742C123.604 18.9135 123.385 19.242 123.15 19.5582C122.743 20.1618 122.198 21.0146 121.657 21.9822C121.116 22.9498 120.673 23.8616 120.368 24.5242C120.221 24.8908 120.056 25.2499 119.873 25.6C119.885 25.4934 119.914 25.3894 119.958 25.2917C120.024 25.0982 120.129 24.8194 120.266 24.4815C120.633 23.5989 121.05 22.7381 121.516 21.9034C121.982 21.0701 122.497 20.2651 123.058 19.4926C123.274 19.1942 123.458 18.9613 123.589 18.8038C123.651 18.7184 123.724 18.6413 123.806 18.5742Z" fill="#263238"/>
<path d="M136.916 36.2994C136.076 36.652 135.216 36.9542 134.341 37.2046C133.483 37.5074 132.606 37.7561 131.717 37.9492C132.555 37.5916 133.415 37.2881 134.292 37.0406C135.15 36.7375 136.026 36.4899 136.916 36.2994Z" fill="#263238"/>
<path d="M84.9966 38.2247C84.1422 38.1585 83.2931 38.0369 82.4546 37.8606C81.6054 37.7394 80.765 37.563 79.9388 37.3326C80.7945 37.3945 81.6449 37.515 82.4841 37.6934C83.3329 37.8121 84.1724 37.9896 84.9966 38.2247Z" fill="#263238"/>
<path d="M86.056 27.4991L86.5414 29.1391C86.5799 29.2706 86.6509 29.3903 86.7477 29.4871C86.8446 29.584 86.9643 29.6549 87.0958 29.6934L88.7358 30.1789L87.0958 30.6643C86.9643 30.7028 86.8446 30.7738 86.7477 30.8706C86.6509 30.9675 86.5799 31.0872 86.5414 31.2186L86.056 32.8586L85.5706 31.2186C85.5312 31.0871 85.4596 30.9674 85.3622 30.8706C85.2648 30.7738 85.1448 30.7029 85.013 30.6643L83.373 30.1789L85.013 29.6934C85.1448 29.6549 85.2648 29.584 85.3622 29.4871C85.4596 29.3903 85.5312 29.2707 85.5706 29.1391L86.056 27.4991Z" fill="#4E8CA0"/>
<path d="M121.375 10.3742L121.857 12.0142C121.896 12.1466 121.967 12.267 122.065 12.3645C122.162 12.4619 122.282 12.5332 122.415 12.5718L124.055 13.0573L122.415 13.5394C122.282 13.578 122.162 13.6494 122.065 13.7468C121.967 13.8443 121.896 13.9647 121.857 14.097L121.375 15.737L120.89 14.097C120.851 13.9647 120.78 13.8443 120.682 13.7468C120.585 13.6494 120.464 13.578 120.332 13.5394L118.692 13.0573L120.332 12.5718C120.464 12.5332 120.585 12.4619 120.682 12.3645C120.78 12.267 120.851 12.1466 120.89 12.0142L121.375 10.3742Z" fill="#4E8CA0"/>
<path d="M86.4988 42.7413L86.712 43.4662C86.728 43.5242 86.7588 43.577 86.8013 43.6196C86.8439 43.6621 86.8967 43.6929 86.9547 43.7089L87.6796 43.9221L86.9547 44.1353C86.8967 44.1513 86.8439 44.182 86.8013 44.2246C86.7588 44.2671 86.728 44.32 86.712 44.378L86.4988 45.1029L86.2856 44.378C86.2685 44.3206 86.2373 44.2683 86.1949 44.2259C86.1526 44.1835 86.1003 44.1524 86.0429 44.1353L85.318 43.9221L86.0429 43.7089C86.1003 43.6918 86.1526 43.6606 86.1949 43.6182C86.2373 43.5759 86.2685 43.5236 86.2856 43.4662L86.4988 42.7413Z" fill="#4E8CA0"/>
<path d="M103.571 14.3496L103.781 15.0712C103.799 15.1292 103.831 15.182 103.873 15.2249C103.916 15.2677 103.969 15.2995 104.027 15.3172L104.752 15.5304L104.027 15.7403C103.969 15.7581 103.916 15.7898 103.873 15.8327C103.831 15.8756 103.799 15.9283 103.781 15.9863L103.571 16.7112L103.358 15.9863C103.34 15.9283 103.309 15.8756 103.266 15.8327C103.223 15.7898 103.17 15.7581 103.112 15.7403L102.39 15.5304L103.112 15.3172C103.17 15.2995 103.223 15.2677 103.266 15.2249C103.309 15.182 103.34 15.1292 103.358 15.0712L103.571 14.3496Z" fill="#4E8CA0"/>
<path d="M133.39 28.9259L133.767 30.2084C133.798 30.3103 133.854 30.403 133.93 30.4785C134.005 30.5539 134.098 30.6098 134.2 30.6414L135.482 31.0186L134.2 31.3925C134.097 31.4246 134.004 31.4815 133.928 31.5582C133.853 31.6348 133.797 31.7289 133.767 31.832L133.39 33.1145L133.012 31.832C132.983 31.7292 132.927 31.6357 132.851 31.56C132.776 31.4843 132.682 31.429 132.58 31.399L131.297 31.0251L132.58 30.6479C132.682 30.618 132.776 30.5626 132.851 30.4869C132.927 30.4113 132.983 30.3177 133.012 30.215L133.39 28.9259Z" fill="#4E8CA0"/>
<path d="M134.128 44.7257L134.315 45.3653C134.33 45.4162 134.358 45.4626 134.396 45.5003C134.434 45.5381 134.48 45.566 134.531 45.5818L135.171 45.772L134.531 45.959C134.48 45.9747 134.434 46.0027 134.396 46.0404C134.358 46.0781 134.33 46.1245 134.315 46.1754L134.128 46.8314L133.937 46.1754C133.922 46.1245 133.894 46.0781 133.856 46.0404C133.818 46.0027 133.772 45.9747 133.721 45.959L133.081 45.772L133.721 45.5818C133.772 45.566 133.818 45.5381 133.856 45.5003C133.894 45.4626 133.922 45.4162 133.937 45.3653L134.128 44.7257Z" fill="#4E8CA0"/>
<path d="M119.184 139.587C119.184 139.587 117.898 138.147 119.348 135.831C119.348 135.831 116.924 130.517 116.911 130.485C116.898 130.452 113.27 134.598 117.508 138.389L119.184 139.587Z" fill="#4E8CA0"/>
<path opacity="0.3" d="M119.184 139.587C119.184 139.587 117.898 138.147 119.348 135.831C119.348 135.831 116.924 130.517 116.911 130.485C116.898 130.452 113.27 134.598 117.508 138.389L119.184 139.587Z" fill="black"/>
<path d="M129.296 156.193C128.489 156.114 105.041 106.058 100.075 89.2812C95.1088 72.504 98.907 46.0016 101.318 41.672C103.253 38.2116 105.424 38.3395 105.424 38.3395C105.424 38.3395 105.966 33.5081 108.163 32.0682C108.697 31.7178 109.319 31.5251 109.957 31.5124C110.595 31.4996 111.224 31.6672 111.771 31.996C114.874 28.4306 118.915 30.9464 119.174 34.5872C119.174 34.5872 122.612 30.8382 125.669 36.9554C128.726 43.0726 131.779 62.828 131.779 62.828C131.779 62.828 131.779 54.3361 137.48 54.6706C137.653 54.6818 137.818 54.748 137.951 54.8595C138.083 54.9711 138.177 55.1221 138.218 55.2906L139.304 62.5066C139.304 62.5066 140.996 68.4499 142.141 70.4245C143.285 72.399 145.339 91.3312 144.578 93.0565C143.817 94.7818 137.88 108.427 137.319 111.188C136.758 113.95 137.129 115.928 138.274 117.506C139.418 119.083 154.506 140.01 154.506 140.01C154.506 140.01 147.251 157.971 129.296 156.193Z" fill="#AE7461"/>
<path d="M134.052 83.8003C133.994 83.7279 133.941 83.6511 133.895 83.5707C133.757 83.343 133.634 83.1063 133.527 82.8622C133.159 81.9515 132.952 80.9838 132.914 80.0021C132.825 78.7622 132.98 77.2895 133.091 75.6659C133.158 74.8179 133.163 73.9662 133.108 73.1174C133.019 72.2416 132.898 71.3265 132.78 70.395C132.661 69.4634 132.484 68.5614 132.271 67.7021C132.043 66.8753 131.895 66.0284 131.828 65.1732C131.699 63.7251 131.749 62.2665 131.976 60.8305C132.128 59.8632 132.391 58.9167 132.76 58.0097C132.856 57.7633 132.965 57.5225 133.088 57.2881C133.125 57.2019 133.17 57.1195 133.222 57.0421C133.195 57.1308 133.161 57.2174 133.121 57.3012C133.055 57.4718 132.927 57.7079 132.819 58.0359C132.476 58.9448 132.232 59.8885 132.094 60.8502C131.885 62.276 131.845 63.7216 131.976 65.1568C132.046 66.0044 132.197 66.8435 132.425 67.6627C132.644 68.5564 132.817 69.4607 132.944 70.372C133.071 71.3068 133.193 72.2154 133.272 73.1042C133.328 73.9608 133.321 74.8204 133.249 75.6758C133.127 77.3158 132.963 78.7655 133.035 79.9955C133.062 80.9665 133.249 81.9263 133.59 82.836C133.721 83.164 133.839 83.3936 133.918 83.5543C133.97 83.6319 134.015 83.7142 134.052 83.8003Z" fill="#6F4439"/>
<path d="M121.952 92.0003C121.952 91.9451 121.959 91.89 121.972 91.8363C121.998 91.7117 122.028 91.5608 122.064 91.3771C122.1 91.1934 122.159 90.931 122.238 90.6522C122.316 90.3734 122.389 90.052 122.51 89.7043C122.631 89.3566 122.743 88.9762 122.903 88.576C123.064 88.1758 123.232 87.7527 123.428 87.3099C123.867 86.3562 124.37 85.4334 124.934 84.5482C125.509 83.6702 126.142 82.8319 126.83 82.039C127.158 81.6847 127.463 81.337 127.774 81.055C128.086 80.7729 128.371 80.4777 128.643 80.2382C128.916 79.9988 129.175 79.7889 129.401 79.6052C129.591 79.4451 129.789 79.2951 129.995 79.1558L130.379 78.8869C130.422 78.8534 130.47 78.8248 130.52 78.8016C130.52 78.8016 130.484 78.8442 130.398 78.9131L130.034 79.2083C129.873 79.333 129.677 79.4871 129.46 79.6774C129.244 79.8676 128.988 80.0742 128.725 80.3334C128.463 80.5925 128.168 80.8516 127.873 81.1632C127.577 81.4748 127.272 81.8192 126.948 82.1472C126.276 82.9386 125.655 83.7711 125.088 84.64C124.527 85.5168 124.024 86.4295 123.582 87.3722C123.386 87.8085 123.192 88.225 123.045 88.6252C122.897 89.0254 122.753 89.396 122.635 89.7404C122.516 90.0848 122.425 90.3964 122.339 90.6752C122.254 90.954 122.188 91.1902 122.139 91.387L122.018 91.8429C122.005 91.8985 121.982 91.9517 121.952 92.0003Z" fill="#6F4439"/>
<path d="M137.306 112.13C137.225 112.263 137.133 112.389 137.03 112.507C136.843 112.743 136.561 113.074 136.201 113.468C135.251 114.495 134.211 115.436 133.094 116.279C131.978 117.122 130.786 117.862 129.536 118.49C129.057 118.729 128.663 118.909 128.384 119.021C128.244 119.089 128.097 119.142 127.945 119.178C128.075 119.093 128.212 119.019 128.355 118.959C128.624 118.831 129.011 118.631 129.483 118.381C130.708 117.726 131.882 116.978 132.993 116.144C134.099 115.303 135.141 114.381 136.112 113.386C136.483 113.002 136.768 112.687 136.978 112.464C137.076 112.342 137.186 112.23 137.306 112.13Z" fill="#6F4439"/>
<path d="M127.03 137.09C126.996 137.04 126.968 136.986 126.944 136.93C126.885 136.805 126.81 136.651 126.721 136.461L125.918 134.722C125.236 133.259 124.278 131.252 123.097 129.077C121.916 126.903 120.801 124.977 119.968 123.597L118.968 121.957L118.699 121.51C118.665 121.46 118.637 121.406 118.613 121.35C118.657 121.392 118.696 121.439 118.728 121.491L119.023 121.92C119.279 122.294 119.637 122.842 120.07 123.524C120.936 124.889 122.084 126.804 123.248 128.986C124.412 131.167 125.373 133.184 126.029 134.663C126.357 135.401 126.613 136.002 126.784 136.421C126.859 136.618 126.925 136.779 126.974 136.907C127.002 136.965 127.021 137.027 127.03 137.09Z" fill="#6F4439"/>
<path d="M127.846 70.864C127.227 71.0994 126.588 71.2827 125.937 71.4118C125.299 71.5943 124.646 71.7216 123.986 71.7922C124.607 71.5571 125.247 71.3739 125.898 71.2445C126.535 71.0621 127.187 70.9348 127.846 70.864Z" fill="#6F4439"/>
<path d="M122.116 63.6874C122.103 63.6651 122.093 63.6407 122.087 63.6152L122.018 63.402C121.959 63.2118 121.867 62.933 121.765 62.5689C121.555 61.844 121.273 60.7911 120.965 59.4758C120.176 56.0501 119.561 52.5863 119.125 49.0979C118.613 45.0078 118.4 41.2751 118.512 38.5724C118.538 37.5053 118.66 36.4427 118.876 35.3974C118.952 35.0121 119.076 34.6376 119.243 34.2822C119.241 34.3084 119.235 34.334 119.223 34.3576C119.206 34.4166 119.183 34.4888 119.154 34.5741C119.112 34.6886 119.078 34.8058 119.053 34.925C119.007 35.0848 118.97 35.2468 118.941 35.4105C118.751 36.4562 118.648 37.5161 118.633 38.579C118.598 42.0889 118.818 45.5967 119.289 49.075C119.801 53.1553 120.489 56.819 121.077 59.4496C121.372 60.7616 121.634 61.8243 121.824 62.5525C121.916 62.9067 121.988 63.1855 122.044 63.3922C122.064 63.4807 122.084 63.5529 122.097 63.6119C122.11 63.671 122.136 63.6874 122.116 63.6874Z" fill="#6F4439"/>
<path d="M117.022 69.7718C117.005 69.7435 116.99 69.7138 116.977 69.6832L116.858 69.4175L116.422 68.3843C116.327 68.158 116.225 67.9054 116.111 67.6332C115.996 67.361 115.891 67.0559 115.783 66.7312C115.543 66.0752 115.251 65.3503 114.986 64.5205C114.845 64.1072 114.7 63.6742 114.549 63.2085C114.398 62.7427 114.271 62.2802 114.12 61.7882C113.815 60.8042 113.552 59.7481 113.26 58.6329C112.716 56.3926 112.214 53.9064 111.837 51.2726C111.46 48.6387 111.279 46.1066 111.181 43.804C111.155 42.6494 111.115 41.5539 111.141 40.524C111.141 40.0123 111.141 39.517 111.164 39.0414C111.187 38.5658 111.207 38.1099 111.227 37.6737C111.253 36.8045 111.332 36.0173 111.384 35.3285C111.41 35.0005 111.44 34.6725 111.463 34.3674C111.486 34.0624 111.528 33.8033 111.558 33.5606C111.614 33.0882 111.66 32.7143 111.692 32.4486L111.732 32.1567C111.734 32.1243 111.741 32.0924 111.752 32.0616C111.754 32.0943 111.754 32.1273 111.752 32.16C111.752 32.2354 111.752 32.3306 111.729 32.4519C111.706 32.7176 111.67 33.1079 111.627 33.5671C111.605 33.8098 111.579 34.0788 111.548 34.374C111.528 34.6692 111.506 34.9906 111.483 35.335C111.44 36.0238 111.368 36.811 111.348 37.6802C111.348 38.1132 111.319 38.5691 111.299 39.0447C111.279 39.5203 111.299 40.0287 111.299 40.524C111.279 41.5474 111.322 42.6396 111.355 43.804C111.456 46.1 111.656 48.6256 112.011 51.2562C112.365 53.8867 112.883 56.3631 113.414 58.6034C113.703 59.7153 113.959 60.778 114.261 61.7554C114.405 62.2474 114.536 62.723 114.681 63.1757C114.825 63.6283 114.966 64.0613 115.104 64.4877C115.36 65.3175 115.645 66.0522 115.874 66.705L116.202 67.6102C116.311 67.8858 116.409 68.1383 116.501 68.3646L116.908 69.411L117.009 69.6832C117.017 69.7121 117.022 69.7418 117.022 69.7718Z" fill="#6F4439"/>
<path d="M107.284 71.7758C107.273 71.7473 107.265 71.7176 107.261 71.6873C107.245 71.6151 107.228 71.5266 107.205 71.4183C107.163 71.169 107.1 70.8214 107.018 70.3818C106.858 69.4831 106.645 68.1777 106.405 66.5606C106.166 64.9436 105.91 63.015 105.667 60.8666C105.424 58.7182 105.237 56.35 105.11 53.8572C104.892 49.602 104.941 45.3372 105.257 41.0882C105.385 39.4482 105.516 38.1362 105.634 37.2374C105.69 36.7946 105.736 36.4437 105.766 36.1911L105.805 35.9222C105.807 35.8908 105.814 35.8598 105.825 35.8303C105.829 35.8619 105.829 35.8939 105.825 35.9254C105.825 35.9943 105.825 36.0862 105.802 36.1977C105.775 36.4502 105.743 36.7979 105.7 37.244C105.602 38.1526 105.49 39.4678 105.372 41.098C105.095 45.3435 105.063 49.6015 105.277 53.8506C105.405 56.3369 105.605 58.7018 105.821 60.8502C106.038 62.9986 106.29 64.9272 106.52 66.5442C106.75 68.1613 106.943 69.4667 107.081 70.372C107.15 70.8148 107.199 71.1625 107.238 71.4118C107.238 71.5233 107.264 71.6118 107.274 71.684C107.281 71.7141 107.285 71.7449 107.284 71.7758Z" fill="#6F4439"/>
<path d="M131.064 67.0887L130.992 67.1117L130.772 67.1576L129.923 67.3249C129.185 67.4659 128.115 67.6726 126.8 67.9448C124.176 68.4794 120.542 69.283 116.583 70.3523C114.615 70.8902 112.735 71.4511 111.043 71.9923C109.351 72.5335 107.842 73.0649 106.589 73.5536C105.959 73.7865 105.398 74.0128 104.903 74.2096C104.408 74.4064 103.981 74.5802 103.64 74.7344L102.843 75.0624L102.636 75.1444L102.561 75.1706C102.581 75.1548 102.603 75.1416 102.627 75.1313L102.83 75.0296L103.614 74.6622C103.942 74.4982 104.375 74.3146 104.867 74.1079C105.359 73.9013 105.92 73.6618 106.546 73.4191C107.796 72.9173 109.308 72.3892 110.994 71.8218C112.68 71.2543 114.559 70.7098 116.537 70.1818C120.503 69.1125 124.133 68.3286 126.777 67.8234C128.089 67.5643 129.168 67.3774 129.91 67.256L130.766 67.1215L130.989 67.092C131.014 67.0873 131.039 67.0862 131.064 67.0887Z" fill="#6F4439"/>
<path d="M140.402 120.303C140.402 120.303 143.718 121.901 144.768 124.023C145.818 126.145 145.644 127.7 145.644 127.7L145.372 129.507C144.792 131.576 143.765 133.491 142.364 135.119C138.464 139.447 133.181 142.286 127.42 143.152C125.988 143.38 124.529 143.38 123.097 143.152C120.627 142.735 118.869 141.715 117.672 139.718C117.144 138.954 115.648 136.034 115.619 135.575L116.17 136.559C117.787 138.819 119.122 139.331 121.172 139.806C123.222 140.282 125.491 140.065 127.591 139.56C132.512 138.367 136.915 135.613 140.14 131.708C141.452 130.124 142.551 128.297 142.849 126.266C142.836 126.273 143.486 122.96 140.402 120.303Z" fill="#8EBDCD"/>
<g opacity="0.2">
<path d="M133.18 72.0776C133.104 69.1256 131.182 65.3831 131.802 62.5033C130.841 63.73 130.802 65.4553 131.094 66.9772C131.386 68.4991 131.969 69.9817 132.104 71.5331C132.238 73.0846 131.91 74.7016 131.835 76.2891C131.76 77.8766 132.005 79.5921 133.081 80.7598C132.737 77.7848 133.265 75.4166 133.18 72.0776Z" fill="black"/>
</g>
<path d="M126.951 51.6399C126.776 51.7787 126.58 51.8893 126.37 51.9679C125.88 52.1812 125.375 52.3577 124.858 52.496C124.343 52.6454 123.816 52.7551 123.284 52.824C123.068 52.865 122.847 52.8749 122.628 52.8535C122.628 52.801 123.612 52.6797 124.822 52.3418C126.033 52.004 126.931 51.594 126.951 51.6399Z" fill="#6F4439"/>
<path d="M125.491 43.4334C125.33 43.6094 125.138 43.754 124.924 43.8598C123.913 44.4325 122.731 44.6223 121.592 44.3944C121.361 44.3584 121.139 44.2818 120.936 44.1681C121.708 44.3547 122.51 44.3858 123.295 44.2597C124.08 44.1336 124.832 43.8527 125.508 43.4334H125.491Z" fill="#6F4439"/>
<path d="M127.768 53.2668C127.017 53.5124 126.25 53.7031 125.472 53.8375C124.709 54.0275 123.934 54.1624 123.153 54.241C123.903 53.9954 124.671 53.8047 125.449 53.6702C126.211 53.4781 126.986 53.3432 127.768 53.2668Z" fill="#6F4439"/>
<g opacity="0.2">
<path d="M128.073 52.5682C127.86 52.109 127.286 51.9712 126.787 51.8925L126.561 51.7678C125.34 51.4932 124.062 51.6605 122.953 52.2402C122.659 52.3791 122.401 52.5832 122.198 52.8371C122.1 52.9662 122.035 53.1175 122.009 53.2778C121.983 53.438 121.998 53.6021 122.051 53.7555C122.215 54.1491 122.667 54.3295 123.084 54.4115C124.341 54.7027 125.656 54.6287 126.872 54.1983C127.243 54.0876 127.581 53.887 127.856 53.6145C127.986 53.4771 128.074 53.3066 128.112 53.1219C128.151 52.9372 128.137 52.7455 128.073 52.5682Z" fill="#6F4439"/>
</g>
<path d="M117.997 52.9519C117.82 53.0901 117.623 53.2007 117.413 53.2799C116.924 53.4928 116.419 53.6693 115.904 53.808C115.388 53.9568 114.862 54.0664 114.33 54.136C114.114 54.179 113.892 54.189 113.674 54.1655C113.674 54.113 114.674 53.995 115.868 53.6571C117.062 53.3193 117.974 52.906 117.997 52.9519Z" fill="#6F4439"/>
<path d="M118.813 54.5788C118.063 54.8244 117.295 55.0151 116.517 55.1495C115.754 55.3397 114.978 55.4756 114.195 55.5562C114.945 55.3068 115.712 55.1149 116.491 54.9822C117.254 54.7921 118.031 54.6572 118.813 54.5788Z" fill="#6F4439"/>
<g opacity="0.2">
<path d="M119.118 53.8802C118.905 53.421 118.328 53.2865 117.829 53.2045L117.606 53.0798C116.386 52.8049 115.107 52.9723 113.998 53.5522C113.704 53.6923 113.446 53.8976 113.244 54.1524C113.145 54.2808 113.08 54.4315 113.054 54.5911C113.028 54.7507 113.041 54.9143 113.093 55.0675C113.257 55.4644 113.713 55.6415 114.129 55.7235C115.386 56.0148 116.699 55.9408 117.915 55.5103C118.287 55.4019 118.625 55.201 118.899 54.9265C119.028 54.7895 119.118 54.6191 119.157 54.4344C119.195 54.2497 119.182 54.0578 119.118 53.8802Z" fill="#6F4439"/>
</g>
<path d="M111.171 54.136C110.995 54.2757 110.798 54.3864 110.587 54.464C110.099 54.685 109.595 54.8681 109.078 55.0118C108.562 55.1605 108.036 55.2702 107.504 55.3398C107.288 55.3828 107.067 55.3927 106.848 55.3693C106.848 55.3168 107.832 55.1987 109.042 54.8609C110.253 54.523 111.148 54.0999 111.171 54.136Z" fill="#6F4439"/>
<path d="M111.988 55.776C111.237 56.0216 110.47 56.2123 109.692 56.3467C108.93 56.5388 108.157 56.6769 107.376 56.76C108.126 56.5124 108.894 56.3205 109.672 56.186C110.433 55.9939 111.207 55.8569 111.988 55.776Z" fill="#6F4439"/>
<g opacity="0.2">
<path d="M112.296 55.0741C112.083 54.6149 111.506 54.4804 111.007 54.3984L110.784 54.277C109.564 53.9981 108.284 54.1645 107.176 54.7461C106.882 54.8864 106.624 55.0917 106.422 55.3463C106.323 55.4747 106.258 55.6254 106.231 55.785C106.205 55.9446 106.219 56.1083 106.271 56.2614C106.435 56.6583 106.891 56.8354 107.307 56.9338C108.563 57.2251 109.877 57.1511 111.092 56.7206C111.465 56.6141 111.804 56.4129 112.076 56.1368C112.209 55.9983 112.3 55.8251 112.339 55.6371C112.378 55.4491 112.363 55.2539 112.296 55.0741Z" fill="#6F4439"/>
</g>
<path d="M142.403 71.4085C141.811 71.6135 141.202 71.765 140.583 71.8611C139.975 72.0113 139.355 72.1057 138.729 72.1432C139.93 71.7894 141.159 71.5436 142.403 71.4085Z" fill="#6F4439"/>
<path d="M141.275 70.3753C141.02 70.5085 140.741 70.592 140.455 70.6213C140.179 70.7041 139.888 70.7298 139.602 70.6967C139.857 70.5638 140.136 70.4813 140.422 70.454C140.698 70.3711 140.988 70.3444 141.275 70.3753Z" fill="#6F4439"/>
<g opacity="0.2">
<path d="M139.192 62.008C138.976 62.2999 138.424 62.4902 138.152 62.2474C137.901 61.981 137.735 61.645 137.677 61.2831C137.291 59.7434 137.14 58.1545 137.227 56.5698C137.22 56.2406 137.298 55.9151 137.454 55.6251C137.535 55.4817 137.663 55.3707 137.817 55.3109C137.97 55.2511 138.14 55.2463 138.297 55.2971L139.192 62.008Z" fill="white"/>
</g>
<path opacity="0.2" d="M113.28 122.173C116.504 120.205 118.63 116.814 119.81 113.235C120.991 109.657 121.332 105.865 121.726 102.116C122.437 95.4946 123.316 88.904 124.363 82.344C124.363 82.344 123.861 72.7238 122.867 65.8259C121.874 58.9281 120.319 52.7059 119.771 53.0339C119.223 53.3619 111.899 119.159 111.899 119.159L113.28 122.173Z" fill="black"/>
<path opacity="0.2" d="M108.009 32.4191C108.44 33.3087 108.664 34.2842 108.665 35.2727C109.705 34.9155 110.833 34.9051 111.879 35.2432C112.926 35.5892 113.8 36.3243 114.32 37.2965C114.74 38.1066 114.861 39.0283 114.995 39.9205C115.385 42.516 115.917 45.0881 116.59 47.6252H111.194L106.362 41.4621L105.424 38.3428C105.939 35.3711 106.654 32.9669 108.009 32.4191Z" fill="black"/>
<path d="M104.972 148.725C104.972 148.725 109.564 146.757 104.162 145.294C98.7595 143.831 93.0916 144.664 93.0916 144.664L100.012 148.518L104.972 148.725Z" fill="#4E8CA0"/>
<path opacity="0.3" d="M104.972 148.725C104.972 148.725 109.564 146.757 104.162 145.294C98.7595 143.831 93.0916 144.664 93.0916 144.664L100.012 148.518L104.972 148.725Z" fill="black"/>
<path d="M58.7566 77.5716C58.7566 77.5716 55.1059 78.572 57.0411 82.0783C58.4581 84.6466 59.9538 87.3821 60.7869 91.4526C61.1542 93.2631 63.3125 95.4378 64.021 96.9105C65.9201 100.869 67.6782 104.163 70.5285 107.488C73.3788 110.814 82.2446 116.672 82.0839 120.789C81.9232 124.905 70.5711 151.09 70.5711 151.09C79.4698 156.511 89.7099 158.253 100.652 158.056C100.652 158.056 108.524 129.494 109.633 125.063C110.741 120.631 115.068 116.912 117.918 110.263C120.768 103.615 121.667 89.2418 121.985 77.8799C122.251 68.3679 120.135 57.99 120.093 54.792C120.087 53.5285 119.876 52.2743 119.466 51.079C118.784 49.1504 117.39 46.9364 114.585 47.1168C114.585 47.1168 114.618 38.4806 113.165 35.499C112.631 34.4068 110.817 33.7508 109.426 34.0886C108.731 34.2654 108.073 34.5654 107.484 34.9742C107.484 34.9742 108.176 28.1059 104.693 27.4729C103.105 27.1842 101.597 27.4171 100.688 28.7849C99.6057 30.4249 99.1399 33.0489 98.9694 35.8795C98.9694 35.8795 98.625 34.1739 95.8304 34.1739C94.0428 34.1739 92.6455 35.5089 91.8944 38.3034C90.648 43.0496 84.744 70.6049 83.6682 74.0817C82.9236 76.522 77.177 93.555 75.5928 93.555C74.0086 93.555 72.3522 92.1282 71.4042 89.5961C70.4563 87.0639 65.5626 75.5118 58.7566 77.5716Z" fill="#FFBF9D"/>
<path d="M91.4516 73.8882L91.5106 73.8029L91.6943 73.5602L92.3962 72.6188C92.698 72.2088 93.0522 71.7037 93.4622 71.1034C93.9258 70.4325 94.3359 69.7262 94.689 68.9911C94.8811 68.5605 95.0039 68.1022 95.053 67.6332C95.1318 67.1445 95.1842 66.6295 95.2433 66.0982C95.3614 65.0354 95.4565 63.894 95.5713 62.6968C95.7714 60.2958 95.9911 57.6587 96.2273 54.8904C96.2885 54.1972 96.3552 53.5139 96.4274 52.8404C96.4909 52.1793 96.5916 51.5222 96.7291 50.8724C96.985 49.5932 97.1588 48.337 97.3425 47.1496C97.6705 44.7683 97.9985 42.6265 98.2576 40.8192C98.5167 39.0119 98.7168 37.5687 98.8611 36.5552C98.9366 36.0632 98.9923 35.6729 99.0317 35.3974C99.0514 35.2727 99.0678 35.171 99.0809 35.0956C99.0849 35.061 99.0926 35.0269 99.1038 34.9939C99.1075 35.0288 99.1075 35.064 99.1038 35.0989C99.1038 35.1743 99.0874 35.276 99.0743 35.4006C99.0415 35.6794 98.9956 36.0566 98.9366 36.565C98.8054 37.5884 98.6086 39.0447 98.3855 40.829C98.1625 42.6134 97.8542 44.7847 97.5065 47.166C97.3261 48.3566 97.1555 49.6063 96.8997 50.9019C96.7633 51.5517 96.6647 52.2088 96.6045 52.8699C96.529 53.5259 96.4667 54.2246 96.4044 54.9166C96.1682 57.685 95.9452 60.3188 95.7484 62.7198C95.6402 63.9202 95.5385 65.0584 95.4204 66.1244C95.3581 66.6558 95.299 67.1707 95.2203 67.6627C95.1658 68.1424 95.0363 68.6106 94.8366 69.0502C94.4736 69.7887 94.0524 70.4973 93.577 71.169C93.167 71.766 92.7931 72.2646 92.4848 72.6713C92.1765 73.078 91.9272 73.383 91.7566 73.5897L91.5598 73.8226C91.4778 73.8652 91.4549 73.8914 91.4516 73.8882Z" fill="#FF9A6C"/>
<path d="M115.248 47.0479C115.248 47.0479 115.222 47.0643 115.166 47.0873L114.917 47.1824C114.808 47.225 114.687 47.3005 114.536 47.3792C114.372 47.484 114.218 47.6049 114.077 47.74C113.694 48.1171 113.4 48.5741 113.214 49.0782C112.966 49.7465 112.813 50.4466 112.762 51.1578C112.608 52.7387 112.762 54.6378 113.011 56.7338C113.126 57.7801 113.316 58.869 113.339 60.0302C113.339 60.6042 113.339 61.188 113.296 61.785C113.243 62.3862 113.151 62.9833 113.021 63.5726C112.909 64.1695 112.798 64.7599 112.745 65.3438C112.693 65.9276 112.676 66.5114 112.673 67.0822C112.673 68.2269 112.716 69.329 112.765 70.3818C112.814 71.4347 112.877 72.4318 112.926 73.3699C112.975 74.308 112.955 75.1838 112.926 75.9939C112.863 77.588 112.772 78.8738 112.706 79.7626C112.67 80.1956 112.644 80.54 112.624 80.786L112.594 81.0517C112.598 81.0811 112.598 81.1108 112.594 81.1402C112.591 81.1097 112.591 81.0789 112.594 81.0484V80.7827C112.594 80.5367 112.624 80.1923 112.647 79.7594C112.693 78.8672 112.765 77.5814 112.811 75.9906C112.831 75.1936 112.85 74.3244 112.791 73.3896C112.732 72.4548 112.676 71.4544 112.614 70.4015C112.552 69.3486 112.512 68.2433 112.512 67.0953C112.512 66.5213 112.529 65.9342 112.581 65.3405C112.634 64.7468 112.745 64.1498 112.857 63.5529C112.989 62.9704 113.082 62.3798 113.136 61.785C113.175 61.1978 113.178 60.6173 113.178 60.0433C113.155 58.9117 112.968 57.8129 112.85 56.7633C112.604 54.6706 112.467 52.7617 112.637 51.1643C112.697 50.4439 112.861 49.7358 113.123 49.0618C113.32 48.5498 113.629 48.0881 114.028 47.7105C114.176 47.5762 114.336 47.4565 114.507 47.353C114.664 47.2808 114.789 47.2086 114.9 47.1693L115.159 47.0873C115.187 47.0693 115.216 47.056 115.248 47.0479Z" fill="#FF9A6C"/>
<path d="M103.975 74.8197C103.951 74.7744 103.931 74.7272 103.916 74.6786C103.88 74.577 103.83 74.4392 103.771 74.2654C103.64 73.8849 103.443 73.3404 103.214 72.6254C103.361 70.9854 103.591 68.4729 103.87 65.4094C103.939 64.6386 104.024 63.835 104.086 63.0018C104.148 62.1687 104.181 61.2995 104.227 60.4074C104.255 59.4841 104.335 58.5631 104.467 57.6489C104.508 57.4122 104.561 57.1779 104.627 56.947C104.657 56.8322 104.706 56.7174 104.745 56.6026L104.864 56.2746C104.991 55.8154 105.083 55.3398 105.172 54.8609C105.401 53.4898 105.559 52.1352 105.684 50.8265C105.808 49.5178 105.9 48.2517 105.939 47.0446C105.967 44.8981 106.118 42.7549 106.392 40.6257C106.551 39.1936 106.782 37.7704 107.084 36.3617C107.161 35.9759 107.271 35.5974 107.412 35.2301C107.452 35.1351 107.503 35.0449 107.563 34.9611C107.585 34.9329 107.61 34.9076 107.638 34.8857C107.62 34.9161 107.6 34.9446 107.576 34.971C107.525 35.0578 107.481 35.1489 107.445 35.2432C107.314 35.612 107.212 35.9903 107.14 36.3748C106.927 37.3588 106.704 38.8381 106.5 40.6388C106.245 42.7638 106.106 44.9012 106.084 47.0414C106.048 48.255 105.956 49.521 105.834 50.8363C105.713 52.1516 105.559 53.503 105.326 54.8838C105.242 55.3659 105.132 55.8433 104.998 56.3139C104.919 56.5534 104.831 56.7731 104.762 56.9929C104.697 57.2171 104.646 57.4449 104.608 57.6751C104.476 58.5817 104.395 59.495 104.365 60.4106C104.319 61.3028 104.28 62.172 104.217 63.0117C104.155 63.8514 104.06 64.6517 103.988 65.4192C103.679 68.4827 103.43 70.9952 103.263 72.6352L103.781 74.2752C103.837 74.4523 103.88 74.6032 103.909 74.695C103.935 74.7344 103.957 74.7762 103.975 74.8197Z" fill="#FF9A6C"/>
<path d="M110.535 59.8432C110.535 59.8432 110.499 59.9088 110.384 59.958C110.222 60.0095 110.051 60.0284 109.882 60.0138C109.333 60.007 108.785 59.962 108.242 59.8793C107.703 59.7991 107.171 59.6829 106.648 59.5316C106.425 59.4851 106.21 59.4043 106.012 59.2922C106.028 59.2462 107.018 59.525 108.268 59.7087C108.891 59.8038 109.462 59.8596 109.875 59.8924C110.033 59.9176 110.193 59.9176 110.351 59.8924C110.472 59.8694 110.525 59.8334 110.535 59.8432Z" fill="#FF9A6C"/>
<path d="M111.312 61.7522C111.028 61.8176 110.737 61.8452 110.446 61.8342C109.039 61.8598 107.639 61.6309 106.313 61.1585C106.034 61.0727 105.767 60.9537 105.516 60.8042C105.8 60.8623 106.078 60.9424 106.349 61.0437C107.015 61.2413 107.692 61.398 108.376 61.5127C109.061 61.6239 109.753 61.6908 110.446 61.7128C110.735 61.7067 111.025 61.7198 111.312 61.7522Z" fill="#FF9A6C"/>
<path d="M111.312 57.967C111.296 58.0162 110.144 57.6653 108.688 57.5406C107.232 57.416 106.021 57.5406 106.018 57.4914C106.271 57.4154 106.532 57.3724 106.795 57.3635C107.431 57.3093 108.069 57.3093 108.704 57.3635C109.338 57.4189 109.966 57.5286 110.581 57.6915C110.836 57.7494 111.082 57.8421 111.312 57.967Z" fill="#FF9A6C"/>
<path d="M119.223 67.3347C119.011 67.4386 118.784 67.5104 118.551 67.5479C117.993 67.6693 117.426 67.7374 116.855 67.7513C116.285 67.7657 115.715 67.7251 115.153 67.6299C114.916 67.6064 114.685 67.5455 114.467 67.4495C114.467 67.397 115.533 67.6201 116.852 67.5807C118.17 67.5414 119.21 67.2822 119.223 67.3347Z" fill="#FF9A6C"/>
<path d="M117.918 66.4918C117.414 66.5486 116.906 66.5486 116.403 66.4918C115.895 66.4896 115.39 66.4291 114.897 66.3114C115.401 66.2553 115.909 66.2553 116.412 66.3114C116.919 66.3148 117.424 66.3753 117.918 66.4918Z" fill="#FF9A6C"/>
<path d="M117.731 69.0141C117.446 69.1531 117.13 69.2185 116.813 69.2043C116.497 69.2457 116.176 69.2039 115.881 69.083C116.187 69.0352 116.497 69.0188 116.806 69.0338C117.113 68.9944 117.423 68.9878 117.731 69.0141Z" fill="#FF9A6C"/>
<path d="M102.436 55.3266C101.789 55.512 101.112 55.571 100.442 55.5005C99.7657 55.4869 99.098 55.3456 98.4741 55.0839C98.4741 55.0314 99.3499 55.2676 100.442 55.3299C101.534 55.3922 102.43 55.2774 102.436 55.3266Z" fill="#FF9A6C"/>
<path d="M102.561 56.9371C102.334 57.0595 102.09 57.1447 101.836 57.1897C100.621 57.48 99.3514 57.4426 98.1559 57.0814C97.9049 57.0235 97.6654 56.9237 97.4474 56.7862C98.279 57.0148 99.132 57.1566 99.9927 57.2094C100.856 57.2044 101.716 57.1132 102.561 56.9371Z" fill="#FF9A6C"/>
<path d="M103.496 53.7752C103.476 53.7982 103.246 53.6014 102.82 53.3947C102.256 53.1322 101.657 52.9522 101.042 52.8601C100.324 52.7387 99.6581 52.6633 99.1825 52.5583C98.922 52.524 98.6685 52.4487 98.4314 52.3353C98.6915 52.3527 98.9502 52.3877 99.2055 52.4402C99.6778 52.5124 100.34 52.5682 101.072 52.6928C101.703 52.7861 102.313 52.9869 102.876 53.2865C103.116 53.4016 103.328 53.5685 103.496 53.7752Z" fill="#FF9A6C"/>
<path d="M91.632 57.2979C90.676 57.499 89.6885 57.499 88.7325 57.2979C89.2147 57.2573 89.6991 57.2507 90.1822 57.2782C90.6654 57.2508 91.1498 57.2574 91.632 57.2979Z" fill="#FF9A6C"/>
<path d="M92.7439 58.8198C92.5988 58.9262 92.4319 58.999 92.2552 59.033C91.8399 59.1518 91.4111 59.2168 90.9793 59.2266C90.3735 59.2605 89.766 59.2075 89.1753 59.0691C89.1753 59.0101 89.9887 59.0691 90.9727 59.0691C91.5686 59.0311 92.1607 58.9478 92.7439 58.8198Z" fill="#FF9A6C"/>
<g opacity="0.2">
<path d="M98.0149 36.4732C98.034 37.2402 97.9025 38.0036 97.6278 38.72C97.3392 39.4744 97.0637 39.9139 96.4437 40.2386C96.0248 40.447 95.5515 40.5203 95.0891 40.4486C94.8334 40.4318 94.5842 40.3608 94.358 40.2404C94.1318 40.1199 93.9338 39.9527 93.7771 39.7499C93.4945 39.2594 93.3273 38.7108 93.2884 38.146C93.1498 37.5592 93.1667 36.9464 93.3376 36.3682C93.4949 36.0034 93.7576 35.6939 94.092 35.4794C95.1252 34.7709 96.201 34.9021 97.3917 35.2826C97.5084 35.3237 97.6138 35.3917 97.6992 35.4812C97.7847 35.5707 97.8479 35.6791 97.8837 35.7975C97.9615 36.0148 98.0057 36.2426 98.0149 36.4732Z" fill="white"/>
</g>
<g opacity="0.2">
<path d="M112.234 36.4732C112.254 37.24 112.124 38.0034 111.85 38.72C111.558 39.4744 111.286 39.9139 110.663 40.2386C110.245 40.4469 109.773 40.5203 109.311 40.4486C109.056 40.4314 108.806 40.3602 108.58 40.2398C108.354 40.1194 108.156 39.9524 107.999 39.7499C107.717 39.2594 107.549 38.7108 107.51 38.146C107.375 37.5589 107.392 36.947 107.56 36.3682C107.718 36.004 107.98 35.6948 108.314 35.4794C109.351 34.7709 110.423 34.9021 111.617 35.2826C111.733 35.3248 111.838 35.3932 111.923 35.4826C112.009 35.5719 112.072 35.6796 112.109 35.7975C112.186 36.0147 112.228 36.2428 112.234 36.4732Z" fill="white"/>
</g>
<g opacity="0.2">
<path d="M113.474 50.1377C113.453 50.9045 113.584 51.6679 113.857 52.3845C114.149 53.1389 114.425 53.5784 115.045 53.9031C115.463 54.1112 115.935 54.1845 116.396 54.113C116.652 54.0958 116.901 54.0247 117.127 53.9043C117.353 53.7839 117.551 53.6169 117.708 53.4144C117.991 52.9238 118.158 52.3753 118.197 51.8105C118.332 51.2234 118.315 50.6115 118.148 50.0327C117.99 49.668 117.727 49.3585 117.393 49.1438C116.36 48.4354 115.284 48.5666 114.09 48.947C113.974 48.9888 113.87 49.0572 113.785 49.1466C113.7 49.236 113.637 49.344 113.601 49.462C113.523 49.679 113.48 49.9071 113.474 50.1377Z" fill="white"/>
</g>
<g opacity="0.2">
<path d="M106.153 30.2281C106.181 31.043 106.033 31.8545 105.716 32.6061C105.388 33.4064 105.06 33.8656 104.335 34.21C103.836 34.4261 103.286 34.4988 102.748 34.4199C102.453 34.4032 102.165 34.3285 101.899 34.2002C101.634 34.0719 101.396 33.8924 101.2 33.6721C100.867 33.1602 100.666 32.5745 100.613 31.9665C100.508 31.34 100.406 30.6545 100.659 30.0838C100.848 29.6892 101.155 29.3627 101.538 29.149C102.748 28.4044 104.011 28.552 105.415 28.9653C105.547 29.0057 105.668 29.0762 105.769 29.1712C105.87 29.2662 105.947 29.3832 105.995 29.513C106.087 29.7411 106.14 29.9827 106.153 30.2281Z" fill="white"/>
</g>
<path d="M74.8515 96.9105C74.8065 96.7372 74.792 96.5574 74.8089 96.3791C74.803 95.946 74.8381 95.5133 74.9138 95.0868C74.9862 94.656 75.1351 94.2417 75.3533 93.8634C75.5272 93.5747 75.6813 93.4337 75.6813 93.4468C75.6129 93.6098 75.5329 93.7676 75.4419 93.9191C75.2641 94.301 75.1373 94.7046 75.0647 95.1196C74.904 96.0938 74.904 96.9138 74.8515 96.9105Z" fill="#FF9A6C"/>
<path d="M83.291 114.117C83.2582 114.153 81.3951 112.454 79.1253 110.326C76.8556 108.197 75.045 106.442 75.0778 106.409C75.1106 106.377 76.9737 108.072 79.2434 110.201C81.5132 112.33 83.3238 114.085 83.291 114.117Z" fill="#FF9A6C"/>
<path d="M65.0935 89.9503C65.1132 89.9995 64.303 90.2783 63.424 90.8458C62.5449 91.4132 61.9381 92.0134 61.9021 91.9741C62.2867 91.4565 62.7734 91.0234 63.3321 90.7014C63.861 90.3319 64.4608 90.0762 65.0935 89.9503Z" fill="#FF9A6C"/>
<path d="M67.0812 89.232C67.1612 89.5358 67.1176 89.859 66.9598 90.1307C66.8171 90.4304 66.6363 90.7104 66.4219 90.9638C66.17 91.2793 65.9006 91.5805 65.615 91.8658C65.0955 92.3815 64.5214 92.839 63.9029 93.2303C63.6553 93.407 63.385 93.5493 63.0993 93.6534C63.3352 93.4658 63.5816 93.2917 63.8373 93.1319C64.4204 92.7144 64.9689 92.2504 65.4773 91.7445C66.0006 91.2506 66.4571 90.6905 66.8352 90.0782C66.9732 89.8155 67.0568 89.5277 67.0812 89.232Z" fill="#FF9A6C"/>
<path d="M63.3092 87.9594C62.9539 88.3389 62.5713 88.6919 62.1645 89.0155C61.7958 89.3834 61.4012 89.7243 60.9837 90.0356C61.2807 89.6036 61.6399 89.2179 62.0497 88.8909C62.422 88.5208 62.8463 88.207 63.3092 87.9594Z" fill="#FF9A6C"/>
<path opacity="0.2" d="M59.242 85.05C59.3994 85.1025 62.4826 83.2296 62.1153 82.1374C61.7479 81.0451 59.6389 78.1095 58.5073 78.2276C57.3757 78.3457 56.8148 79.3198 56.9165 80.5695C57.0181 81.8192 59.242 85.05 59.242 85.05Z" fill="white"/>
<g opacity="0.2">
<path d="M95.2695 66.2982L97.4474 46.041C95.4106 52.3353 94.7972 59.6267 95.2695 66.2982Z" fill="black"/>
</g>
<g opacity="0.2">
<path d="M103.486 69.1125C103.32 62.1677 104.111 55.2331 105.838 48.5042C105.985 50.3279 105.493 53.503 105.024 55.6743C104.782 56.7928 104.499 57.0322 104.408 57.9703C103.82 63.9465 103.952 65.3733 103.486 69.1223" fill="black"/>
</g>
<path opacity="0.4" d="M75.5764 152.247C75.5764 152.247 86.0035 123.383 85.564 118.558C85.1245 113.734 82.2512 113.143 79.1844 110.263C76.1176 107.384 64.5293 97.8584 64.4506 97.7994C66.1923 101.368 67.8913 104.422 70.5285 107.495C73.3755 110.821 82.2446 116.679 82.0839 120.795C81.9232 124.912 70.5711 151.096 70.5711 151.096L75.5764 152.247Z" fill="#FF9A6C"/>
<g opacity="0.4">
<path d="M112.827 76.627C111.725 69.4758 111.651 62.2036 112.608 55.0314C113.055 56.9143 113.223 58.8528 113.106 60.7846C112.998 62.5886 112.64 64.3696 112.476 66.167C112.211 69.0666 112.45 71.9825 112.69 74.8787" fill="#FF9A6C"/>
</g>
<g opacity="0.2">
<path d="M109.101 57.5734C108.591 57.2414 107.972 57.1199 107.375 57.2347C106.777 57.3494 106.247 57.6914 105.896 58.1887C105.545 58.686 105.401 59.2999 105.494 59.9015C105.586 60.503 105.908 61.0453 106.392 61.4143C107.018 61.829 107.75 62.0565 108.501 62.0703C109.061 62.1413 109.629 62.108 110.177 61.9719C110.454 61.904 110.713 61.7795 110.939 61.6061C111.165 61.4328 111.352 61.2145 111.489 60.965C111.627 60.6176 111.673 60.2408 111.624 59.8704C111.575 59.5 111.431 59.1484 111.207 58.8494C110.893 58.3959 110.472 58.0275 109.981 57.7773C109.49 57.5271 108.944 57.403 108.393 57.416" fill="#FF9A6C"/>
</g>
<g opacity="0.2">
<path d="M92.0781 56.432C91.5681 56.0999 90.9492 55.9785 90.3515 56.0932C89.7538 56.2079 89.2239 56.5499 88.8731 57.0472C88.5223 57.5445 88.3779 58.1585 88.4704 58.76C88.5628 59.3616 88.8849 59.9038 89.3688 60.2729C89.9952 60.6875 90.7268 60.9151 91.4778 60.9289C92.0389 60.9998 92.6083 60.9664 93.1572 60.8305C93.4306 60.7601 93.6864 60.6341 93.9088 60.4602C94.1312 60.2864 94.3153 60.0685 94.4495 59.8202C94.5885 59.4739 94.6359 59.0975 94.587 58.7275C94.5382 58.3575 94.3948 58.0064 94.1707 57.7079C93.8571 57.2538 93.4353 56.8849 92.9433 56.6347C92.4514 56.3844 91.9049 56.2607 91.3532 56.2746" fill="#FF9A6C"/>
</g>
<g opacity="0.2">
<path d="M101.032 52.7715C100.026 51.945 98.5233 52.3156 97.8312 53.562C97.1391 54.8084 97.372 56.7272 98.3232 57.6554C98.91 58.1679 99.6538 58.4653 100.432 58.4984C100.994 58.5875 101.569 58.5437 102.112 58.3705C102.406 58.2615 102.673 58.0909 102.896 57.8704C103.119 57.6498 103.292 57.3842 103.404 57.0913C103.544 56.6482 103.591 56.1809 103.543 55.7187C103.494 55.2565 103.351 54.8093 103.122 54.405C102.508 53.2504 101.406 52.5386 100.308 52.5878" fill="#FF9A6C"/>
</g>
<g opacity="0.2">
<path d="M117.442 65.4258C116.932 65.078 116.306 64.9447 115.698 65.0548C115.091 65.1649 114.551 65.5094 114.195 66.0141C113.84 66.5187 113.697 67.143 113.797 67.7522C113.898 68.3613 114.234 68.9065 114.733 69.2699C115.361 69.6837 116.093 69.9111 116.845 69.9259C117.405 69.9969 117.974 69.9636 118.521 69.8275C118.795 69.7572 119.051 69.6316 119.274 69.4584C119.496 69.2852 119.681 69.0681 119.817 68.8206C119.955 68.4732 120.001 68.0964 119.952 67.726C119.903 67.3556 119.759 67.004 119.535 66.705C119.221 66.2519 118.798 65.884 118.307 65.6344C117.815 65.3848 117.269 65.2612 116.717 65.2749" fill="#FF9A6C"/>
</g>
<g opacity="0.3">
<path d="M97.6705 38.228C97.6705 38.228 97.6705 38.3297 97.6114 38.5035C97.5369 38.748 97.4425 38.9861 97.3293 39.2153C97.1651 39.5665 96.9333 39.8819 96.6471 40.1435C96.2835 40.4594 95.8167 40.6309 95.3351 40.6257C94.851 40.6189 94.3854 40.4385 94.0231 40.1173C93.7339 39.8552 93.517 39.5231 93.3933 39.153C93.3076 38.9074 93.2654 38.6488 93.2687 38.3887C93.261 38.2929 93.2744 38.1966 93.3081 38.1066C93.3263 38.4488 93.3926 38.7866 93.5049 39.1103C93.6399 39.4515 93.8534 39.756 94.1281 39.9992C94.4676 40.2893 94.8984 40.4507 95.3449 40.4551C95.7849 40.463 96.2132 40.3128 96.552 40.032C96.8294 39.7895 97.0586 39.4968 97.2277 39.1694C97.536 38.6019 97.6442 38.2149 97.6705 38.228Z" fill="white"/>
</g>
<g opacity="0.3">
<path d="M105.949 31.504C105.949 31.6152 105.932 31.7257 105.9 31.832C105.83 32.1412 105.731 32.4432 105.605 32.734C105.417 33.1706 105.15 33.5687 104.818 33.9082C104.399 34.329 103.854 34.6 103.266 34.679C102.972 34.7266 102.672 34.7102 102.385 34.631C102.098 34.5517 101.831 34.4115 101.603 34.2198C101.253 33.8903 101.001 33.4702 100.875 33.0062C100.784 32.7029 100.718 32.3924 100.678 32.078C100.656 31.9701 100.647 31.86 100.652 31.75C100.688 31.75 100.744 32.2387 100.98 32.9833C101.115 33.4185 101.363 33.8102 101.698 34.1182C101.911 34.2907 102.158 34.4161 102.422 34.4862C102.687 34.5563 102.963 34.5695 103.233 34.5249C103.786 34.4522 104.299 34.2011 104.696 33.8098C105.023 33.489 105.289 33.1124 105.483 32.6979C105.831 31.9698 105.916 31.4778 105.949 31.504Z" fill="#FF9A6C"/>
</g>
<g opacity="0.3">
<path d="M112.296 37.5917C112.316 37.5917 112.152 37.9787 111.968 38.6282C111.866 39.0142 111.717 39.3865 111.525 39.7368C111.401 39.956 111.232 40.147 111.03 40.2978C110.828 40.4485 110.597 40.5557 110.351 40.6126C109.859 40.7237 109.343 40.6611 108.891 40.4354C108.532 40.2458 108.222 39.9765 107.983 39.6482C107.824 39.4305 107.696 39.1922 107.602 38.9398C107.56 38.8502 107.534 38.7534 107.527 38.6544C107.685 38.9757 107.871 39.283 108.081 39.5728C108.317 39.8753 108.618 40.1217 108.96 40.2944C109.381 40.4945 109.857 40.5476 110.312 40.4453C110.536 40.3941 110.748 40.2972 110.934 40.1607C111.119 40.0241 111.275 39.8508 111.391 39.6515C111.582 39.3148 111.738 38.9586 111.853 38.5888C111.945 38.2345 112.095 37.8976 112.296 37.5917Z" fill="white"/>
</g>
<g opacity="0.3">
<path d="M118.371 51.0528C118.384 51.1474 118.384 51.2435 118.371 51.3382C118.346 51.5964 118.304 51.8528 118.246 52.1057C118.164 52.4863 118.017 52.8502 117.813 53.1815C117.546 53.5921 117.15 53.9017 116.687 54.061C116.224 54.2203 115.721 54.2201 115.258 54.0606C114.884 53.9261 114.556 53.6898 114.31 53.3783C114.143 53.1743 114.018 52.9391 113.943 52.6862C113.907 52.5967 113.891 52.5004 113.897 52.4042C114.012 52.7294 114.183 53.0323 114.402 53.2996C114.669 53.6141 115.025 53.8399 115.423 53.9471C115.822 54.0543 116.243 54.0378 116.632 53.8998C117.061 53.755 117.43 53.4725 117.682 53.0962C117.885 52.7816 118.036 52.436 118.128 52.0729C118.282 51.4497 118.341 51.0495 118.371 51.0528Z" fill="white"/>
</g>
<path d="M59.5241 78.736C59.5241 78.7622 59.3207 78.6638 58.9927 78.6146C58.5666 78.5509 58.1312 78.6244 57.7496 78.8246C57.3744 79.0372 57.0777 79.3649 56.9034 79.7594C56.7689 80.0644 56.7492 80.2776 56.723 80.2743C56.6871 80.0847 56.7111 79.8887 56.7918 79.7134C56.9438 79.2697 57.2562 78.8988 57.6677 78.6736C58.0792 78.4485 58.56 78.3853 59.0157 78.4966C59.2048 78.5253 59.3815 78.6085 59.5241 78.736Z" fill="#FF9A6C"/>
<path d="M74.3562 141.217L70.5711 151.09C86.8858 161.231 102.279 158.069 102.279 158.069L106.5 147.695C95.8238 148.974 84.6685 147.288 74.3562 141.217Z" fill="#4E8CA0"/>
<path opacity="0.2" d="M79.4173 150.604C79.2529 150.979 78.981 151.297 78.636 151.517C78.2909 151.738 77.8883 151.851 77.4789 151.842C77.0696 151.834 76.6719 151.704 76.3363 151.47C76.0007 151.235 75.7422 150.906 75.5934 150.525C75.4447 150.143 75.4125 149.726 75.5008 149.327C75.5891 148.927 75.794 148.562 76.0896 148.279C76.3852 147.996 76.7581 147.806 77.1613 147.735C77.5645 147.664 77.9797 147.714 78.3546 147.878C78.8568 148.099 79.2508 148.51 79.45 149.021C79.6493 149.532 79.6375 150.102 79.4173 150.604Z" fill="black"/>
<path d="M79.5911 148.961C79.5918 149.37 79.4709 149.771 79.2439 150.112C79.0169 150.452 78.6939 150.718 78.3157 150.875C77.9376 151.032 77.5214 151.074 77.1197 150.994C76.718 150.915 76.3489 150.718 76.0591 150.429C75.7693 150.139 75.5719 149.771 75.4918 149.369C75.4116 148.967 75.4524 148.551 75.609 148.173C75.7655 147.794 76.0308 147.471 76.3712 147.243C76.7117 147.016 77.1119 146.894 77.5214 146.894C78.0698 146.894 78.5957 147.112 78.9838 147.499C79.3718 147.887 79.5902 148.412 79.5911 148.961Z" fill="white"/>
<path d="M79.191 148.99C79.1779 148.856 79.156 148.722 79.1254 148.59C79.067 148.371 78.9637 148.166 78.822 147.989C78.6803 147.811 78.5034 147.665 78.3024 147.56C78.1013 147.454 77.8806 147.392 77.6542 147.376C77.4277 147.36 77.2005 147.392 76.9868 147.468C76.7262 147.566 76.4953 147.73 76.3162 147.943C76.1371 148.156 76.0159 148.411 75.9643 148.685C75.9127 148.958 75.9324 149.241 76.0216 149.504C76.1108 149.768 76.2664 150.004 76.4734 150.19C76.6804 150.376 76.9319 150.506 77.2036 150.567C77.4752 150.627 77.7579 150.617 78.0244 150.537C78.2909 150.456 78.5322 150.308 78.725 150.108C78.9179 149.907 79.0557 149.66 79.1254 149.39C79.1562 149.259 79.1782 149.125 79.191 148.99C79.1998 149.127 79.1865 149.264 79.1516 149.397C79.0658 149.766 78.8549 150.094 78.5546 150.325C78.3056 150.517 78.0078 150.635 77.6951 150.666C77.3824 150.697 77.0672 150.64 76.7852 150.502C76.5032 150.363 76.2657 150.148 76.0997 149.881C75.9336 149.614 75.8456 149.306 75.8456 148.992C75.8456 148.678 75.9336 148.37 76.0997 148.103C76.2657 147.836 76.5032 147.621 76.7852 147.482C77.0672 147.343 77.3824 147.286 77.6951 147.318C78.0078 147.349 78.3056 147.467 78.5546 147.659C78.8636 147.89 79.0808 148.224 79.168 148.6C79.1957 148.728 79.2035 148.86 79.191 148.99Z" fill="#263238"/>
<path d="M77.4493 148.78C77.6522 148.78 77.8166 148.616 77.8166 148.413C77.8166 148.21 77.6522 148.046 77.4493 148.046C77.2464 148.046 77.0819 148.21 77.0819 148.413C77.0819 148.616 77.2464 148.78 77.4493 148.78Z" fill="#263238"/>
<path d="M77.9511 149.702C77.9505 149.775 77.9284 149.845 77.8876 149.905C77.8468 149.965 77.7893 150.012 77.7221 150.039C77.6549 150.066 77.5811 150.073 77.5101 150.059C77.439 150.044 77.3739 150.009 77.3228 149.957C77.2718 149.906 77.2371 149.84 77.2232 149.769C77.2093 149.698 77.2168 149.624 77.2447 149.557C77.2726 149.491 77.3197 149.433 77.38 149.393C77.4403 149.353 77.5112 149.331 77.5837 149.331C77.6323 149.331 77.6803 149.341 77.7251 149.36C77.7699 149.378 77.8105 149.406 77.8447 149.44C77.8788 149.475 77.9058 149.516 77.9241 149.56C77.9424 149.605 77.9515 149.654 77.9511 149.702Z" fill="#263238"/>
</svg>
