<svg width="12" height="16" viewBox="0 0 12 16" fill="none" xmlns="http://www.w3.org/2000/svg">
<path d="M10.8877 10.153C11.4112 9.32958 11.7584 8.28814 11.8258 7.25767C11.8685 6.59626 11.7118 5.90197 11.3723 5.24909C10.8398 4.22349 9.92503 3.64735 9.04138 3.09069C8.38189 2.67534 7.75867 2.28312 7.31814 1.72282L7.2391 1.62294C6.97867 1.29406 6.68455 0.921337 6.63791 0.608296C6.59126 0.291602 6.28549 0.0662612 5.9512 0.084532C5.61173 0.106457 5.34871 0.370775 5.34871 0.691124L5.34871 11.544C4.80583 11.2346 4.13726 11.0446 3.4052 11.0446C1.61976 11.0446 0.166016 12.1372 0.166016 13.4807C0.166016 14.8242 1.61976 15.9168 3.4052 15.9168C5.19064 15.9168 6.64439 14.8242 6.64439 13.4807L6.64439 6.38188C7.61744 6.73147 9.20982 7.62186 9.64776 9.70109C9.56613 9.81437 9.48839 9.93617 9.39769 10.0336C9.16059 10.2858 9.1865 10.6707 9.456 10.8923C9.72291 11.1165 10.1323 11.0897 10.3695 10.8375C10.5431 10.6524 10.6973 10.4356 10.845 10.209C10.8605 10.192 10.8748 10.1737 10.8877 10.153Z" fill="#5C6471"/>
</svg>
