<svg width="56" height="56" viewBox="0 0 56 56" fill="none" xmlns="http://www.w3.org/2000/svg">
<rect width="56" height="56" rx="28" fill="#EDF3F5"/>
<path d="M33.866 30.5834C34.4942 29.5953 34.9109 28.3456 34.9917 27.109C35.043 26.3153 34.8549 25.4822 34.4475 24.6987C33.8085 23.468 32.7108 22.7766 31.6504 22.1086C30.859 21.6102 30.1112 21.1396 29.5825 20.4672L29.4877 20.3473C29.1752 19.9527 28.8222 19.5054 28.7663 19.1298C28.7103 18.7497 28.3434 18.4793 27.9422 18.5012C27.5349 18.5276 27.2192 18.8447 27.2192 19.2292V32.2526C26.5678 31.8813 25.7655 31.6533 24.887 31.6533C22.7445 31.6533 21 32.9644 21 34.5767C21 36.1889 22.7445 37.5 24.887 37.5C27.0296 37.5 28.774 36.1889 28.774 34.5767V26.0581C29.9417 26.4776 31.8526 27.546 32.3781 30.0411C32.2801 30.177 32.1869 30.3232 32.078 30.4401C31.7935 30.7427 31.8246 31.2046 32.148 31.4706C32.4683 31.7396 32.9596 31.7074 33.2441 31.4048C33.4525 31.1827 33.6375 30.9225 33.8147 30.6506C33.8334 30.6302 33.8505 30.6082 33.866 30.5834Z" fill="#21697C"/>
</svg>
