<svg width="21" height="21" viewBox="0 0 21 21" fill="none" xmlns="http://www.w3.org/2000/svg">
<path d="M18.4167 15.9688C18.4167 16.176 18.3409 16.3747 18.2059 16.5212C18.0709 16.6677 17.8879 16.75 17.697 16.75H9.06065C8.86977 16.75 8.68671 16.6677 8.55174 16.5212C8.41677 16.3747 8.34095 16.176 8.34095 15.9688C8.34095 14.7255 8.7959 13.5333 9.60572 12.6542C10.4155 11.7751 11.5139 11.2812 12.6591 11.2812H14.0985C15.2438 11.2812 16.3421 11.7751 17.1519 12.6542C17.9618 13.5333 18.4167 14.7255 18.4167 15.9688ZM13.3788 4.25C12.8095 4.25 12.2529 4.43328 11.7795 4.77666C11.306 5.12004 10.9371 5.6081 10.7192 6.17911C10.5013 6.75013 10.4443 7.37847 10.5554 7.98466C10.6664 8.59085 10.9406 9.14767 11.3432 9.58471C11.7458 10.0217 12.2588 10.3194 12.8172 10.44C13.3756 10.5605 13.9545 10.4986 14.4805 10.2621C15.0065 10.0256 15.4561 9.62506 15.7725 9.11116C16.0888 8.59725 16.2576 7.99307 16.2576 7.375C16.2576 6.5462 15.9543 5.75134 15.4144 5.16529C14.8746 4.57924 14.1423 4.25 13.3788 4.25ZM6.90156 4.25C6.33219 4.25 5.7756 4.43328 5.30219 4.77666C4.82877 5.12004 4.45979 5.6081 4.2419 6.17911C4.02401 6.75013 3.967 7.37847 4.07808 7.98466C4.18916 8.59085 4.46334 9.14767 4.86595 9.58471C5.26855 10.0217 5.7815 10.3194 6.33993 10.44C6.89836 10.5605 7.47719 10.4986 8.00322 10.2621C8.52925 10.0256 8.97885 9.62506 9.29518 9.11116C9.61151 8.59725 9.78034 7.99307 9.78034 7.375C9.78034 6.5462 9.47704 5.75134 8.93717 5.16529C8.39729 4.57924 7.66506 4.25 6.90156 4.25ZM6.90156 15.9688C6.90049 15.1481 7.04942 14.3354 7.33974 13.5777C7.63005 12.8201 8.05598 12.1324 8.59284 11.5547C8.15349 11.3746 7.68784 11.282 7.21822 11.2812H6.58489C5.52421 11.2833 4.50751 11.7416 3.75749 12.5558C3.00747 13.3699 2.58528 14.4736 2.58337 15.625V15.9688C2.58337 16.176 2.6592 16.3747 2.79417 16.5212C2.92914 16.6677 3.1122 16.75 3.30307 16.75H7.0311C6.94731 16.4995 6.9035 16.2353 6.90156 15.9688Z" fill="#8C909B"/>
</svg>
