<svg width="20" height="20" viewBox="0 0 20 20" fill="none" xmlns="http://www.w3.org/2000/svg">
<circle cx="10" cy="10" r="10" fill="#275A51"/>
<path fill-rule="evenodd" clip-rule="evenodd" d="M8.43927 8.40556L10.0004 4.72223L11.5615 8.40556L15.5559 8.74445L12.5226 11.3722L13.4337 15.2778L10.0004 13.2056L6.56705 15.2778L7.47816 11.3722L4.44482 8.74445L8.43927 8.40556ZM10.5393 8.84445L10.0004 7.57223L9.46149 8.83334L9.20038 9.45001L8.53371 9.50556L7.16149 9.62223L8.20594 10.5278L8.71149 10.9667L8.56149 11.6222L8.25038 12.9611L9.42816 12.25L10.0004 11.9056L10.5726 12.2611L11.7504 12.9722L11.4393 11.6333L11.2893 10.9778L11.7948 10.5389L12.8393 9.63334L11.467 9.51667L10.8004 9.46112L10.5393 8.84445Z" fill="white"/>
</svg>
