<svg width="40" height="40" viewBox="0 0 40 40" fill="none" xmlns="http://www.w3.org/2000/svg">
<path d="M37.7455 27.9151L30.5926 20.7623C30.4613 20.6307 30.3045 20.5275 30.1318 20.4588C29.9591 20.3901 29.7741 20.3575 29.5883 20.3629C29.4026 20.3684 29.2198 20.4118 29.0515 20.4905C28.8831 20.5692 28.7326 20.6815 28.6092 20.8206C28.3975 21.0367 28.2649 21.318 28.233 21.6189C28.2011 21.9198 28.2717 22.2226 28.4334 22.4784L23.8296 27.0822C23.6688 27.2482 23.4615 27.3616 23.235 27.4075C23.0085 27.4534 22.7734 27.4297 22.5606 27.3394C22.3449 27.2541 22.1596 27.1065 22.0282 26.9153C21.8968 26.7242 21.8254 26.4983 21.8231 26.2663L21.793 24.1393H22.4149L22.4229 24.6125C22.4253 24.7442 22.4793 24.8696 22.5732 24.9619C22.6672 25.0542 22.7936 25.1059 22.9253 25.1058H22.9344C23.0003 25.1047 23.0654 25.0905 23.1259 25.0642C23.1864 25.0378 23.2412 24.9998 23.287 24.9523C23.3328 24.9048 23.3688 24.8488 23.3929 24.7874C23.4171 24.726 23.4289 24.6604 23.4277 24.5944L23.3945 22.6603C23.3901 22.5277 23.3342 22.4021 23.2388 22.31C23.1433 22.2179 23.0158 22.1666 22.8831 22.1669C22.8171 22.1681 22.7521 22.1823 22.6915 22.2086C22.631 22.235 22.5763 22.273 22.5305 22.3204C22.4847 22.3679 22.4487 22.424 22.4245 22.4854C22.4004 22.5468 22.3886 22.6124 22.3898 22.6784L22.3968 23.1345H21.7769L21.7256 19.2963H22.4159L22.424 19.7696C22.4261 19.9014 22.4799 20.0271 22.5739 20.1196C22.6679 20.2121 22.7945 20.2639 22.9263 20.2639H22.9354C23.0014 20.2627 23.0664 20.2486 23.1269 20.2222C23.1874 20.1959 23.2422 20.1579 23.288 20.1104C23.3338 20.0629 23.3698 20.0069 23.3939 19.9455C23.4181 19.884 23.4299 19.8185 23.4287 19.7525L23.3956 17.8183C23.3914 17.6857 23.3356 17.5599 23.2401 17.4678C23.1445 17.3756 23.0168 17.3244 22.8841 17.325C22.8182 17.3262 22.7531 17.3404 22.6926 17.3667C22.6321 17.393 22.5773 17.431 22.5315 17.4785C22.4857 17.526 22.4497 17.5821 22.4256 17.6435C22.4014 17.7049 22.3896 17.7705 22.3908 17.8364L22.3978 18.2916H21.7106L21.6563 14.4554H22.2481L22.2572 14.9297C22.2595 15.0613 22.3135 15.1868 22.4075 15.2791C22.5014 15.3713 22.6279 15.423 22.7595 15.423H22.7686C22.8346 15.4218 22.8997 15.4077 22.9602 15.3813C23.0207 15.355 23.0754 15.317 23.1212 15.2695C23.167 15.222 23.203 15.166 23.2272 15.1045C23.2513 15.0431 23.2631 14.9776 23.2619 14.9116L23.2278 12.9774C23.2282 12.911 23.2152 12.8451 23.1894 12.7839C23.1636 12.7226 23.1257 12.6672 23.0779 12.6211C23.03 12.5749 22.9733 12.539 22.9112 12.5154C22.849 12.4919 22.7827 12.4812 22.7163 12.4841C22.6504 12.4853 22.5853 12.4994 22.5248 12.5258C22.4643 12.5521 22.4095 12.5901 22.3637 12.6376C22.3179 12.6851 22.2819 12.7412 22.2578 12.8026C22.2336 12.864 22.2218 12.9295 22.223 12.9955L22.231 13.4507H21.6423L21.588 9.61552H22.2481L22.2572 10.0988C22.2593 10.2306 22.3131 10.3564 22.4071 10.4489C22.5011 10.5413 22.6277 10.5932 22.7595 10.5931H22.7686C22.8346 10.592 22.8997 10.5778 22.9602 10.5515C23.0207 10.5251 23.0754 10.4871 23.1212 10.4396C23.167 10.3921 23.203 10.3361 23.2272 10.2747C23.2513 10.2133 23.2631 10.1477 23.2619 10.0817L23.2278 8.14757C23.2228 8.01517 23.1668 7.88984 23.0714 7.79786C22.9761 7.70588 22.8488 7.6544 22.7163 7.65423C22.6504 7.65541 22.5853 7.66957 22.5248 7.69591C22.4643 7.72225 22.4095 7.76026 22.3637 7.80775C22.3179 7.85524 22.2819 7.91129 22.2578 7.9727C22.2336 8.03411 22.2218 8.09968 22.223 8.16565L22.23 8.61076H21.5759L21.5448 6.46561C21.5221 4.86712 20.8709 3.34184 19.7321 2.21982C18.5934 1.0978 17.0586 0.469272 15.46 0.470226H9.57413C9.48848 0.328592 9.36818 0.211103 9.22456 0.128834C9.08094 0.0465648 8.91874 0.00222687 8.75324 0H7.40888C7.20241 0.00156599 7.0017 0.0682619 6.83536 0.190583C6.66902 0.312903 6.54553 0.484607 6.48249 0.681225H5.09291C4.97382 0.680337 4.85637 0.709072 4.75113 0.764846C4.6459 0.82062 4.55619 0.901681 4.49006 1.00074L3.12259 3.03537C3.04947 3.1444 3.0074 3.27127 3.00089 3.40239C2.99438 3.5335 3.02366 3.66392 3.08561 3.77966C3.14756 3.8954 3.23984 3.9921 3.35255 4.0594C3.46526 4.1267 3.59416 4.16207 3.72544 4.1617H6.48852C6.55156 4.35832 6.67504 4.53002 6.84139 4.65234C7.00773 4.77466 7.20844 4.84136 7.4149 4.84293H8.75324C8.91874 4.8407 9.08094 4.79636 9.22456 4.71409C9.36818 4.63182 9.48848 4.51433 9.57413 4.3727H14.8541C15.1206 4.37267 15.3844 4.42563 15.6302 4.5285C15.8759 4.63136 16.0988 4.78208 16.2858 4.97189C16.4728 5.16169 16.6202 5.38679 16.7194 5.63409C16.8186 5.88138 16.8676 6.14594 16.8636 6.41235L16.8325 8.61277H15.8358C15.7025 8.61277 15.5747 8.6657 15.4805 8.75991C15.3863 8.85413 15.3334 8.98191 15.3334 9.11515C15.3334 9.24839 15.3863 9.37617 15.4805 9.47038C15.5747 9.5646 15.7025 9.61753 15.8358 9.61753H16.8184L16.6295 23.1345H15.4851C15.3519 23.1345 15.2241 23.1874 15.1299 23.2817C15.0357 23.3759 14.9827 23.5037 14.9827 23.6369C14.9827 23.7701 15.0357 23.8979 15.1299 23.9921C15.2241 24.0863 15.3519 24.1393 15.4851 24.1393H16.6155L16.4899 33.1077C16.4699 34.4595 16.8539 35.7866 17.5926 36.9189C18.3312 38.0512 19.3911 38.9374 20.6363 39.4638C21.8816 39.9903 23.2556 40.1332 24.5825 39.8742C25.9095 39.6152 27.1289 38.9661 28.0847 38.0099L36.0223 30.0724C36.2244 30.2038 36.4586 30.2774 36.6995 30.2854C36.8939 30.2831 37.0859 30.2424 37.2644 30.1655C37.4429 30.0885 37.6043 29.977 37.7394 29.8372C37.9938 29.5825 38.1372 29.2375 38.1384 28.8774C38.1395 28.5174 37.9983 28.1715 37.7455 27.9151ZM6.42321 3.15694H4.25294L5.24262 1.68598H6.42321V3.15694ZM8.73415 3.83817H7.42797V1.40465C7.42473 1.38061 7.42003 1.35678 7.4139 1.33331V1.00476L8.73917 0.98868L8.73415 3.83817ZM20.7721 23.1345H17.6343L17.8242 9.61753H20.5832L20.7721 23.1345ZM17.0013 4.2662C16.7214 3.98081 16.3872 3.75432 16.0185 3.60006C15.6497 3.44579 15.2538 3.36687 14.8541 3.36794H9.74192V1.47498H15.46C16.7946 1.47511 18.0755 2.00054 19.0258 2.93764C19.976 3.87475 20.5193 5.14822 20.538 6.48269L20.5712 8.61277H17.8382L17.8694 6.42542C17.876 6.0258 17.8026 5.6289 17.6535 5.25808C17.5045 4.88726 17.2827 4.55001 17.0013 4.2662ZM27.3744 37.2996C26.5598 38.1138 25.5208 38.6664 24.3903 38.8869C23.2598 39.1073 22.0893 38.9855 21.0285 38.537C19.9676 38.0885 19.0647 37.3338 18.4352 36.3693C17.8056 35.4048 17.4782 34.2744 17.4946 33.1228L17.6202 24.1393H20.7892L20.8194 26.2824C20.8279 26.7094 20.9614 27.1244 21.2035 27.4762C21.4456 27.828 21.7856 28.101 22.1813 28.2615C22.5771 28.4219 23.0112 28.4627 23.4299 28.3788C23.8486 28.2949 24.2335 28.0901 24.537 27.7895L29.0955 23.231L35.2688 29.4052L27.3744 37.2996ZM36.9758 29.1872C36.9092 29.2537 36.8188 29.291 36.7246 29.291C36.6305 29.291 36.5401 29.2537 36.4735 29.1872L29.3206 22.0343C29.285 21.9949 29.2581 21.9484 29.2416 21.8979C29.2251 21.8475 29.2193 21.7941 29.2247 21.7413C29.2301 21.6884 29.2465 21.6373 29.2729 21.5912C29.2993 21.5451 29.3351 21.5051 29.3779 21.4736C29.4108 21.4409 29.4501 21.4151 29.4932 21.3978C29.5364 21.3806 29.5826 21.3722 29.6291 21.3732C29.7231 21.3722 29.8137 21.4083 29.8813 21.4736L37.0331 28.6255C37.0683 28.6652 37.0948 28.7118 37.1111 28.7623C37.1274 28.8128 37.133 28.8661 37.1276 28.9189C37.1222 28.9717 37.1059 29.0228 37.0798 29.0689C37.0537 29.1151 37.0183 29.1554 36.9758 29.1872Z" fill="black"/>
<path d="M28.6263 30.8641C28.1625 30.8643 27.709 30.7269 27.3232 30.4694C26.9374 30.2118 26.6367 29.8456 26.459 29.4171C26.2814 28.9886 26.2348 28.5171 26.3252 28.0621C26.4155 27.6071 26.6388 27.1892 26.9667 26.8611C27.2947 26.533 27.7125 26.3096 28.1674 26.219C28.6224 26.1285 29.0939 26.1748 29.5225 26.3523C29.9511 26.5298 30.3174 26.8303 30.5751 27.216C30.8329 27.6017 30.9704 28.0551 30.9704 28.519C30.9699 29.1406 30.7228 29.7366 30.2833 30.1763C29.8439 30.6159 29.2479 30.8633 28.6263 30.8641ZM28.6263 27.1786C28.3612 27.1784 28.1019 27.2569 27.8814 27.404C27.6608 27.5512 27.4889 27.7605 27.3873 28.0054C27.2857 28.2503 27.259 28.5198 27.3106 28.7799C27.3622 29.0399 27.4898 29.2788 27.6772 29.4664C27.8646 29.6539 28.1034 29.7817 28.3635 29.8335C28.6235 29.8853 28.893 29.8588 29.138 29.7574C29.383 29.656 29.5924 29.4842 29.7397 29.2637C29.887 29.0433 29.9657 28.7841 29.9657 28.519C29.9654 28.1638 29.8242 27.8231 29.5731 27.5719C29.3221 27.3206 28.9815 27.1792 28.6263 27.1786Z" fill="black"/>
<path d="M24.333 35.1554C23.8694 35.1552 23.4163 35.0176 23.0309 34.7599C22.6456 34.5022 22.3453 34.136 22.168 33.7077C21.9908 33.2793 21.9445 32.808 22.035 32.3534C22.1256 31.8988 22.3489 31.4812 22.6768 31.1534C23.0047 30.8257 23.4224 30.6026 23.877 30.5122C24.3317 30.4218 24.803 30.4683 25.2313 30.6458C25.6595 30.8232 26.0256 31.1236 26.2831 31.5091C26.5406 31.8946 26.6781 32.3477 26.6781 32.8113C26.6773 33.4329 26.4299 34.0289 25.9903 34.4683C25.5506 34.9078 24.9546 35.1549 24.333 35.1554ZM24.333 31.471C24.0679 31.471 23.8087 31.5496 23.5883 31.6969C23.3679 31.8441 23.1961 32.0535 23.0947 32.2984C22.9932 32.5433 22.9667 32.8128 23.0184 33.0728C23.0701 33.3328 23.1978 33.5716 23.3852 33.7591C23.5727 33.9465 23.8115 34.0742 24.0715 34.1259C24.3315 34.1776 24.601 34.1511 24.8459 34.0496C25.0908 33.9482 25.3002 33.7764 25.4474 33.556C25.5947 33.3356 25.6733 33.0764 25.6733 32.8113C25.6728 32.456 25.5314 32.1154 25.2802 31.8641C25.0289 31.6129 24.6883 31.4715 24.333 31.471Z" fill="black"/>
</svg>
