<svg width="18" height="18" viewBox="0 0 18 18" fill="none" xmlns="http://www.w3.org/2000/svg">
<path d="M17.0909 15.9085L13.9992 12.8418C15.1993 11.3455 15.7804 9.44625 15.6232 7.53458C15.466 5.62292 14.5822 3.84415 13.1538 2.56403C11.7253 1.28392 9.86069 0.599756 7.94329 0.652223C6.02589 0.70469 4.20146 1.4898 2.84514 2.84612C1.48882 4.20243 0.703714 6.02686 0.651247 7.94427C0.59878 9.86167 1.28294 11.7263 2.56306 13.1548C3.84317 14.5832 5.62194 15.4669 7.5336 15.6242C9.44527 15.7814 11.3445 15.2002 12.8409 14.0002L15.9075 17.0668C15.985 17.1449 16.0772 17.2069 16.1787 17.2492C16.2803 17.2915 16.3892 17.3133 16.4992 17.3133C16.6092 17.3133 16.7181 17.2915 16.8197 17.2492C16.9212 17.2069 17.0134 17.1449 17.0909 17.0668C17.2411 16.9114 17.325 16.7038 17.325 16.4877C17.325 16.2716 17.2411 16.0639 17.0909 15.9085ZM8.16585 14.0002C7.01213 14.0002 5.88432 13.658 4.92503 13.0171C3.96574 12.3761 3.21807 11.4651 2.77656 10.3992C2.33505 9.33325 2.21953 8.16036 2.44461 7.0288C2.66969 5.89725 3.22526 4.85785 4.04106 4.04204C4.85687 3.22624 5.89627 2.67066 7.02783 2.44558C8.15938 2.2205 9.33227 2.33602 10.3982 2.77753C11.4641 3.21904 12.3751 3.96672 13.0161 4.926C13.6571 5.88529 13.9992 7.01311 13.9992 8.16683C13.9992 9.71393 13.3846 11.1977 12.2906 12.2916C11.1967 13.3856 9.71295 14.0002 8.16585 14.0002Z" fill="white"/>
</svg>
