<svg width="14" height="18" viewBox="0 0 14 18" fill="none" xmlns="http://www.w3.org/2000/svg">
<path d="M6.99999 0.666504C5.34307 0.668702 3.75463 1.32789 2.58301 2.49951C1.41138 3.67114 0.752198 5.25957 0.75 6.9165C0.75 11.4035 6.57291 17.0233 6.82031 17.2602C6.86843 17.307 6.93289 17.3332 6.99999 17.3332C7.0671 17.3332 7.13156 17.307 7.17968 17.2602C7.42708 17.0233 13.25 11.4035 13.25 6.9165C13.2478 5.25957 12.5886 3.67114 11.417 2.49951C10.2454 1.32789 8.65692 0.668702 6.99999 0.666504V0.666504ZM6.99999 9.78108C6.43343 9.78108 5.8796 9.61307 5.40852 9.29831C4.93744 8.98355 4.57028 8.53616 4.35347 8.01273C4.13665 7.48929 4.07992 6.91332 4.19046 6.35765C4.30099 5.80197 4.57381 5.29155 4.97443 4.89093C5.37505 4.49031 5.88547 4.21749 6.44114 4.10696C6.99682 3.99643 7.57279 4.05316 8.09622 4.26997C8.61965 4.48678 9.06704 4.85394 9.3818 5.32502C9.69657 5.7961 9.86457 6.34994 9.86457 6.9165C9.86412 7.67609 9.56217 8.40445 9.02505 8.94156C8.48794 9.47867 7.75959 9.78062 6.99999 9.78108Z" fill="#5C6471"/>
</svg>
