<svg width="25" height="25" viewBox="0 0 25 25" fill="none" xmlns="http://www.w3.org/2000/svg">
<path fill-rule="evenodd" clip-rule="evenodd" d="M18.3211 2.5C16.2951 2.5 14.6422 4.12855 14.6422 6.13683C14.6422 6.54428 14.7105 6.93643 14.8362 7.30266L9.33888 10.5651C8.66856 9.8712 7.72375 9.43816 6.67892 9.43816C4.65298 9.43816 3 11.0667 3 13.075C3 15.0833 4.65298 16.7118 6.67892 16.7118C7.85203 16.7118 8.89899 16.1661 9.57307 15.3177L14.7629 17.9375C14.6841 18.2333 14.6422 18.5436 14.6422 18.8632C14.6422 20.8714 16.2951 22.5 18.3211 22.5C20.347 22.5 22 20.8714 22 18.8632C22 16.8549 20.347 15.2263 18.3211 15.2263C17.167 15.2263 16.135 15.7546 15.46 16.5795L10.2501 13.9496C10.3204 13.6693 10.3578 13.3763 10.3578 13.075C10.3578 12.6498 10.2834 12.2413 10.147 11.8615L15.6261 8.6098C16.2983 9.32524 17.2579 9.77366 18.3211 9.77366C20.347 9.77366 22 8.1451 22 6.13683C22 4.12855 20.347 2.5 18.3211 2.5ZM16.1789 6.13683C16.1789 4.97464 17.1373 4.0238 18.3211 4.0238C19.5049 4.0238 20.4632 4.97464 20.4632 6.13683C20.4632 7.29902 19.5049 8.24985 18.3211 8.24985C17.1373 8.24985 16.1789 7.29902 16.1789 6.13683ZM4.53676 13.075C4.53676 11.9128 5.49512 10.962 6.67892 10.962C7.86272 10.962 8.82108 11.9128 8.82108 13.075C8.82108 14.2372 7.86272 15.188 6.67892 15.188C5.49512 15.188 4.53676 14.2372 4.53676 13.075ZM16.1789 18.8632C16.1789 17.701 17.1373 16.7501 18.3211 16.7501C19.5049 16.7501 20.4632 17.701 20.4632 18.8632C20.4632 20.0254 19.5049 20.9762 18.3211 20.9762C17.1373 20.9762 16.1789 20.0254 16.1789 18.8632Z" fill="#424953"/>
</svg>
