<svg width="40" height="40" viewBox="0 0 40 40" fill="none" xmlns="http://www.w3.org/2000/svg">
<rect width="40" height="40" rx="20" fill="#21697C"/>
<path fill-rule="evenodd" clip-rule="evenodd" d="M22.8868 11.2203C24.5139 9.59322 27.1524 9.59322 28.7795 11.2203C30.4066 12.8475 30.4066 15.4851 28.7795 17.1123L23.5945 22.2973C21.9674 23.9244 19.3297 23.9244 17.7026 22.2973C17.3772 21.9719 17.3772 21.4442 17.7026 21.1188C18.028 20.7933 18.5557 20.7933 18.8811 21.1188C19.8573 22.095 21.4397 22.095 22.416 21.1188L27.601 15.9337C28.5772 14.9575 28.5772 13.3751 27.601 12.3989C26.6247 11.4226 25.0415 11.4226 24.0653 12.3989L21.2378 15.2264C20.9123 15.5518 20.3847 15.5518 20.0593 15.2264C19.7338 14.901 19.7338 14.3733 20.0593 14.0479L22.8868 11.2203ZM15.9348 27.6005L18.2915 25.2438C18.6169 24.9184 19.1446 24.9184 19.4701 25.2438C19.7955 25.5692 19.7955 26.0969 19.4701 26.4223L17.1134 28.779C15.4854 30.407 12.8476 30.407 11.2206 28.779C9.59352 27.1519 9.59352 24.5143 11.2206 22.8871L15.9348 18.173C17.5619 16.5459 20.1996 16.5459 21.8267 18.173C22.1521 18.4984 22.1521 19.0261 21.8267 19.3515C21.5013 19.6769 20.9736 19.6769 20.6482 19.3515C19.672 18.3752 18.0896 18.3752 17.1133 19.3515L12.3991 24.0657C11.4229 25.0419 11.4229 26.6243 12.3993 27.6007C13.3755 28.5776 14.9578 28.5776 15.9348 27.6005Z" fill="white"/>
</svg>
