<svg width="17" height="16" viewBox="0 0 17 16" fill="none" xmlns="http://www.w3.org/2000/svg">
<g id="shield 1" clip-path="url(#clip0_27513_148996)">
<g id="Group">
<g id="Group_2">
<path id="Vector" d="M14.8189 3.67201L8.77263 0.0749836C8.6046 -0.0249539 8.39532 -0.0249539 8.22729 0.0749836L2.18094 3.67201C2.01935 3.76817 1.92029 3.94236 1.92029 4.13039V6.18373C1.92029 10.5085 4.41904 14.4586 8.30738 15.964C8.43116 16.012 8.5686 16.012 8.69251 15.964C12.5714 14.4624 15.0796 10.5209 15.0796 6.18373V4.13039C15.0796 3.94233 14.9806 3.76817 14.8189 3.67201ZM11.1349 6.80158L7.79219 10.1443C7.58391 10.3525 7.24623 10.3525 7.03794 10.1443L5.86482 8.97117C5.65654 8.76292 5.65654 8.4252 5.86482 8.21692C6.0731 8.00867 6.41082 8.00867 6.61907 8.21692L7.41504 9.01289L10.3806 6.04733C10.5889 5.83908 10.9266 5.83908 11.1349 6.04733C11.3432 6.25564 11.3432 6.59333 11.1349 6.80158Z" fill="#21697C"/>
</g>
</g>
</g>
<defs>
<clipPath id="clip0_27513_148996">
<rect width="16" height="16" fill="white" transform="translate(0.5)"/>
</clipPath>
</defs>
</svg>
