<svg width="21" height="20" viewBox="0 0 21 20" fill="none" xmlns="http://www.w3.org/2000/svg">
<path d="M3.5917 13.575C3.51244 13.4991 3.41899 13.4397 3.3167 13.4C3.11381 13.3167 2.88625 13.3167 2.68336 13.4C2.58107 13.4397 2.48762 13.4991 2.40836 13.575C2.3325 13.6543 2.27303 13.7477 2.23336 13.85C2.16955 14.0018 2.15211 14.169 2.18326 14.3307C2.2144 14.4923 2.29273 14.6411 2.40836 14.7583C2.48937 14.8319 2.58238 14.8911 2.68336 14.9333C2.78311 14.9774 2.89097 15.0002 3.00003 15.0002C3.10909 15.0002 3.21695 14.9774 3.3167 14.9333C3.41769 14.8911 3.5107 14.8319 3.5917 14.7583C3.70733 14.6411 3.78566 14.4923 3.8168 14.3307C3.84795 14.169 3.83051 14.0018 3.7667 13.85C3.72704 13.7477 3.66756 13.6543 3.5917 13.575ZM6.33336 6.66667H18C18.221 6.66667 18.433 6.57887 18.5893 6.42259C18.7456 6.26631 18.8334 6.05435 18.8334 5.83333C18.8334 5.61232 18.7456 5.40036 18.5893 5.24408C18.433 5.0878 18.221 5 18 5H6.33336C6.11235 5 5.90039 5.0878 5.74411 5.24408C5.58783 5.40036 5.50003 5.61232 5.50003 5.83333C5.50003 6.05435 5.58783 6.26631 5.74411 6.42259C5.90039 6.57887 6.11235 6.66667 6.33336 6.66667ZM3.5917 9.40833C3.47451 9.2927 3.3257 9.21437 3.16404 9.18323C3.00238 9.15208 2.83512 9.16952 2.68336 9.23333C2.58238 9.27553 2.48937 9.33472 2.40836 9.40833C2.3325 9.48759 2.27303 9.58104 2.23336 9.68333C2.18928 9.78308 2.1665 9.89094 2.1665 10C2.1665 10.1091 2.18928 10.2169 2.23336 10.3167C2.27557 10.4177 2.33476 10.5107 2.40836 10.5917C2.48937 10.6653 2.58238 10.7245 2.68336 10.7667C2.78311 10.8108 2.89097 10.8335 3.00003 10.8335C3.10909 10.8335 3.21695 10.8108 3.3167 10.7667C3.41769 10.7245 3.5107 10.6653 3.5917 10.5917C3.66531 10.5107 3.7245 10.4177 3.7667 10.3167C3.81079 10.2169 3.83356 10.1091 3.83356 10C3.83356 9.89094 3.81079 9.78308 3.7667 9.68333C3.72704 9.58104 3.66756 9.48759 3.5917 9.40833ZM18 9.16667H6.33336C6.11235 9.16667 5.90039 9.25446 5.74411 9.41074C5.58783 9.56702 5.50003 9.77899 5.50003 10C5.50003 10.221 5.58783 10.433 5.74411 10.5893C5.90039 10.7455 6.11235 10.8333 6.33336 10.8333H18C18.221 10.8333 18.433 10.7455 18.5893 10.5893C18.7456 10.433 18.8334 10.221 18.8334 10C18.8334 9.77899 18.7456 9.56702 18.5893 9.41074C18.433 9.25446 18.221 9.16667 18 9.16667ZM3.5917 5.24167C3.51244 5.1658 3.41899 5.10633 3.3167 5.06667C3.16494 5.00285 2.99768 4.98542 2.83602 5.01656C2.67436 5.04771 2.52555 5.12604 2.40836 5.24167C2.33476 5.32267 2.27557 5.41568 2.23336 5.51667C2.18928 5.61642 2.1665 5.72427 2.1665 5.83333C2.1665 5.94239 2.18928 6.05025 2.23336 6.15C2.27557 6.25099 2.33476 6.344 2.40836 6.425C2.48937 6.49861 2.58238 6.5578 2.68336 6.6C2.83512 6.66382 3.00238 6.68125 3.16404 6.65011C3.3257 6.61896 3.47451 6.54063 3.5917 6.425C3.66531 6.344 3.7245 6.25099 3.7667 6.15C3.81079 6.05025 3.83356 5.94239 3.83356 5.83333C3.83356 5.72427 3.81079 5.61642 3.7667 5.51667C3.7245 5.41568 3.66531 5.32267 3.5917 5.24167ZM18 13.3333H6.33336C6.11235 13.3333 5.90039 13.4211 5.74411 13.5774C5.58783 13.7337 5.50003 13.9457 5.50003 14.1667C5.50003 14.3877 5.58783 14.5996 5.74411 14.7559C5.90039 14.9122 6.11235 15 6.33336 15H18C18.221 15 18.433 14.9122 18.5893 14.7559C18.7456 14.5996 18.8334 14.3877 18.8334 14.1667C18.8334 13.9457 18.7456 13.7337 18.5893 13.5774C18.433 13.4211 18.221 13.3333 18 13.3333Z" fill="white"/>
</svg>
