<svg width="20" height="20" viewBox="0 0 20 20" fill="none" xmlns="http://www.w3.org/2000/svg">
<path d="M10 20C15.5228 20 20 15.5228 20 10C20 4.47715 15.5228 0 10 0C4.47715 0 0 4.47715 0 10C0 15.5228 4.47715 20 10 20Z" fill="#8A214E"/>
<path d="M10.25 8.50726C8.61111 6.88723 6.41667 6.78598 4 6.78598V13.9933C4.89286 13.9288 7.57143 13.4824 10.25 14.8217C12.4821 13.4824 15.6071 13.9288 16.5 13.9933V6.78598C14.0833 6.78598 11.8889 6.88723 10.25 8.50726Z" fill="white"/>
<path d="M9.81425 7.80861L10.2501 8.2694L10.686 7.80861C11.8514 6.57665 13.3545 5.78367 15.0073 5.62812V11.8489C13.1988 11.9925 11.5578 12.779 10.251 13.9795C8.94307 12.7738 7.3012 11.9915 5.49299 11.8487V5.62812C7.14573 5.78367 8.64887 6.57665 9.81425 7.80861Z" fill="white" stroke="#8A214E" stroke-width="1.2"/>
</svg>
