<svg width="24" height="24" viewBox="0 0 24 24" fill="none" xmlns="http://www.w3.org/2000/svg">
<rect width="24" height="24" rx="12" fill="#F2F4F7"/>
<path d="M12 5.33337C10.6745 5.33513 9.40371 5.86248 8.46641 6.79978C7.52911 7.73708 7.00176 9.00783 7 10.3334C7 13.9229 11.6583 18.4188 11.8562 18.6084C11.8947 18.6458 11.9463 18.6667 12 18.6667C12.0537 18.6667 12.1052 18.6458 12.1437 18.6084C12.3417 18.4188 17 13.9229 17 10.3334C16.9982 9.00783 16.4709 7.73708 15.5336 6.79978C14.5963 5.86248 13.3255 5.33513 12 5.33337V5.33337ZM12 12.625C11.5467 12.625 11.1037 12.4906 10.7268 12.2388C10.35 11.987 10.0562 11.6291 9.88277 11.2104C9.70932 10.7916 9.66394 10.3308 9.75236 9.88629C9.84079 9.44175 10.059 9.03341 10.3795 8.71292C10.7 8.39242 11.1084 8.17416 11.5529 8.08574C11.9975 7.99731 12.4582 8.0427 12.877 8.21615C13.2957 8.3896 13.6536 8.68333 13.9054 9.06019C14.1573 9.43705 14.2917 9.88012 14.2917 10.3334C14.2913 10.941 14.0497 11.5237 13.62 11.9534C13.1904 12.3831 12.6077 12.6247 12 12.625Z" fill="#C00659"/>
</svg>
