<svg width="24" height="24" viewBox="0 0 24 24" fill="none" xmlns="http://www.w3.org/2000/svg">
<rect width="24" height="24" rx="12" fill="#F2F4F7"/>
<path fill-rule="evenodd" clip-rule="evenodd" d="M15.4816 8.7952C15.4816 10.7 13.9161 12.257 12.0009 12.257C10.0858 12.257 8.52022 10.7 8.52022 8.7952C8.52022 6.89043 10.0857 5.33337 12.0009 5.33337C13.9161 5.33337 15.4816 6.89043 15.4816 8.7952ZM17.6248 14.3885C17.7616 14.5851 17.8831 14.7967 17.9744 15.0235C18.0199 15.1142 18.0048 15.22 17.9288 15.3107C17.8072 15.5223 17.6704 15.7189 17.5184 15.9154C17.3056 16.2026 17.0624 16.4596 16.8192 16.7015C16.6064 16.9131 16.3632 17.1248 16.12 17.3062C14.9193 18.1981 13.4753 18.6667 11.9858 18.6667C10.4962 18.6667 9.05223 18.1981 7.85148 17.3062C7.60826 17.1096 7.36508 16.9131 7.15229 16.7015C6.89389 16.4596 6.66589 16.2026 6.4531 15.9154C6.31631 15.734 6.16432 15.5223 6.04272 15.3107C5.99713 15.22 5.98194 15.1142 6.02753 15.0235C6.11871 14.8118 6.24032 14.5851 6.37711 14.3885C7.06108 13.3606 8.15544 12.6803 9.37141 12.514C9.52339 12.4838 9.69059 12.5291 9.8122 12.6198C10.4506 13.0885 11.2105 13.3303 12.0009 13.3303C12.7913 13.3303 13.5513 13.0885 14.1897 12.6198C14.3113 12.5291 14.4785 12.4989 14.6305 12.514C15.8464 12.6803 16.9256 13.3606 17.6248 14.3885Z" fill="#C00659"/>
</svg>
