<svg width="24" height="24" viewBox="0 0 24 24" fill="none" xmlns="http://www.w3.org/2000/svg">
<rect width="24" height="24" rx="12" fill="#F2F4F7"/>
<path d="M15.9375 5C14.2487 5 12.875 6.37375 12.875 8.0625C12.875 9.634 15.332 12.4174 15.612 12.7297C15.6951 12.8216 15.8132 12.875 15.9375 12.875C16.0618 12.875 16.1799 12.8216 16.263 12.7297C16.543 12.4174 19 9.634 19 8.0625C19 6.37375 17.6263 5 15.9375 5ZM15.9375 9.375C15.213 9.375 14.625 8.787 14.625 8.0625C14.625 7.338 15.213 6.75 15.9375 6.75C16.662 6.75 17.25 7.338 17.25 8.0625C17.25 8.787 16.662 9.375 15.9375 9.375Z" fill="#C00659"/>
<path d="M5.27475 10.1398C5.10938 10.2063 5 10.3672 5 10.5466V18.5625C5 18.7078 5.07263 18.8434 5.1925 18.9247C5.266 18.9737 5.35087 19 5.4375 19C5.49262 19 5.54775 18.9895 5.60025 18.9685L9.375 17.4583V8.5L5.27475 10.1398Z" fill="#C00659"/>
<path d="M16.914 13.3142C16.6655 13.5907 16.3094 13.75 15.9375 13.75C15.5656 13.75 15.2095 13.5907 14.961 13.3142C14.8717 13.2154 14.7571 13.085 14.625 12.9301V19L18.7253 17.3603C18.8915 17.2946 19 17.1327 19 16.9542V10.5221C18.2834 11.7357 17.3253 12.8558 16.914 13.3142Z" fill="#C00659"/>
<path d="M12.2756 9.31025L10.25 8.5V17.4583L13.75 18.8583V11.832C13.1909 11.0786 12.6072 10.1713 12.2756 9.31025Z" fill="#C00659"/>
</svg>
