<svg width="40" height="40" viewBox="0 0 40 40" fill="none" xmlns="http://www.w3.org/2000/svg">
<g clip-path="url(#clip0_915_24)">
<path d="M5.17902 37.9577C5.07939 37.9577 4.982 37.9281 4.89915 37.8728C4.8163 37.8175 4.7517 37.7388 4.71352 37.6468C4.67533 37.5548 4.66526 37.4536 4.68459 37.3559C4.70392 37.2581 4.75177 37.1683 4.82211 37.0978L18.891 23.0317C18.9375 22.9835 18.9931 22.9451 19.0546 22.9187C19.1161 22.8923 19.1823 22.8784 19.2492 22.8778C19.3161 22.8772 19.3825 22.89 19.4445 22.9153C19.5064 22.9407 19.5627 22.9781 19.61 23.0254C19.6574 23.0727 19.6948 23.129 19.7202 23.191C19.7455 23.2529 19.7583 23.3193 19.7577 23.3862C19.7571 23.4531 19.7432 23.5193 19.7168 23.5808C19.6903 23.6423 19.6519 23.6979 19.6038 23.7444L5.53392 37.8105C5.43969 37.9045 5.31211 37.9574 5.17902 37.9577Z" fill="black"/>
<path d="M39.6746 2.11442L37.8881 0.328053C37.7865 0.224201 37.6651 0.141687 37.5312 0.0853526C37.3973 0.0290186 37.2535 0 37.1082 0C36.9629 0 36.8191 0.0290186 36.6852 0.0853526C36.5512 0.141687 36.4299 0.224201 36.3283 0.328053L33.6878 2.96929C33.2989 3.06905 32.9436 3.27051 32.6584 3.55299L28.2393 7.97152C27.9577 8.25645 27.7566 8.6109 27.6565 8.99878L14.361 22.2927L13.5544 21.4862C13.5237 21.4599 13.4898 21.4375 13.4536 21.4197C13.5369 21.1825 13.5372 20.9241 13.4544 20.6868C13.3717 20.4495 13.2107 20.2473 12.998 20.1134C12.7852 19.9795 12.5333 19.9219 12.2835 19.95C12.0336 19.978 11.8008 20.0901 11.623 20.2678C11.4453 20.4456 11.3332 20.6784 11.3051 20.9282C11.2771 21.178 11.3347 21.4299 11.4686 21.6426C11.6025 21.8553 11.8047 22.0163 12.042 22.099C12.2794 22.1818 12.5379 22.1815 12.775 22.0981C12.7931 22.1345 12.8158 22.1684 12.8426 22.1989L13.6491 23.0054L10.8453 25.809L10.0387 25.0025C10.008 24.9758 9.97416 24.9531 9.93785 24.9349C10.0222 24.6967 10.023 24.4369 9.94015 24.1982C9.85732 23.9594 9.69576 23.7559 9.48201 23.6211C9.26825 23.4863 9.01501 23.4281 8.76384 23.4562C8.51267 23.4843 8.27851 23.5969 8.0998 23.7756C7.9211 23.9543 7.80846 24.1884 7.78039 24.4395C7.75231 24.6907 7.81047 24.9439 7.94532 25.1576C8.08016 25.3713 8.28367 25.5329 8.52244 25.6157C8.76122 25.6985 9.02106 25.6977 9.25931 25.6134C9.27749 25.6497 9.30019 25.6836 9.32686 25.7142L10.1334 26.5207L7.32753 29.3253L6.52095 28.5188C6.49035 28.4921 6.45647 28.4694 6.42012 28.4512C6.50321 28.214 6.50325 27.9557 6.42025 27.7184C6.33724 27.4812 6.17611 27.2792 5.96326 27.1456C5.75041 27.0119 5.49846 26.9545 5.24871 26.9828C4.99896 27.011 4.76621 27.1233 4.58861 27.3011C4.41102 27.479 4.2991 27.7118 4.27121 27.9616C4.24332 28.2114 4.3011 28.4632 4.4351 28.6758C4.56909 28.8884 4.77135 29.0493 5.00872 29.1319C5.24608 29.2145 5.50449 29.2141 5.74158 29.1307C5.75959 29.1669 5.78194 29.2007 5.80813 29.2315L6.61471 30.038L3.81082 32.8415L3.00423 32.035C2.97347 32.0085 2.93962 31.9859 2.90341 31.9675C2.9865 31.7303 2.98654 31.4719 2.90354 31.2347C2.82053 30.9975 2.6594 30.7955 2.44655 30.6619C2.2337 30.5282 1.98175 30.4708 1.732 30.499C1.48224 30.5273 1.2495 30.6396 1.0719 30.8174C0.894303 30.9952 0.782388 31.2281 0.754497 31.4779C0.726606 31.7276 0.784392 31.9795 0.918386 32.1921C1.05238 32.4047 1.25463 32.5655 1.492 32.6482C1.72937 32.7308 1.98778 32.7304 2.22487 32.647C2.24251 32.6833 2.26489 32.7173 2.29141 32.7478L3.098 33.5543L0.32637 36.3266C0.222998 36.4284 0.140912 36.5498 0.0848826 36.6837C0.0288534 36.8175 0 36.9612 0 37.1063C0 37.2514 0.0288534 37.3951 0.0848826 37.529C0.140912 37.6628 0.222998 37.7842 0.32637 37.8861L2.11397 39.6725C2.21554 39.7762 2.3368 39.8585 2.47062 39.9148C2.60445 39.971 2.74816 40 2.89333 40C3.0385 40 3.1822 39.971 3.31603 39.9148C3.44986 39.8585 3.57111 39.7762 3.67269 39.6725L31.0059 12.3386C31.3915 12.2368 31.7437 12.0355 32.0272 11.7549L36.4463 7.33742C36.7258 7.05442 36.9261 6.70296 37.027 6.31823L39.6736 3.67094C39.777 3.56908 39.8591 3.44768 39.9151 3.31382C39.9711 3.17995 40 3.03628 40 2.89117C40 2.74605 39.9711 2.60238 39.9151 2.46852C39.8591 2.33465 39.777 2.21326 39.6736 2.11139L39.6746 2.11442ZM2.96088 38.9587C2.95229 38.9681 2.94184 38.9755 2.93022 38.9806C2.91859 38.9857 2.90603 38.9884 2.89333 38.9884C2.88063 38.9884 2.86807 38.9857 2.85644 38.9806C2.84481 38.9755 2.83437 38.9681 2.82578 38.9587L1.03818 37.1734V37.0373L3.81082 34.266L5.72646 36.1814L2.96088 38.9587ZM6.44432 35.4747L4.52868 33.5593L7.33257 30.7558L9.25326 32.6762L6.44432 35.4747ZM9.96103 31.9584L8.04035 30.043L10.8442 27.2395L12.7649 29.1549L9.96103 31.9584ZM13.4777 28.4422L11.5621 26.5217L14.366 23.7182L16.2867 25.6386L13.4777 28.4422ZM16.9945 24.9259L15.0788 23.0105L27.7089 10.3718C27.8201 10.6914 28.0013 10.9821 28.2393 11.2227L28.7757 11.758C29.0174 11.9971 29.3095 12.1793 29.6306 12.2913L16.9945 24.9259ZM35.7284 6.62772L31.3093 11.0452C31.0633 11.2799 30.7364 11.4108 30.3964 11.4108C30.0564 11.4108 29.7295 11.2799 29.4834 11.0452L28.9471 10.5099C28.7055 10.2675 28.5699 9.93928 28.5699 9.5971C28.5699 9.25491 28.7055 8.92667 28.9471 8.68425L33.3661 4.26572C33.6083 4.02373 33.9367 3.88779 34.2791 3.88779C34.6215 3.88779 34.9499 4.02373 35.192 4.26572L35.7284 4.80203C35.9699 5.04445 36.1056 5.37269 36.1056 5.71487C36.1056 6.05706 35.9699 6.3853 35.7284 6.62772ZM38.9548 2.96123L36.9786 4.94418C36.8672 4.62307 36.6853 4.33097 36.4463 4.0893L35.9099 3.55299C35.6699 3.31456 35.3795 3.13301 35.06 3.02172L37.0391 1.04179C37.0477 1.03244 37.0582 1.02498 37.0698 1.01987C37.0814 1.01477 37.094 1.01213 37.1067 1.01213C37.1194 1.01213 37.1319 1.01477 37.1436 1.01987C37.1552 1.02498 37.1656 1.03244 37.1742 1.04179L38.9608 2.82816L38.9548 2.96123Z" fill="black"/>
<path d="M31.6541 8.85162C31.5545 8.8516 31.4571 8.82206 31.3742 8.76673C31.2914 8.71141 31.2268 8.63278 31.1886 8.54077C31.1504 8.44876 31.1403 8.34751 31.1597 8.24978C31.179 8.15206 31.2268 8.06225 31.2972 7.9917L32.6805 6.60959C32.7756 6.51777 32.9029 6.46696 33.0351 6.46811C33.1672 6.46926 33.2937 6.52227 33.3872 6.61573C33.4806 6.70918 33.5336 6.83561 33.5348 6.96777C33.5359 7.09993 33.4851 7.22725 33.3933 7.32232L32.011 8.70947C31.9155 8.8021 31.7872 8.8532 31.6541 8.85162Z" fill="black"/>
</g>
<defs>
<clipPath id="clip0_915_24">
<rect width="40" height="40" fill="white"/>
</clipPath>
</defs>
</svg>
