<svg width="40" height="40" viewBox="0 0 40 40" fill="none" xmlns="http://www.w3.org/2000/svg">
<g id="Social networks">
<rect width="40" height="40" rx="20" fill="#21697C"/>
<g id="twitter">
<path id="Vector" d="M28.7827 15.4928C28.7827 15.6957 28.7827 15.8986 28.7827 16.0725C28.7827 22.0725 24.233 29 15.9398 29C13.377 29 11.0157 28.2464 9 26.971C9.34555 27 9.7199 27.029 10.0654 27.029C12.1675 27.029 14.1257 26.3043 15.6806 25.087C13.6937 25.058 12.0236 23.7246 11.4764 21.9275C11.7644 21.9855 12.0236 22.0145 12.3403 22.0145C12.7435 22.0145 13.1466 21.9565 13.5209 21.8406C11.4476 21.4348 9.89267 19.6087 9.89267 17.4058C9.89267 17.3768 9.89267 17.3768 9.89267 17.3478C10.4974 17.6957 11.1885 17.8986 11.9372 17.9275C10.7277 17.1159 9.92147 15.7246 9.92147 14.1304C9.92147 13.2899 10.1518 12.5072 10.5262 11.8406C12.7435 14.5942 16.0838 16.3913 19.8272 16.5942C19.7408 16.2754 19.712 15.8986 19.712 15.5507C19.712 13.029 21.7277 11 24.233 11C25.5288 11 26.7094 11.5507 27.5157 12.4203C28.5524 12.2174 29.5026 11.8406 30.3953 11.3188C30.0497 12.3913 29.3298 13.2609 28.4084 13.8406C29.3298 13.7246 30.1937 13.4928 31 13.1159C30.4241 14.0435 29.6754 14.8551 28.7827 15.4928Z" fill="white"/>
</g>
</g>
</svg>
