<svg width="20" height="20" viewBox="0 0 20 20" fill="none" xmlns="http://www.w3.org/2000/svg">
<circle cx="10" cy="10" r="10" fill="#473475"/>
<path fill-rule="evenodd" clip-rule="evenodd" d="M10.0059 10.8611L10.0003 5H13.3337V7.22222H11.1114V12.7778C11.1114 14.0056 10.1281 15 8.89477 15C7.66144 15 6.66699 14.0056 6.66699 12.7778C6.66699 11.55 7.66144 10.5556 8.89477 10.5556C9.30033 10.5556 9.6781 10.6722 10.0059 10.8611ZM7.78366 12.7778C7.78366 13.3889 8.28366 13.8889 8.89477 13.8889C9.50588 13.8889 10.0059 13.3889 10.0059 12.7778C10.0059 12.1667 9.50588 11.6667 8.89477 11.6667C8.28366 11.6667 7.78366 12.1667 7.78366 12.7778Z" fill="white"/>
</svg>
