<svg width="20" height="20" viewBox="0 0 20 20" fill="none" xmlns="http://www.w3.org/2000/svg">
<g id="warning">
<path id="Vector" fill-rule="evenodd" clip-rule="evenodd" d="M10.0001 1.66663C5.39386 1.66663 1.66675 5.39407 1.66675 9.99996C1.66675 14.6062 5.39419 18.3333 10.0001 18.3333C14.6063 18.3333 18.3334 14.6059 18.3334 9.99996C18.3334 5.39374 14.606 1.66663 10.0001 1.66663ZM10.0001 17.0312C6.11359 17.0312 2.96883 13.8862 2.96883 9.99996C2.96883 6.11347 6.11385 2.96871 10.0001 2.96871C13.8866 2.96871 17.0313 6.11373 17.0313 9.99996C17.0313 13.8865 13.8863 17.0312 10.0001 17.0312ZM10.0001 5.86186C9.64051 5.86186 9.34904 6.15333 9.34904 6.5129L9.34904 10.7054C9.34904 11.065 9.64051 11.3564 10.0001 11.3564C10.3597 11.3564 10.6511 11.065 10.6511 10.7054L10.6511 6.5129C10.6511 6.15333 10.3597 5.86186 10.0001 5.86186ZM10.879 13.0325C10.879 13.5179 10.4855 13.9114 10.0001 13.9114C9.51468 13.9114 9.12118 13.5179 9.12118 13.0325C9.12118 12.5471 9.51468 12.1536 10.0001 12.1536C10.4855 12.1536 10.879 12.5471 10.879 13.0325Z" fill="#5C6471"/>
</g>
</svg>
