<svg width="24" height="24" viewBox="0 0 24 24" fill="none" xmlns="http://www.w3.org/2000/svg">
<path d="M12 22.75C11.9194 22.75 11.8393 22.7369 11.763 22.711C10.174 22.182 2.25 19.123 2.25 10.889V5.00004C2.24978 4.82709 2.30941 4.65939 2.41878 4.52542C2.52815 4.39144 2.68051 4.29944 2.85 4.26503C5.92075 3.76858 8.89189 2.78236 11.65 1.34404C11.7584 1.29011 11.8774 1.26089 11.9984 1.25846C12.1195 1.25604 12.2395 1.28049 12.35 1.33004C15.0998 2.78416 18.0701 3.77575 21.142 4.26503C21.3115 4.29944 21.4639 4.39144 21.5732 4.52542C21.6826 4.65939 21.7422 4.82709 21.742 5.00004V10.889C21.742 19.123 13.818 22.182 12.229 22.711C12.1552 22.736 12.0779 22.7492 12 22.75ZM3.75 5.61203V10.889C3.75 17.753 10.168 20.549 12 21.206C13.832 20.549 20.25 17.753 20.25 10.889V5.61203C17.381 5.10732 14.6047 4.17211 12.015 2.83804C9.41371 4.16958 6.62789 5.10459 3.75 5.61203ZM11.542 14.53L15.542 10.53C15.6786 10.3885 15.7541 10.199 15.7523 10.0024C15.7505 9.80574 15.6715 9.61766 15.5324 9.47867C15.3933 9.33968 15.2051 9.26089 15.0085 9.25928C14.8118 9.25766 14.6224 9.33335 14.481 9.47003L11.012 12.939L9.542 11.47C9.40061 11.3333 9.2112 11.2577 9.01455 11.2593C8.8179 11.2609 8.62975 11.3397 8.49063 11.4787C8.35151 11.6177 8.27254 11.8057 8.27074 12.0024C8.26894 12.199 8.34445 12.3885 8.481 12.53L10.481 14.53C10.5507 14.5997 10.6334 14.655 10.7244 14.6927C10.8154 14.7305 10.913 14.7499 11.0115 14.7499C11.11 14.7499 11.2076 14.7305 11.2986 14.6927C11.3897 14.655 11.4724 14.5997 11.542 14.53Z" fill="black"/>
<g clip-path="url(#clip0_262_6501)">
<path d="M14 14H24V24H14V14Z" fill="#FF0000"/>
<path d="M18.0625 15.875H19.9375V18.0625H22.125V19.9375H19.9375V22.125H18.0625V19.9375H15.875V18.0625H18.0625V15.875Z" fill="white"/>
</g>
<defs>
<clipPath id="clip0_262_6501">
<rect width="10" height="10" fill="white" transform="translate(14 14)"/>
</clipPath>
</defs>
</svg>
