<svg width="32" height="33" viewBox="0 0 32 33" fill="none" xmlns="http://www.w3.org/2000/svg">
<circle cx="16" cy="16.5" r="15" stroke="#34A3C2" stroke-width="2"/>
<path d="M8.54718 18.5172C8.291 18.5172 8.08331 18.7248 8.08331 18.981V23.4527C8.08331 23.7089 8.291 23.9166 8.54718 23.9166H10.1367V18.5172H8.54718Z" fill="#34A3C2"/>
<path d="M23.4528 18.5172H21.8633V23.9166H23.4528C23.709 23.9166 23.9166 23.7089 23.9166 23.4527V18.981C23.9166 18.7248 23.709 18.5172 23.4528 18.5172Z" fill="#34A3C2"/>
<path d="M21.6573 13.5902L16.4638 11.2295V9.50782H17.9874C18.2436 9.50782 18.4512 9.30013 18.4512 9.04395V8.54712C18.4512 8.29094 18.2436 8.08325 17.9874 8.08325H16C15.7438 8.08325 15.5361 8.29094 15.5361 8.54712V11.2295L10.3427 13.5902C10.1095 13.6962 10.0063 13.9712 10.1124 14.2044C10.2184 14.4377 10.4934 14.5407 10.7266 14.4348L11.0645 14.2812V23.4527C11.0645 23.7089 11.2722 23.9166 11.5283 23.9166H14.0456V20.4716C14.0456 20.2155 14.2533 20.0077 14.5095 20.0077H17.4905C17.7467 20.0077 17.9544 20.2155 17.9544 20.4716V23.9166H20.4716C20.7278 23.9166 20.9355 23.7089 20.9355 23.4527V14.2812L21.2734 14.4348C21.3357 14.4631 21.4009 14.4765 21.465 14.4765C21.6413 14.4765 21.8099 14.3754 21.8876 14.2045C21.9936 13.9712 21.8905 13.6962 21.6573 13.5902ZM16 17.9897C14.9223 17.9897 14.0456 17.1129 14.0456 16.0353C14.0456 14.9576 14.9223 14.0809 16 14.0809C17.0776 14.0809 17.9544 14.9576 17.9544 16.0353C17.9544 17.1129 17.0777 17.9897 16 17.9897Z" fill="#34A3C2"/>
</svg>
