<svg width="44" height="44" viewBox="0 0 44 44" fill="none" xmlns="http://www.w3.org/2000/svg">
<g id="icon">
<path id="&#60;Path&#62;" d="M22.8031 23.8418C38.6732 3.80563 43.6242 1.32819 43.6242 3.30473C43.6242 5.28127 27.0216 32.4384 22.5589 32.7497C19.0865 32.9934 18.0963 30.0286 11.6533 20.1324C9.29312 16.5042 14.3797 14.6901 16.3601 15.4347C17.608 15.895 22.8031 23.8418 22.8031 23.8418Z" fill="#21697C"/>
<path id="&#60;Path&#62;_2" d="M43.9911 24.0586C42.9466 35.2274 33.5059 44 22.0442 44C9.78212 44 -0.174028 33.9549 0.00230674 21.676C0.178642 9.77611 9.90418 0.110032 21.8271 0.0017282C25.069 -0.0388856 28.1481 0.638004 30.9287 1.85642C32.1224 2.3844 32.4479 3.92772 31.5663 4.88892C31.0101 5.47105 30.142 5.66059 29.4095 5.32214C27.1579 4.33387 24.6621 3.77881 22.0442 3.77881C11.9795 3.77881 3.80029 11.9557 3.80029 22.0009C3.80029 32.046 11.9795 40.2094 22.0442 40.2094C31.512 40.2094 39.325 32.9801 40.2202 23.7608C40.3152 22.7996 41.0883 22.0144 42.065 22.0009C43.2044 21.9738 44.0996 22.935 43.9911 24.0586Z" fill="#21697C"/>
</g>
</svg>
